<?xml version="1.0" encoding="UTF-8" standalone="no"?>
<svg
   xmlns:dc="http://purl.org/dc/elements/1.1/"
   xmlns:cc="http://creativecommons.org/ns#"
   xmlns:rdf="http://www.w3.org/1999/02/22-rdf-syntax-ns#"
   xmlns:svg="http://www.w3.org/2000/svg"
   xmlns="http://www.w3.org/2000/svg"
   xmlns:xlink="http://www.w3.org/1999/xlink"
   version="1.1"
   width="131.98293pt"
   height="96.421989pt"
   viewBox="0 0 131.98293 96.421992"
   id="svg13">
  <metadata
     id="metadata19">
    <rdf:RDF>
      <cc:Work
         rdf:about="">
        <dc:format>image/svg+xml</dc:format>
        <dc:type
           rdf:resource="http://purl.org/dc/dcmitype/StillImage" />
        <dc:title></dc:title>
      </cc:Work>
    </rdf:RDF>
  </metadata>
  <defs
     id="defs17" />
  <g
     style="fill:#ffffff"
     enable-background="new"
     id="g11"
     transform="translate(-17.7086,-34.292)">
    <path
       style="fill:#ffffff"
       transform="matrix(1,0,0,-1,60.661,83.892)"
       d="m 0,0 h -17.28 l 8.64,29.916 z M -21.168,-13.716 H 3.888 l 4.32,-15.444 c 0.216,-0.54 0.648,-0.972 1.404,-0.972 h 15.66 c 0.648,0 1.188,0.756 0.972,1.404 L 2.7,47.088 c -0.216,0.54 -0.432,0.756 -0.864,0.756 H -17.28 c -0.432,0 -0.864,-0.324 -0.864,-0.54 l -23.76,-76.032 c -0.216,-0.648 0.324,-1.404 0.972,-1.404 h 14.04 c 0.756,0 1.188,0.432 1.404,0.972 z M 57.888,36.18 c 7.668,0 12.203,-5.508 12.203,-11.772 0,-8.64 -6.912,-15.552 -36.287,-41.256 -0.432,-0.324 -0.54,-0.864 -0.54,-1.188 v -10.692 c 0,-0.864 0.54,-1.404 1.404,-1.404 h 51.839 c 0.756,0 1.297,0.54 1.297,1.404 v 10.908 c 0,0.864 -0.541,1.296 -1.297,1.296 H 52.812 c 28.512,22.14 34.236,30.78 34.236,43.092 0,14.364 -11.449,22.032 -25.92,22.032 -11.772,0 -19.224,-1.08 -26.677,-3.996 -0.647,-0.216 -0.863,-0.54 -0.647,-1.188 l 3.348,-9.72 c 0.216,-0.54 0.647,-0.864 1.296,-0.648 7.128,2.376 12.852,3.132 19.44,3.132"
       id="path2" />
    <symbol
       style="fill:#ffffff"
       id="font_0_1">
      <path
         style="fill:#ffffff"
         d="M 0,0 Z"
         id="path4" />
    </symbol>
    <use
       style="fill:#ffffff"
       xlink:href="#font_0_1"
       transform="matrix(13,0,0,-13,18.7086,129.6236)"
       id="use7"
       x="0"
       y="0"
       width="100%"
       height="100%" />
    <path
       style="fill:#ffffff"
       transform="matrix(1,0,0,-1,21.515,125.997)"
       d="m 0,0 v 5.59 c 0,0.104 -0.052,0.168 -0.156,0.168 h -1.637 c -0.103,0 -0.168,-0.064 -0.168,-0.168 v -9.048 c 0,-0.103 0.065,-0.168 0.168,-0.168 h 1.637 c 0.104,0 0.156,0.065 0.156,0.168 v 2.275 l 1.456,-2.404 c 0.013,-0.026 0.052,-0.039 0.091,-0.039 h 2.054 c 0.117,0 0.143,0.129 0.091,0.207 L 1.547,-0.494 3.549,2.314 C 3.588,2.392 3.536,2.47 3.471,2.47 H 1.586 C 1.534,2.47 1.482,2.457 1.456,2.431 Z M 8.464,-3.029 8.659,-3.535 C 8.698,-3.6 8.724,-3.626 8.802,-3.626 h 1.195 c 0.104,0 0.169,0.065 0.169,0.169 v 5.784 c 0,0.104 -0.065,0.142 -0.169,0.142 H 8.36 C 8.256,2.469 8.204,2.431 8.204,2.327 v -4.33 C 7.957,-2.133 7.671,-2.25 7.307,-2.25 c -0.482,0 -0.716,0.195 -0.716,1.184 v 3.393 c 0,0.104 -0.065,0.142 -0.169,0.142 H 4.785 C 4.681,2.469 4.629,2.431 4.629,2.327 v -3.731 c 0,-1.781 0.533,-2.313 1.832,-2.313 0.794,0 1.405,0.273 2.003,0.688 z m 3.523,8.619 v -7.319 c 0,-1.197 0.702,-1.897 1.898,-1.897 h 1.482 c 0.104,0 0.169,0.065 0.169,0.168 v 1.157 c 0,0.104 -0.065,0.156 -0.169,0.156 h -0.819 c -0.416,0 -0.598,0.208 -0.598,0.585 v 7.15 c 0,0.104 -0.052,0.168 -0.156,0.168 h -1.638 c -0.104,0 -0.169,-0.064 -0.169,-0.168 z m 6.889,-3.121 v 2.093 c 0,0.104 -0.065,0.182 -0.169,0.156 L 17.057,4.237 C 16.966,4.211 16.914,4.172 16.914,4.081 V 2.469 h -0.702 c -0.091,0 -0.156,-0.039 -0.156,-0.142 V 1.145 c 0,-0.104 0.065,-0.156 0.156,-0.156 h 0.702 v -2.718 c 0,-1.196 0.689,-1.897 1.897,-1.897 h 1.482 c 0.104,0 0.169,0.065 0.169,0.169 v 1.156 c 0,0.103 -0.065,0.155 -0.169,0.155 h -0.819 c -0.403,0 -0.598,0.208 -0.598,0.586 v 2.549 h 1.417 c 0.104,0 0.169,0.065 0.169,0.169 v 1.156 c 0,0.103 -0.065,0.155 -0.169,0.155 z m 6.982,-5.498 0.195,-0.506 c 0.039,-0.065 0.065,-0.091 0.143,-0.091 h 1.195 c 0.104,0 0.169,0.065 0.169,0.169 v 5.784 c 0,0.104 -0.065,0.142 -0.169,0.142 h -1.637 c -0.104,0 -0.156,-0.038 -0.156,-0.142 v -4.33 C 25.351,-2.133 25.065,-2.25 24.7,-2.25 c -0.481,0 -0.715,0.195 -0.715,1.184 v 3.393 c 0,0.104 -0.065,0.142 -0.169,0.142 h -1.637 c -0.104,0 -0.156,-0.038 -0.156,-0.142 v -3.731 c 0,-1.781 0.533,-2.313 1.832,-2.313 0.793,0 1.405,0.273 2.003,0.688 z m 5.355,4.602 -0.338,0.819 c -0.026,0.039 -0.052,0.077 -0.13,0.077 H 29.55 c -0.104,0 -0.169,-0.038 -0.169,-0.142 v -5.785 c 0,-0.103 0.065,-0.168 0.169,-0.168 h 1.637 c 0.104,0 0.156,0.065 0.156,0.168 v 3.797 c 0.546,0.26 0.949,0.416 1.703,0.416 0.104,0 0.169,0.065 0.169,0.169 v 1.494 c 0,0.09 -0.065,0.142 -0.169,0.142 -0.702,0 -1.313,-0.246 -1.833,-0.987 z m 5.005,0.299 -0.208,0.52 c -0.026,0.052 -0.052,0.077 -0.13,0.077 h -1.195 c -0.104,0 -0.169,-0.038 -0.169,-0.142 v -5.785 c 0,-0.103 0.065,-0.168 0.169,-0.168 h 1.637 c 0.103,0 0.155,0.065 0.155,0.168 v 4.304 c 0.248,0.143 0.534,0.26 0.898,0.26 0.482,0 0.716,-0.195 0.716,-1.196 v -3.368 c 0,-0.103 0.065,-0.168 0.169,-0.168 h 1.637 c 0.103,0 0.155,0.065 0.155,0.168 v 3.719 c 0,1.767 -0.532,2.299 -1.831,2.299 -0.794,0 -1.405,-0.246 -2.003,-0.688 z m 6.176,-0.883 v -4.447 c 0,-0.103 0.052,-0.168 0.156,-0.168 h 1.649 c 0.104,0 0.156,0.065 0.156,0.168 v 5.785 c 0,0.103 -0.052,0.142 -0.156,0.142 h -2.806 c -0.104,0 -0.169,-0.039 -0.169,-0.142 V 1.145 c 0,-0.104 0.065,-0.156 0.169,-0.156 z m 0.091,1.989 2.403,1.703 c 0.065,0.039 0.052,0.13 0.013,0.182 l -0.792,0.883 c -0.052,0.064 -0.13,0.051 -0.182,0 L 41.926,3.615 C 41.874,3.563 41.874,3.485 41.9,3.446 l 0.403,-0.455 c 0.039,-0.039 0.13,-0.052 0.182,-0.013 z m 7.345,-3.563 c 0,-1.911 1.156,-3.132 3.001,-3.132 1.014,0 1.56,0.13 2.028,0.351 0.052,0.026 0.065,0.091 0.026,0.142 l -0.507,1.13 c -0.026,0.052 -0.065,0.065 -0.117,0.052 -0.286,-0.117 -0.559,-0.169 -0.962,-0.169 -0.858,0 -1.43,0.547 -1.43,1.626 0,1.093 0.572,1.652 1.43,1.652 0.403,0 0.676,-0.052 0.962,-0.169 0.052,-0.013 0.091,0 0.117,0.052 l 0.507,1.117 c 0.026,0.052 0.026,0.13 -0.026,0.156 -0.468,0.208 -1.014,0.337 -2.028,0.337 -1.858,0 -3.001,-1.22 -3.001,-3.145 z m 2.716,3.653 c 0.065,-0.052 0.13,-0.052 0.182,0 l 2.157,1.599 c 0.078,0.052 0.104,0.117 0.052,0.182 L 54.339,5.616 C 54.3,5.668 54.222,5.694 54.157,5.642 L 52.715,4.407 c -0.039,-0.039 -0.117,-0.039 -0.156,0 L 51.116,5.642 C 51.051,5.694 50.974,5.668 50.935,5.616 L 50.337,4.849 C 50.285,4.784 50.311,4.719 50.389,4.667 Z m 5.901,-0.599 v 2.093 c 0,0.104 -0.065,0.182 -0.169,0.156 L 56.629,4.237 C 56.538,4.211 56.486,4.172 56.486,4.081 V 2.469 h -0.702 c -0.091,0 -0.156,-0.039 -0.156,-0.142 V 1.145 c 0,-0.104 0.065,-0.156 0.156,-0.156 h 0.702 v -2.718 c 0,-1.196 0.688,-1.897 1.896,-1.897 h 1.482 c 0.104,0 0.169,0.065 0.169,0.169 v 1.156 c 0,0.103 -0.065,0.155 -0.169,0.155 h -0.819 c -0.403,0 -0.598,0.208 -0.598,0.586 v 2.549 h 1.417 c 0.104,0 0.169,0.065 0.169,0.169 v 1.156 c 0,0.103 -0.065,0.155 -0.169,0.155 z m 4.979,-0.896 -0.338,0.819 c -0.026,0.039 -0.052,0.077 -0.13,0.077 h -1.195 c -0.104,0 -0.168,-0.038 -0.168,-0.142 v -5.785 c 0,-0.103 0.064,-0.168 0.168,-0.168 H 63.4 c 0.104,0 0.156,0.065 0.156,0.168 v 3.797 c 0.546,0.26 0.949,0.416 1.703,0.416 0.104,0 0.169,0.065 0.169,0.169 v 1.494 c 0,0.09 -0.065,0.142 -0.169,0.142 -0.702,0 -1.313,-0.246 -1.833,-0.987 z m 5.005,0.299 -0.208,0.52 c -0.026,0.052 -0.052,0.077 -0.13,0.077 h -1.195 c -0.104,0 -0.169,-0.038 -0.169,-0.142 v -5.785 c 0,-0.103 0.065,-0.168 0.169,-0.168 h 1.637 c 0.104,0 0.156,0.065 0.156,0.168 v 4.304 c 0.247,0.143 0.533,0.26 0.898,0.26 0.481,0 0.715,-0.195 0.715,-1.196 v -3.368 c 0,-0.103 0.065,-0.168 0.169,-0.168 h 1.637 c 0.104,0 0.156,0.065 0.156,0.168 v 3.719 c 0,1.767 -0.533,2.299 -1.832,2.299 -0.793,0 -1.405,-0.246 -2.003,-0.688 z m 8.386,-3.08 v -0.82 c -0.195,-0.156 -0.468,-0.274 -0.768,-0.274 -0.286,0 -0.403,0.209 -0.403,0.469 0,0.391 0.299,0.625 0.885,0.625 z m 0,1.168 h -0.442 c -1.937,0 -2.678,-0.753 -2.678,-2.001 0,-0.975 0.715,-1.676 1.715,-1.676 0.767,0 1.145,0.221 1.665,0.662 l 0.208,-0.493 c 0.026,-0.065 0.078,-0.078 0.156,-0.078 h 1.195 c 0.091,0 0.143,0.065 0.143,0.169 v 4.029 c 0,1.209 -0.689,1.897 -1.897,1.897 h -2.47 c -0.104,0 -0.169,-0.039 -0.169,-0.142 V 1.145 c 0,-0.104 0.065,-0.156 0.169,-0.156 h 1.806 c 0.417,0 0.599,-0.221 0.599,-0.586 z m -1.144,3.018 2.404,1.703 c 0.065,0.039 0.052,0.13 0.013,0.182 l -0.793,0.883 c -0.052,0.064 -0.13,0.051 -0.182,0 L 75.114,3.615 C 75.062,3.563 75.062,3.485 75.088,3.446 l 0.403,-0.455 c 0.039,-0.039 0.13,-0.052 0.182,-0.013 z m 4.537,-3.563 c 0,-1.911 1.156,-3.132 3.002,-3.132 1.014,0 1.56,0.13 2.028,0.351 0.052,0.026 0.065,0.091 0.026,0.142 l -0.507,1.13 c -0.026,0.052 -0.065,0.065 -0.117,0.052 -0.286,-0.117 -0.559,-0.169 -0.962,-0.169 -0.858,0 -1.43,0.547 -1.43,1.626 0,1.093 0.572,1.652 1.43,1.652 0.403,0 0.676,-0.052 0.962,-0.169 0.052,-0.013 0.091,0 0.117,0.052 l 0.507,1.117 c 0.026,0.052 0.026,0.13 -0.026,0.156 -0.468,0.208 -1.014,0.337 -2.028,0.337 -1.859,0 -3.002,-1.22 -3.002,-3.145 z m 8.618,3.054 v 2.093 c 0,0.104 -0.065,0.182 -0.169,0.156 L 87.009,4.237 C 86.918,4.211 86.866,4.172 86.866,4.081 V 2.469 h -0.702 c -0.091,0 -0.156,-0.039 -0.156,-0.142 V 1.145 c 0,-0.104 0.065,-0.156 0.156,-0.156 h 0.702 v -2.718 c 0,-1.196 0.689,-1.897 1.897,-1.897 h 1.481 c 0.104,0 0.17,0.065 0.17,0.169 v 1.156 c 0,0.103 -0.066,0.155 -0.17,0.155 h -0.818 c -0.403,0 -0.598,0.208 -0.598,0.586 v 2.549 h 1.416 c 0.104,0 0.17,0.065 0.17,0.169 v 1.156 c 0,0.103 -0.066,0.155 -0.17,0.155 z m 3.667,-1.48 v -4.447 c 0,-0.103 0.052,-0.168 0.156,-0.168 h 1.65 c 0.103,0 0.155,0.065 0.155,0.168 v 5.785 c 0,0.103 -0.052,0.142 -0.155,0.142 H 91.494 C 91.39,2.469 91.325,2.43 91.325,2.327 V 1.145 c 0,-0.104 0.065,-0.156 0.169,-0.156 z m 0.844,4.86 c -0.727,0 -1.143,-0.441 -1.143,-1.156 0,-0.727 0.416,-1.143 1.143,-1.143 0.728,0 1.143,0.416 1.143,1.143 0,0.715 -0.415,1.156 -1.143,1.156 z m 4.575,-6.525 c 0,1.197 0.261,1.743 0.937,1.743 0.338,0 0.573,-0.091 0.82,-0.26 v -2.809 c -0.247,-0.144 -0.521,-0.235 -0.82,-0.235 -0.676,0 -0.937,0.391 -0.937,1.561 z m 1.757,2.769 c -0.468,0.325 -0.937,0.467 -1.444,0.467 -1.664,0 -2.339,-1.311 -2.339,-3.223 0,-1.872 0.597,-3.054 2.156,-3.054 0.716,0 1.237,0.234 1.9,0.701 l 0.195,-0.532 c 0.026,-0.052 0.052,-0.078 0.116,-0.078 h 1.234 c 0.091,0 0.143,0.065 0.143,0.169 V 5.59 c 0,0.104 -0.052,0.168 -0.143,0.168 H 99.84 c -0.104,0 -0.169,-0.064 -0.169,-0.168 z m 6.838,-2.133 h -1.495 c 0.026,0.808 0.377,1.172 0.78,1.172 0.39,0 0.715,-0.312 0.715,-1.172 z m -1.482,-1.168 h 3.261 c 0.078,0 0.117,0.052 0.117,0.13 v 0.532 c 0,1.951 -0.909,3.106 -2.559,3.106 -1.846,0 -2.782,-1.454 -2.782,-3.301 0,-1.989 1.092,-2.976 2.756,-2.976 0.975,0 1.533,0.156 2.234,0.545 0.052,0.026 0.052,0.065 0.039,0.117 l -0.454,1.118 c -0.026,0.078 -0.104,0.104 -0.169,0.078 -0.494,-0.221 -0.87,-0.391 -1.546,-0.391 -0.546,0 -0.832,0.391 -0.897,1.042 z m 6.511,3.08 -0.208,0.52 c -0.025,0.052 -0.051,0.077 -0.129,0.077 h -1.195 c -0.104,0 -0.169,-0.038 -0.169,-0.142 v -5.785 c 0,-0.103 0.065,-0.168 0.169,-0.168 h 1.636 c 0.104,0 0.156,0.065 0.156,0.168 v 4.304 c 0.247,0.143 0.534,0.26 0.898,0.26 0.481,0 0.716,-0.195 0.716,-1.196 v -3.368 c 0,-0.103 0.065,-0.168 0.169,-0.168 h 1.636 c 0.104,0 0.156,0.065 0.156,0.168 v 3.719 c 0,1.767 -0.532,2.299 -1.831,2.299 -0.794,0 -1.406,-0.246 -2.004,-0.688 z m 6.177,-0.883 v -4.447 c 0,-0.103 0.052,-0.168 0.156,-0.168 h 1.649 c 0.104,0 0.156,0.065 0.156,0.168 v 5.785 c 0,0.103 -0.052,0.142 -0.156,0.142 h -2.806 c -0.104,0 -0.169,-0.039 -0.169,-0.142 V 1.145 c 0,-0.104 0.065,-0.156 0.169,-0.156 z m 0.09,1.989 2.404,1.703 c 0.065,0.039 0.052,0.13 0.013,0.182 l -0.793,0.883 c -0.052,0.064 -0.129,0.051 -0.181,0 l -2.001,-2.131 c -0.052,-0.052 -0.052,-0.13 -0.026,-0.169 l 0.402,-0.455 c 0.039,-0.039 0.13,-0.052 0.182,-0.013 z M 123.459,0 v 5.59 c 0,0.104 -0.052,0.168 -0.156,0.168 h -1.637 c -0.103,0 -0.168,-0.064 -0.168,-0.168 v -9.048 c 0,-0.103 0.065,-0.168 0.168,-0.168 h 1.637 c 0.104,0 0.156,0.065 0.156,0.168 v 2.275 l 1.456,-2.404 c 0.013,-0.026 0.052,-0.039 0.091,-0.039 h 2.054 c 0.117,0 0.143,0.129 0.091,0.207 l -2.145,2.925 2.002,2.808 c 0.039,0.078 -0.013,0.156 -0.078,0.156 h -1.885 c -0.052,0 -0.104,-0.013 -0.13,-0.039 L 123.459,0"
       id="path9" />
  </g>
</svg>
