<?xml version="1.0" encoding="UTF-8" standalone="no"?>
<svg
   xmlns:dc="http://purl.org/dc/elements/1.1/"
   xmlns:cc="http://creativecommons.org/ns#"
   xmlns:rdf="http://www.w3.org/1999/02/22-rdf-syntax-ns#"
   xmlns:svg="http://www.w3.org/2000/svg"
   xmlns="http://www.w3.org/2000/svg"
   id="svg8"
   version="1.1"
   viewBox="0 0 78.317062 37.153202"
   height="37.153202mm"
   width="78.317062mm">
  <title
     id="title849">jb</title>
  <defs
     id="defs2" />
  <metadata
     id="metadata5">
    <rdf:RDF>
      <cc:Work
         rdf:about="">
        <dc:format>image/svg+xml</dc:format>
        <dc:type
           rdf:resource="http://purl.org/dc/dcmitype/StillImage" />
        <dc:title>jb</dc:title>
      </cc:Work>
    </rdf:RDF>
  </metadata>
  <path
     style="fill:#ffffff;stroke:none;stroke-width:0.59925;stroke-opacity:1"
     id="path11"
     fill="#231f20"
     d="m 38.572544,30.188265 c -0.679549,0 -1.369885,0.269662 -2.060222,0.959999 -0.258875,-0.733482 -0.852133,-0.959999 -1.466963,-0.959999 -0.722695,0 -1.369886,0.323596 -1.930782,0.906066 v -0.744268 h -1.671909 v 5.641338 h 1.671909 v -4.023363 c 0.280447,-0.258875 0.690335,-0.46382 1.057076,-0.46382 0.517751,0 0.798201,0.237303 0.798201,0.841347 v 3.645836 h 1.671907 v -3.947858 -0.0755 c 0.291235,-0.258875 0.690336,-0.463819 1.057076,-0.463819 0.517753,0 0.798202,0.237302 0.798202,0.841346 v 3.645837 h 1.671907 v -3.947859 c 0,-1.456177 -0.776628,-1.855278 -1.596402,-1.855278 m 6.105158,-0.506965 1.359099,-1.758199 h -1.326739 l -0.798201,0.765842 -0.798201,-0.765842 h -1.315953 l 1.359099,1.758199 z m -0.722695,0.506965 c -1.574829,0 -2.631906,1.164943 -2.631906,2.977075 0,1.822918 0.841347,2.987859 2.642692,2.987859 1.369886,0 2.351457,-0.690336 2.491681,-1.87685 h -1.628761 c -0.08629,0.550111 -0.377527,0.787414 -0.86292,0.787414 -0.593257,0 -0.970784,-0.377528 -1.024717,-1.564043 h 3.570331 c 0.151011,-2.329883 -0.949211,-3.311455 -2.5564,-3.311455 m -0.992358,2.362244 c 0.107865,-0.970785 0.496178,-1.305167 0.992358,-1.305167 0.528538,0 0.895279,0.334382 0.927639,1.305167 z m 7.51819,-0.636403 h 1.585615 c -0.05393,-1.143369 -0.776628,-1.725841 -2.405389,-1.725841 -1.251234,0 -2.275951,0.636404 -2.275951,1.812132 0,1.348313 1.078649,1.607189 2.071008,1.790559 0.701121,0.129438 1.283593,0.194157 1.283593,0.690335 0,0.474607 -0.399101,0.636404 -0.852133,0.636404 -0.604044,0 -0.916854,-0.280449 -0.92764,-0.83056 h -1.596401 c 0.05393,1.22966 0.906065,1.866064 2.502468,1.866064 1.315951,0 2.340669,-0.744267 2.340669,-1.919997 0,-1.369885 -1.111009,-1.553256 -2.103367,-1.736626 -0.787415,-0.151011 -1.240448,-0.194157 -1.240448,-0.701122 0,-0.420673 0.366742,-0.582472 0.787415,-0.582472 0.506965,0 0.787415,0.204944 0.830561,0.701124 m 2.80449,-2.232806 h 1.315952 l 1.747413,-1.758199 h -1.963143 z m -0.03235,6.310102 h 1.671908 v -5.641339 h -1.671908 z m 4.77782,-6.310102 h 1.520896 l 1.359099,-1.758199 h -1.326739 l -0.798201,0.765842 -0.798202,-0.765842 h -1.315955 z m 3.343815,4.346959 h -1.617975 c -0.107866,0.711908 -0.377528,1.035504 -0.884493,1.035504 -0.61483,0 -0.992358,-0.61483 -0.992358,-1.898423 0,-1.283594 0.355954,-1.887638 0.992358,-1.887638 0.58247,0 0.819774,0.312808 0.906065,1.121796 h 1.628761 c -0.118651,-1.423818 -1.035503,-2.211233 -2.534826,-2.211233 -1.671908,0 -2.685839,1.164943 -2.685839,2.977075 0,1.822918 0.906067,2.987859 2.685839,2.987859 1.456177,0 2.351457,-0.787415 2.502468,-2.12494 m 4.713699,-3.839994 c -0.722696,0 -1.402245,0.323596 -1.963143,0.906067 v -0.744269 h -1.671907 v 5.641339 h 1.671904 v -4.023362 c 0.28045,-0.258875 0.722696,-0.463819 1.089437,-0.463819 0.517751,0 0.83056,0.237302 0.83056,0.841346 v 3.645837 h 1.671908 V 32.04355 c 0,-1.456177 -0.808988,-1.855278 -1.628762,-1.855278 m 3.063366,-0.506965 h 1.315952 l 1.747414,-1.758199 h -1.963143 z m -0.03235,6.310102 h 1.671906 V 30.35007 h -1.671906 z m 8.197738,0 -2.103367,-3.182017 1.930783,-2.459322 h -1.639555 l -1.801345,2.459322 v -4.843138 h -1.671907 v 8.025155 h 1.671907 v -2.707414 l 1.693481,2.707411 z" />
  <path
     style="fill:#ffffff;stroke:none;stroke-width:0.59925;stroke-opacity:1"
     id="path20"
     fill="#231f20"
     d="m 33.804791,22.507986 h 1.671925 v -8.025155 h -1.671925 z m 4.864711,-7.17302 c 0,-0.539326 -0.388314,-0.959999 -0.959998,-0.959999 -0.560899,0 -0.959999,0.420673 -0.959999,0.959999 0,0.539323 0.3991,0.959997 0.959999,0.959997 0.571684,0 0.959998,-0.420674 0.959998,-0.959997 m -1.790559,7.17302 h 1.671924 v -5.641338 h -1.671924 z m 5.824709,-0.949212 c -0.409887,0 -0.67955,-0.280448 -0.67955,-0.927638 v -2.642692 h 1.380673 v -1.121796 h -1.380673 v -1.477751 h -1.671906 v 1.477751 h -0.884493 v 1.121796 h 0.884493 v 2.890781 c 0,1.315953 0.765841,1.790559 1.779772,1.790559 0.334381,0 0.916853,-0.09708 1.29438,-0.237304 v -1.003144 c -0.248089,0.06472 -0.517753,0.129438 -0.722696,0.129438 m 3.958645,-4.853924 c -1.574828,0 -2.631905,1.164942 -2.631905,2.977074 0,1.822918 0.841346,2.98786 2.642692,2.98786 1.369885,0 2.351456,-0.690337 2.491681,-1.876851 h -1.628762 c -0.08629,0.550112 -0.377527,0.787414 -0.862919,0.787414 -0.593258,0 -0.970785,-0.377528 -1.024718,-1.564042 h 3.570331 c 0.151011,-2.329884 -0.949211,-3.311455 -2.5564,-3.311455 m -0.992357,2.362243 c 0.107864,-0.970784 0.496178,-1.305167 0.992357,-1.305167 0.528538,0 0.895279,0.334383 0.927639,1.305167 z m 7.938863,-2.362243 c -0.528539,0 -1.154156,0.420673 -1.54247,1.208088 v -1.04629 h -1.671907 v 5.641338 h 1.671907 v -3.60269 c 0.258877,-0.388314 0.83056,-0.701122 1.413031,-0.701122 0.323595,0 0.550112,0.06472 0.808988,0.172584 V 16.92058 c -0.194157,-0.140224 -0.388315,-0.21573 -0.679549,-0.21573 m 5.684485,-2.265165 h -1.963144 l -1.100222,1.7582 h 1.315952 z m -1.876853,2.265165 c -1.413029,0 -2.448533,0.625617 -2.502466,2.071008 h 1.617975 c 0.02157,-0.733482 0.323595,-0.981571 0.884491,-0.981571 0.474608,0 0.798202,0.21573 0.798202,0.949211 v 0.582471 c -0.248089,-0.02157 -0.485392,-0.04315 -0.711909,-0.04315 -1.963143,0 -2.728983,0.83056 -2.728983,1.84449 0,0.938426 0.582469,1.54247 1.704266,1.54247 0.636403,0 1.251234,-0.258877 1.736626,-0.733482 v 0.571684 h 1.671908 v -3.947859 c 0,-1.520895 -1.380672,-1.855277 -2.47011,-1.855277 m 0.798202,4.390106 c -0.258876,0.258875 -0.668763,0.442246 -1.003144,0.442246 -0.3991,0 -0.787414,-0.151012 -0.787414,-0.636404 0,-0.517752 0.485392,-0.744268 1.164941,-0.744268 0.194157,0 0.409887,0.01069 0.625617,0.03235 z m 6.28793,-4.390106 c -0.528539,0 -1.154157,0.420673 -1.54247,1.208088 v -1.046291 h -1.671908 v 5.641338 h 1.671908 v -3.60269 c 0.258877,-0.388314 0.83056,-0.701122 1.413031,-0.701122 0.323596,0 0.550112,0.06472 0.808988,0.172584 V 16.920578 C 64.987958,16.780356 64.793801,16.70485 64.502567,16.70485 m 5.209877,0 c -0.722694,0 -1.402243,0.323595 -1.963141,0.906066 v -0.744268 h -1.671907 v 5.641338 h 1.671907 v -4.023364 c 0.281048,-0.258875 0.722695,-0.463819 1.089435,-0.463819 0.517753,0 0.830561,0.237303 0.830561,0.841347 v 3.645836 h 1.672508 v -3.947859 c 0,-1.456177 -0.809588,-1.855277 -1.629363,-1.855277 m 3.063367,-0.506965 h 1.315952 l 1.747413,-1.7582 h -1.963142 z m -0.03235,6.310101 h 1.671926 v -5.641338 h -1.671926 z" />
  <path
     style="fill:#ffffff;stroke:none;stroke-width:0.59925;stroke-opacity:1"
     id="path29"
     fill="#231f20"
     d="m 46.904875,3.2220193 c -0.722696,0 -1.402245,0.3235949 -1.963143,0.9060657 V 1.0000005 h -1.671907 v 8.0251549 h 1.671907 V 5.0017915 c 0.280448,-0.258876 0.722695,-0.4638196 1.089436,-0.4638196 0.517752,0 0.830561,0.2373031 0.830561,0.8413471 v 3.6458364 h 1.671907 V 5.077297 c 0,-1.4561774 -0.808988,-1.8552777 -1.628761,-1.8552777 m 5.555046,5.9649336 c 1.747414,0 2.772131,-1.1649419 2.772131,-2.9878601 0,-1.8121318 -1.024717,-2.9770735 -2.772131,-2.9770735 -1.736627,0 -2.77213,1.1649417 -2.77213,2.9770735 0,1.8229182 1.035503,2.9878601 2.77213,2.9878601 m 0,-1.0894363 c -0.711908,0 -1.078649,-0.6148304 -1.078649,-1.8984238 0,-1.2835933 0.366741,-1.8876373 1.078649,-1.8876373 0.722695,0 1.07865,0.604044 1.07865,1.8876373 0,1.2835934 -0.355955,1.8984238 -1.07865,1.8984238 M 59.17991,4.9478589 h 1.585616 c -0.05393,-1.1433688 -0.776628,-1.7258396 -2.405389,-1.7258396 -1.251235,0 -2.275952,0.6364034 -2.275952,1.8121317 0,1.3483123 1.07865,1.6071882 2.071008,1.7905587 0.701122,0.1294381 1.283593,0.194157 1.283593,0.6903359 0,0.474606 -0.3991,0.6364034 -0.852133,0.6364034 -0.604044,0 -0.916853,-0.2804489 -0.92764,-0.8305603 h -1.596401 c 0.05393,1.2296608 0.906066,1.8660642 2.502467,1.8660642 1.315953,0 2.34067,-0.7442684 2.34067,-1.9199968 0,-1.3698853 -1.111008,-1.5532557 -2.103366,-1.7366262 C 58.014968,5.379319 57.561935,5.336173 57.561935,4.8292076 c 0,-0.4206735 0.366742,-0.5824711 0.787415,-0.5824711 0.506965,0 0.787415,0.2049436 0.83056,0.7011224 m 5.339317,3.1280847 c -0.409887,0 -0.679549,-0.280449 -0.679549,-0.927639 V 4.5056125 h 1.380671 V 3.3838167 H 63.839678 V 1.9060664 H 62.16777 v 1.4777503 h -0.884493 v 1.1217958 h 0.884493 v 2.8907816 c 0,1.3159529 0.765841,1.7905588 1.779772,1.7905588 0.334382,0 0.916853,-0.097079 1.294381,-0.237303 V 7.9465055 c -0.24809,0.064718 -0.517752,0.1294381 -0.722696,0.1294381" />
  <path
     style="fill:#ffffff;stroke:none;stroke-width:0.352778;stroke-opacity:1"
     id="path38"
     fill="#231f20"
     d="m 26.611667,35.979328 v -0.740833 c -3.122083,-0.740834 -3.439583,-1.11125 -3.439583,-2.8575 V 21.638911 c 0,-4.815416 -3.122084,-7.355416 -6.932084,-7.355416 -3.280833,0 -5.820833,1.640416 -7.2495833,4.1275 h -0.3175 V 1 H 4.4395833 v 31.380995 c 0,1.74625 -0.3175,2.116666 -3.4395833,2.8575 v 0.740833 h 10.847917 v -0.740833 c -3.1220836,-0.740834 -3.1750003,-1.11125 -3.1750003,-2.8575 v -8.519584 c 0,-4.550833 2.4341673,-6.879166 5.6620833,-6.879166 3.280834,0 4.60375,2.487083 4.60375,5.87375 v 9.525 c 0,1.74625 -0.05292,2.116666 -3.175,2.8575 v 0.740833 z"
     clip-path="none" />
</svg>
