<?xml version="1.0" encoding="UTF-8" standalone="no"?>
<svg
   xmlns:dc="http://purl.org/dc/elements/1.1/"
   xmlns:cc="http://creativecommons.org/ns#"
   xmlns:rdf="http://www.w3.org/1999/02/22-rdf-syntax-ns#"
   xmlns:svg="http://www.w3.org/2000/svg"
   xmlns="http://www.w3.org/2000/svg"
   id="svg201"
   viewBox="0 0 374.05022 308.86616"
   height="308.86615pt"
   width="374.0502pt"
   version="1.1">
  <title
     id="title1350">Kytka, autor V. Koubek</title>
  <metadata
     id="metadata207">
    <rdf:RDF>
      <cc:Work
         rdf:about="">
        <dc:format>image/svg+xml</dc:format>
        <dc:type
           rdf:resource="http://purl.org/dc/dcmitype/StillImage" />
        <dc:title>Kytka, autor V. Koubek</dc:title>
      </cc:Work>
    </rdf:RDF>
  </metadata>
  <defs
     id="defs205" />
  <g
     style="fill:#ffffff"
     transform="translate(-203.33571,-459.87543)"
     data-name="Artifact"
     id="Layer-1" />
  <g
     style="fill:#ffffff"
     id="g275"
     transform="rotate(80.758445,190.1712,200.85676)">
    <path
       d="m 70.132548,330.72177 c -1.68684,-1.74752 -1.75133,-4.65803 -0.14105,-6.49418 1.62013,-1.84155 4.3105,-1.91652 5.99925,-0.17155 1.69002,1.74466 1.75387,4.65073 0.1312,6.49546 -1.61092,1.83392 -4.29716,1.9054 -5.9894,0.17027"
       fill="#ed1c24"
       id="path69"
       style="fill:#ffffff;stroke-width:0.317673" />
    <path
       d="m 87.749378,310.6749 c -1.6932,-1.74402 -1.75482,-4.65263 -0.13692,-6.48497 1.61029,-1.846 4.29398,-1.91493 5.98242,-0.17059 1.69224,1.73957 1.76086,4.64946 0.14072,6.48402 -1.61409,1.83964 -4.29779,1.91429 -5.98622,0.17154"
       fill="#ed1c24"
       id="path71"
       style="fill:#ffffff;stroke-width:0.317673" />
    <path
       d="m 75.714578,311.0138 c -1.6214,1.83932 -4.30288,1.91874 -6.0002,0.16646 -1.68875,-1.73989 -1.74974,-4.64882 -0.13628,-6.48275 1.61695,-1.8444 4.30033,-1.91906 5.98749,-0.16741 1.69669,1.74275 1.76563,4.64882 0.14899,6.4837"
       fill="#ed1c24"
       id="path73"
       style="fill:#ffffff;stroke-width:0.317673" />
    <path
       d="m 88.166668,330.21408 c -1.69034,-1.74402 -1.75292,-4.6574 -0.13692,-6.49482 1.61442,-1.84123 4.29462,-1.91048 5.98146,-0.16995 1.69606,1.74275 1.75864,4.64914 0.14105,6.49482 -1.61473,1.83011 -4.29398,1.90953 -5.98559,0.16995"
       fill="#ed1c24"
       id="path75"
       style="fill:#ffffff;stroke-width:0.317673" />
    <path
       d="m 64.889378,317.84518 c -0.0546,-2.53312 1.79326,-4.64437 4.13578,-4.70791 2.33775,-0.0661 4.2781,1.93622 4.3321,4.47283 0.0527,2.53567 -1.79675,4.64533 -4.13864,4.70696 -2.3387,0.0645 -4.27555,-1.93177 -4.32924,-4.47188"
       fill="#ed1c24"
       id="path77"
       style="fill:#ffffff;stroke-width:0.317673" />
    <path
       d="m 90.384978,317.1281 c -0.0518,-2.52836 1.80184,-4.64374 4.12847,-4.70251 2.33522,-0.0654 4.28541,1.93526 4.33211,4.46394 0.0588,2.52804 -1.79485,4.63897 -4.13515,4.70187 -2.32695,0.0702 -4.27556,-1.9378 -4.32543,-4.4633"
       fill="#ed1c24"
       id="path79"
       style="fill:#ffffff;stroke-width:0.317673" />
    <path
       d="m 77.340178,303.6704 c -0.0594,-2.5274 1.80375,-4.64247 4.13006,-4.70092 2.34474,-0.0632 4.28414,1.93685 4.33528,4.46934 0.0639,2.52994 -1.79167,4.63865 -4.13038,4.70378 -2.33648,0.0667 -4.27714,-1.93717 -4.33496,-4.4722"
       fill="#ed1c24"
       id="path81"
       style="fill:#ffffff;stroke-width:0.317673" />
    <path
       d="m 86.397138,331.06088 c 0.0556,2.53471 -1.79676,4.6412 -4.13959,4.70664 -2.32886,0.067 -4.27651,-1.93272 -4.32639,-4.46553 -0.0518,-2.53185 1.80343,-4.64469 4.13769,-4.7114 2.33458,-0.0658 4.27429,1.94034 4.32829,4.47029"
       fill="#ed1c24"
       id="path83"
       style="fill:#ffffff;stroke-width:0.317673" />
    <path
       d="m 86.211218,321.8458 c 2.28629,-2.60237 2.19671,-6.72577 -0.19569,-9.19662 -2.40097,-2.47722 -6.20541,-2.36667 -8.49742,0.24047 -2.27899,2.60937 -2.19195,6.72164 0.19854,9.1998 2.3997,2.47372 6.20224,2.36444 8.49457,-0.24365"
       fill="#ed1c24"
       id="path85"
       style="fill:#ffffff;stroke-width:0.317673" />
    <path
       d="m 108.74717,299.5717 c -2.85461,-5.07164 -6.98181,-9.32496 -11.800592,-12.16305 -4.81179,-2.8473 -10.27734,-4.27238 -15.80962,-4.111 -0.22014,-7.03391 1.81995,-13.71584 6.98849,-17.74997 4.98746,-4.0535 13.143392,-4.91026 20.214152,-0.6903 7.08823,4.15516 10.81516,12.00199 10.39171,18.73411 -0.31291,6.87793 -4.39723,12.37081 -9.98414,15.98021"
       fill="#ed1c24"
       id="path87"
       style="fill:#ffffff;stroke-width:0.317673" />
    <path
       d="m 109.47465,333.6268 c 5.36899,-10.39711 5.07323,-23.97857 -0.72747,-34.05515 5.50463,-3.75521 11.85999,-5.20443 17.64926,-2.37174 5.72573,2.65574 10.45937,9.89582 10.60201,18.60958 0.2284,8.71345 -4.19201,16.21211 -9.79417,19.18934 -5.6587,3.15989 -12.07315,2.06328 -17.72963,-1.37203"
       fill="#ed1c24"
       id="path89"
       style="fill:#ffffff;stroke-width:0.317673" />
    <path
       d="m 82.596048,351.4384 c 5.53163,-0.15153 10.92731,-1.8803 15.61806,-4.99509 4.684722,-3.10715 8.629262,-7.59142 11.260542,-12.8165 5.73495,3.29077 10.04799,8.54571 10.65538,15.39283 0.71286,6.7048 -2.67448,14.75208 -9.57846,19.30211 -6.87762,4.61515 -15.059912,4.21393 -20.219872,0.4476 -5.335,-3.73297 -7.65718,-10.2891 -7.73565,-17.33095"
       fill="#ed1c24"
       id="path91"
       style="fill:#ffffff;stroke-width:0.317673" />
    <path
       d="m 54.991708,335.1672 c 2.85207,5.07196 6.97641,9.32274 11.79678,12.16242 4.81528,2.84539 10.27893,4.26952 15.80771,4.10878 0.22427,7.03549 -1.81741,13.71806 -6.97959,17.749 -4.99127,4.05097 -13.15356,4.9125 -20.21669,0.69126 -7.09935,-4.15548 -10.81834,-12.00453 -10.39489,-18.73919 0.31704,-6.87635 4.40041,-12.36128 9.98668,-15.97227"
       fill="#ed1c24"
       id="path93"
       style="fill:#ffffff;stroke-width:0.317673" />
    <path
       d="m 54.263228,301.111 c -5.36708,10.39076 -5.07419,23.97635 0.72842,34.0561 -5.50654,3.75616 -11.8638,5.20285 -17.65339,2.37079 -5.72382,-2.6586 -10.45429,-9.89836 -10.60073,-18.61371 -0.2265,-8.71027 4.19073,-16.2102 9.79385,-19.18584 5.65902,-3.16053 12.06965,-2.06964 17.73185,1.37266"
       fill="#ed1c24"
       id="path95"
       style="fill:#ffffff;stroke-width:0.317673" />
    <path
       d="m 81.137068,283.2978 c -5.52306,0.14835 -10.92572,1.87935 -15.60758,4.99858 -4.69679,3.10144 -8.63307,7.58634 -11.26626,12.8146 -5.7378,-3.29204 -10.05243,-8.5473 -10.65442,-15.3941 -0.71667,-6.70131 2.66622,-14.75272 9.5737,-19.30211 6.87888,-4.61356 15.06435,-4.21647 20.22781,-0.45205 5.32546,3.73615 7.65337,10.2999 7.72675,17.33508"
       fill="#ed1c24"
       id="path97"
       style="fill:#ffffff;stroke-width:0.317673" />
    <path
       d="m 59.188948,318.0096 c 0.29067,13.54938 10.69763,24.28989 23.2025,23.93759 12.5055,-0.3542 22.444532,-11.66526 22.152902,-25.21718 -0.29099,-13.55096 -10.698262,-24.28639 -23.201542,-23.93536 -12.50582,0.3523 -22.44231,11.66367 -22.15386,25.21495 m 49.486102,-1.39967 c 0.34277,16.0231 -11.404132,29.39331 -26.186402,29.80882 -14.78321,0.41901 -27.08668,-12.27424 -27.43103,-28.29193 -0.34245,-16.01674 11.40635,-29.39267 26.18735,-29.81136 14.78417,-0.41551 27.087312,12.28059 27.430082,28.29447"
       fill="#ed1c24"
       id="path99"
       style="fill:#ffffff;stroke-width:0.317673" />
    <path
       d="m 141.54524,279.5596 c 0,0 5.38868,5.61169 5.79435,11.61443 0.40535,6.00529 -4.32035,10.1255 -4.32035,10.1255 0,0 -5.38455,-5.61137 -5.79213,-11.61411 -0.40757,-6.00402 4.31813,-10.12582 4.31813,-10.12582"
       fill="#ed1c24"
       id="path101"
       style="fill:#ffffff;stroke-width:0.317673" />
    <path
       d="m 139.67396,275.6474 c 0,0 -1.13377,-8.00631 -5.42807,-11.81774 -4.28763,-3.80794 -10.11597,-1.97656 -10.11597,-1.97656 0,0 1.13949,8.01202 5.43347,11.8206 4.29017,3.81334 10.11057,1.9737 10.11057,1.9737"
       fill="#ed1c24"
       id="path103"
       style="fill:#ffffff;stroke-width:0.317673" />
    <path
       d="m 156.90754,271.42416 c 0,0 5.23461,5.78101 5.47382,11.79836 0.24715,6.01418 -4.58942,9.98319 -4.58942,9.98319 0,0 -5.22984,-5.78133 -5.47414,-11.79741 -0.24587,-6.01387 4.58974,-9.98414 4.58974,-9.98414"
       fill="#ed1c24"
       id="path105"
       style="fill:#ffffff;stroke-width:0.317673" />
    <path
       d="m 155.14515,267.45608 c 0,0 -0.9168,-8.03871 -5.105,-11.98833 -4.18375,-3.94137 -10.05625,-2.29773 -10.05625,-2.29773 0,0 0.9203,8.04602 5.10913,11.99151 4.18534,3.94581 10.05212,2.29455 10.05212,2.29455"
       fill="#ed1c24"
       id="path107"
       style="fill:#ffffff;stroke-width:0.317673" />
    <path
       d="m 173.02448,265.1985 c 0,0 4.96967,6.05039 4.93822,12.0722 -0.021,6.02085 -5.02907,9.73349 -5.02907,9.73349 0,0 -4.963,-6.05262 -4.93823,-12.07283 0.0232,-6.02149 5.02908,-9.73286 5.02908,-9.73286"
       fill="#ed1c24"
       id="path109"
       style="fill:#ffffff;stroke-width:0.317673" />
    <path
       d="m 171.44158,261.14029 c 0,0 -0.55656,-8.07873 -4.56273,-12.24406 -4.00173,-4.15389 -9.93998,-2.82316 -9.93998,-2.82316 0,0 0.56006,8.087 4.56559,12.24629 4.00268,4.16469 9.93712,2.82093 9.93712,2.82093"
       fill="#ed1c24"
       id="path111"
       style="fill:#ffffff;stroke-width:0.317673" />
    <path
       d="m 223.80497,260.6044 c -11.02864,7.61366 -25.44082,19.10484 -26.30457,32.12846 -0.6058,9.1026 -7.83381,15.42778 -13.72219,13.26665 -5.49828,-2.01531 -9.89932,-8.7881 -5.03829,-18.48124 9.35578,-18.6674 31.47501,-25.39158 45.06505,-26.91387"
       fill="#ed1c24"
       id="path113"
       style="fill:#ffffff;stroke-width:0.317673" />
    <path
       d="m 224.41432,168.8726 c -8.21629,-4.02555 -16.38079,1.31358 -18.55113,10.82057 -3.12495,13.60973 3.58938,35.85286 19.50129,51.07478 -5.6244,-17.11271 1.34058,-27.03109 5.51797,-37.1407 3.84924,-9.30464 2.51947,-20.35202 -6.46813,-24.75465"
       fill="#ed1c24"
       id="path115"
       style="fill:#ffffff;stroke-width:0.317673" />
    <path
       d="m 191.87434,240.7177 c 8.82622,-5.5885 17.17815,-14.16026 33.48779,-9.94697 -15.68509,-15.49544 -36.82145,-20.32883 -48.97529,-15.49385 -8.49044,3.36225 -12.50804,12.72978 -7.92815,21.14493 5.00969,9.20489 15.29244,9.44409 23.41565,4.29589"
       fill="#ed1c24"
       id="path117"
       style="fill:#ffffff;stroke-width:0.317673" />
    <path
       d="m 208.00748,253.2613 c -23.78003,2.10776 -58.39428,10.87425 -92.4885,39.82885 -1.73926,2.5579 -4.07701,4.74127 -6.77183,6.48148 3.28982,-2.245 6.88111,-3.65388 10.47907,-3.8305 32.84895,-27.45836 66.04924,-35.85921 88.93152,-37.91392 12.70182,-1.13886 23.60245,-0.49875 31.62336,0.50732 -6.15078,1.26116 -11.89303,4.32353 -16.66828,8.98283 -0.75829,0.73859 -1.48481,1.52674 -2.16462,2.34761 -4.30129,5.19236 -6.76167,11.63603 -7.11492,18.62928 l -0.0194,0.50668 c -0.28209,7.92371 2.25198,15.5288 7.13588,21.41337 8.39292,10.1147 22.83876,10.92508 32.19836,1.80311 0.50573,-0.49144 0.98923,-1.01814 1.43715,-1.55851 2.85651,-3.44833 4.49157,-7.73088 4.72474,-12.37589 l 0.0153,-0.33927 c 0.18616,-5.2578 -1.49719,-10.30943 -4.74222,-14.2203 -2.72213,-3.28506 -6.4621,-5.21968 -10.53911,-5.44809 -4.07605,-0.22523 -7.99201,1.2799 -11.02737,4.23871 -0.32561,0.31735 -0.64043,0.6579 -0.93745,1.01655 -1.9718,2.38032 -3.11828,5.4465 -3.23041,8.63117 -0.0737,2.04041 0.28908,4.11481 1.05435,6.01545 0.0222,0.0667 0.0534,0.14549 0.0956,0.24937 l 0.10356,0.24969 c 0.18838,0.4619 0.37771,0.85676 0.58102,1.2043 1.25704,2.15795 3.21962,3.65355 5.52529,4.21138 2.30535,0.55847 4.67391,0.115 6.66795,-1.25448 0.20362,-0.14073 0.40344,-0.28877 0.5915,-0.44348 0.45904,-0.3739 0.88409,-0.7964 1.26307,-1.25417 1.37107,-1.65507 2.17225,-3.81143 2.25198,-6.07358 0.0686,-1.94098 -0.39518,-3.82573 -1.34344,-5.45158 -1.18619,-2.03152 -3.03663,-3.48043 -5.15424,-4.09607 -0.62263,-0.18362 -2.51723,-0.63599 -4.7654,0.53083 0.81927,-1.45399 2.53153,-2.45466 2.53153,-2.45466 0.83198,-0.43807 1.69256,-0.7621 2.57791,-0.97081 0.97558,-0.22682 1.98228,-0.31608 3.00741,-0.25795 3.0684,0.17345 5.88648,1.62934 7.93705,4.09703 2.58395,3.12208 3.92803,7.14573 3.77459,11.33869 l -0.0108,0.26208 c -0.18902,3.712 -1.49179,7.12603 -3.76696,9.87231 -0.36088,0.43585 -0.74495,0.85359 -1.14426,1.2421 -7.80935,7.6089 -19.8609,6.93512 -26.86177,-1.50577 -4.22854,-5.09769 -6.42112,-11.67828 -6.17714,-18.52921 l 0.0203,-0.42441 c 0.30464,-6.05992 2.43305,-11.63889 6.15395,-16.13078 0.58738,-0.70905 1.21637,-1.39173 1.87268,-2.02962 6.12219,-5.96938 14.0154,-9.00284 22.22788,-8.53745 2.72341,0.14931 5.38868,0.70428 7.96469,1.63284 l -8.92946,-8.68104 c -8.24806,-1.47909 -21.90131,-3.01599 -38.89013,-1.51149"
       fill="#ed1c24"
       id="path119"
       style="fill:#ffffff;stroke-width:0.317673" />
    <path
       d="m 143.49318,111.5828 c 1.11567,22.95217 -15.15362,42.59228 -36.33572,43.86425 -21.184012,1.28054 -39.263392,-16.29566 -40.376202,-39.25228 -1.11726,-22.950261 15.15172,-42.590381 36.335402,-43.864241 21.1875,-1.27578 39.26467,16.29819 40.37652,39.252271 M 102.85013,66.809059 c -23.999532,1.44255 -42.428362,23.6933 -41.166882,49.696401 1.26243,26.00214 21.74152,45.91101 45.740102,44.46655 24.00081,-1.44446 42.42996,-23.69203 41.16848,-49.69481 -1.26434,-26.004051 -21.74343,-45.912601 -45.7417,-44.468141"
       fill="#ed1c24"
       id="path121"
       style="fill:#ffffff;stroke-width:0.317673" />
    <path
       d="m 63.225478,100.69467 c -1.69478,2.04581 -4.33433,2.7825 -6.7264,1.87427 -1.56962,-0.60231 -2.83047,-1.82789 -3.55126,-3.452151 -0.71604,-1.62934 -0.80499,-3.46676 -0.25001,-5.16949 0.27701,-0.84691 0.69221,-1.6125 1.23987,-2.27358 1.6951,-2.04645 4.33814,-2.78059 6.72609,-1.87173 1.57057,0.5985 2.83141,1.82408 3.55094,3.45247 0.71667,1.62902 0.81007,3.46422 0.25255,5.16853 -0.27701,0.8466 -0.69411,1.610601 -1.24178,2.271681"
       fill="#ed1c24"
       id="path123"
       style="fill:#ffffff;stroke-width:0.317673" />
    <path
       d="m 156.33543,136.10879 c -1.69701,2.04867 -4.33719,2.78281 -6.72767,1.87363 -1.57089,-0.60008 -2.83078,-1.82503 -3.55127,-3.45246 -0.71762,-1.62903 -0.80688,-3.46422 -0.24714,-5.17171 0.2751,-0.8466 0.69093,-1.60457 1.24019,-2.26755 1.69478,-2.04581 4.33369,-2.78536 6.72195,-1.87427 1.57471,0.59627 2.8346,1.8209 3.55127,3.45247 0.71698,1.62839 0.80847,3.46167 0.25255,5.1698 -0.27701,0.8431 -0.69285,1.60965 -1.23988,2.27009"
       fill="#ed1c24"
       id="path125"
       style="fill:#ffffff;stroke-width:0.317673" />
    <path
       d="m 93.306178,168.8987 c -1.69669,2.04835 -4.33655,2.78218 -6.72767,1.873 -3.24217,-1.23225 -4.94807,-5.0996 -3.80064,-8.621 0.27542,-0.84247 0.69475,-1.60584 1.24337,-2.2685 1.69574,-2.04677 4.33306,-2.78028 6.72545,-1.87268 1.57153,0.59722 2.83142,1.82185 3.54936,3.45056 0.71889,1.62775 0.80625,3.4639 0.24969,5.16885 -0.27542,0.84533 -0.69285,1.60996 -1.23956,2.26977"
       fill="#ed1c24"
       id="path127"
       style="fill:#ffffff;stroke-width:0.317673" />
    <path
       d="m 126.25361,67.900499 c -1.69637,2.04804 -4.33655,2.78218 -6.72735,1.87522 -3.24408,-1.23733 -4.94903,-5.10309 -3.80032,-8.62291 0.27415,-0.84278 0.69411,-1.60869 1.24051,-2.2685 1.69669,-2.04835 4.33623,-2.78281 6.72545,-1.87363 1.57248,0.59754 2.83237,1.82217 3.54999,3.45088 0.71985,1.62712 0.80752,3.46517 0.25191,5.16694 -0.27669,0.84692 -0.69252,1.61092 -1.24019,2.272"
       fill="#ed1c24"
       id="path129"
       style="fill:#ffffff;stroke-width:0.317673" />
    <path
       d="m 65.208748,141.59347 c -0.54894,0.66235 -1.20652,1.19445 -1.95115,1.58042 -3.10747,1.616 -6.83727,0.19886 -8.32493,-3.16275 -1.08834,-2.47467 -0.69761,-5.39789 0.9975,-7.44402 0.5483,-0.66203 1.20302,-1.19382 1.94955,-1.58297 3.10652,-1.61631 6.83981,-0.19663 8.3208,3.16593 1.0928,2.47721 0.70365,5.39662 -0.99177,7.44339"
       fill="#ed1c24"
       id="path131"
       style="fill:#ffffff;stroke-width:0.317673" />
    <path
       d="m 154.34086,95.217999 c -0.5464,0.65981 -1.20493,1.19381 -1.94924,1.57979 -1.5045,0.78338 -3.19928,0.88694 -4.77144,0.28971 -1.57026,-0.59976 -2.83015,-1.82439 -3.54936,-3.45056 -1.09121,-2.47816 -0.7011,-5.3998 0.99559,-7.44752 0.54735,-0.66107 1.20175,-1.19349 1.94765,-1.58423 3.10652,-1.61378 6.84013,-0.1941 8.32175,3.16815 1.09057,2.47404 0.70174,5.39631 -0.99368,7.44307 z"
       fill="#ed1c24"
       id="path133"
       style="fill:#ffffff;stroke-width:0.317673" />
    <path
       d="m 131.04747,166.63626 c -0.54767,0.66108 -1.20557,1.19064 -1.95559,1.58042 -1.50164,0.78211 -3.19611,0.88345 -4.76795,0.28845 -1.56962,-0.60199 -2.82951,-1.82662 -3.55158,-3.45247 -1.09057,-2.47785 -0.69761,-5.39853 0.99717,-7.44402 0.54767,-0.6614 1.20176,-1.19477 1.94956,-1.5836 1.50418,-0.78402 3.19642,-0.88345 4.76795,-0.28527 1.57343,0.59818 2.83491,1.82408 3.55253,3.45088 1.09343,2.47499 0.70301,5.39916 -0.99209,7.44561"
       fill="#ed1c24"
       id="path135"
       style="fill:#ffffff;stroke-width:0.317673" />
    <path
       d="m 88.505478,70.176799 c -0.54926,0.66267 -1.20207,1.19064 -1.94829,1.57915 -3.1062,1.61791 -6.84171,0.1995 -8.32556,-3.1618 -1.09057,-2.4753 -0.70301,-5.39948 0.994,-7.44815 0.54703,-0.66044 1.20556,-1.19064 1.95051,-1.57883 3.10683,-1.61473 6.83917,-0.19569 8.32175,3.16529 1.0947,2.47499 0.70237,5.39853 -0.99241,7.44434"
       fill="#ed1c24"
       id="path137"
       style="fill:#ffffff;stroke-width:0.317673" />
    <path
       d="m 71.930768,81.606829 c 0,0 -26.14605,-10.86854 -30.24276,-14.8512 -4.09734,-3.9833 -4.42677,-10.8193 -0.74049,-15.26925 3.68532,-4.44901 9.99271,-4.82958 14.09005,-0.84628 4.09703,3.98266 16.8932,30.96673 16.8932,30.96673 m -38.56547,-37.49173 c -7.04471,8.50441 -6.40968,21.56743 1.41841,29.1776 12.85558,12.49756 40.11126,11.19574 40.11126,11.19574 0,0 -1.74338,-29.49623 -14.59896,-41.99379 -7.82809,-7.61017 -19.8879,-6.88143 -26.93071,1.62045"
       fill="#ed1c24"
       id="path139"
       style="fill:#ffffff;stroke-width:0.317673" />
    <path
       d="m 53.232428,55.517469 c 2.22689,2.16494 2.40669,5.88584 0.40376,8.30428 -2.00483,2.41972 -5.43824,2.62652 -7.66512,0.46158 -2.22816,-2.16621 -2.40701,-5.88457 -0.40218,-8.30428 2.00293,-2.41844 5.43538,-2.62779 7.66354,-0.46158"
       fill="#ed1c24"
       id="path141"
       style="fill:#ffffff;stroke-width:0.317673" />
    <path
       d="m 65.748148,43.876999 c 1.5099,-3.39656 0.85803,-7.59492 -1.85298,-10.23065 -3.15862,-3.07031 -7.96501,-2.90067 -10.96067,0.28273 -0.43235,-1.30151 -1.15728,-2.50803 -2.17034,-3.49313 -3.28727,-3.19579 -8.36813,-2.88923 -11.3263,0.68141 -1.28308,1.54897 -1.95909,3.46041 -2.04359,5.38804 -3.24788,-2.24213 -7.62096,-1.6808 -10.28179,1.53119 -2.6621,3.21389 -2.70562,7.98407 -0.29639,11.23894 -1.76213,0.30147 -3.44262,1.23479 -4.72633,2.7844 -2.95754,3.57064 -2.69006,9.07496 0.59722,12.27043 1.01306,0.9851 2.19925,1.63506 3.43944,1.96099 -2.59888,3.57032 -2.238,8.76745 0.9203,11.83807 2.71134,2.63573 6.63936,2.87939 9.59149,0.88917 -0.32561,2.73834 0.54831,5.59676 2.58014,7.57205 3.28632,3.19483 8.37195,2.88859 11.32821,-0.68046 0.9222,-1.11312 1.52673,-2.4105 1.83043,-3.76982 -0.94603,-0.24111 -1.89206,-0.50002 -2.8346,-0.78624 -0.18774,0.87773 -0.57657,1.7202 -1.17253,2.43973 -1.87776,2.26691 -5.10277,2.45974 -7.19083,0.42981 -1.8209,-1.77008 -2.18178,-4.65454 -0.99686,-6.86904 -1.27895,-0.75479 -2.49246,-1.59218 -3.62909,-2.50961 -0.10801,0.16519 -0.22587,0.32974 -0.35516,0.48572 -1.87967,2.26913 -5.10596,2.46291 -7.19275,0.43426 -2.08774,-2.02962 -2.25706,-5.52433 -0.37739,-7.79379 0.46729,-0.56418 1.01941,-1.00225 1.61854,-1.3069 -0.47524,-1.10741 -0.8485,-2.25548 -1.13187,-3.42483 -1.54135,0.35802 -3.2123,-0.0518 -4.4687,-1.27355 -2.08965,-2.0312 -2.25802,-5.52624 -0.38121,-7.79188 1.27578,-1.54007 3.16911,-2.11824 4.90519,-1.70336 0.33451,-1.31802 0.79354,-2.60364 1.37266,-3.84288 -0.30814,-0.19188 -0.60326,-0.41457 -0.87741,-0.68078 -2.08743,-2.02961 -2.25643,-5.5256 -0.37644,-7.79505 1.8784,-2.26723 5.10404,-2.46196 7.19179,-0.43267 0.27415,0.26653 0.51082,0.56006 0.71953,0.87138 1.07754,-0.76051 2.20592,-1.39109 3.37972,-1.89365 -0.56927,-1.82344 -0.24112,-3.92707 1.03307,-5.46556 1.87681,-2.26564 5.10214,-2.46069 7.19147,-0.42949 1.25672,1.22177 1.8136,2.97627 1.64936,4.67677 1.10614,0.17885 2.19734,0.45777 3.26663,0.84819 0.21506,-0.67855 0.55751,-1.31993 1.02545,-1.88475 1.87935,-2.2685 5.10245,-2.45974 7.1902,-0.43045 2.08647,2.02866 2.25929,5.52147 0.37994,7.78997 -0.12803,0.15439 -0.2678,0.30116 -0.40726,0.43426 0.96382,1.12615 1.86664,2.33902 2.69386,3.63894 1.90445,-1.51498 4.59228,-1.43969 6.41318,0.33038 2.08806,2.03025 2.2577,5.5256 0.3793,7.79315 -0.59563,0.71889 -1.32755,1.22907 -2.11252,1.5261 0.36469,0.98351 0.70396,1.97529 1.02672,2.96833 1.21255,-0.47079 2.34029,-1.26497 3.2625,-2.3781 2.9588,-3.57191 2.68782,-9.07749 -0.5985,-12.27233 -2.03183,-1.97529 -4.7473,-2.61063 -7.22483,-1.96544"
       fill="#ed1c24"
       id="path143"
       style="fill:#ffffff;stroke-width:0.317673" />
    <path
       d="m 138.34508,146.17178 c 0,0 26.14478,10.87298 30.24054,14.85438 4.09638,3.98266 4.42931,10.81802 0.74398,15.26735 -3.68627,4.44995 -9.99716,4.83053 -14.09354,0.84818 -4.09576,-3.98139 -16.89098,-30.96991 -16.89098,-30.96991 m 38.5642,37.49046 c 7.0428,-8.50219 6.4119,-21.56775 -1.41683,-29.17855 -12.85367,-12.49598 -40.11348,-11.19543 -40.11348,-11.19543 0,0 1.74752,29.4975 14.60119,41.99348 7.82904,7.6108 19.88409,6.88492 26.92912,-1.6195"
       fill="#ed1c24"
       id="path145"
       style="fill:#ffffff;stroke-width:0.317673" />
    <path
       d="m 157.04274,172.26218 c -2.22784,-2.16589 -2.40637,-5.88393 -0.40186,-8.30428 2.00325,-2.41781 5.43538,-2.62747 7.66322,-0.46158 2.22879,2.16653 2.40733,5.88647 0.40408,8.30428 -2.00451,2.42035 -5.43697,2.62811 -7.66544,0.46158"
       fill="#ed1c24"
       id="path147"
       style="fill:#ffffff;stroke-width:0.317673" />
    <path
       d="m 144.52708,183.90317 c -1.50704,3.39529 -0.86026,7.59873 1.85013,10.23383 3.1583,3.0703 7.96691,2.89844 10.96383,-0.28464 0.43331,1.30119 1.15665,2.50707 2.16971,3.49186 3.28696,3.19579 8.36686,2.88987 11.32471,-0.68077 1.28372,-1.54961 1.95877,-3.46041 2.04581,-5.38996 3.24503,2.24214 7.61907,1.68176 10.28148,-1.53213 2.66083,-3.21199 2.7034,-7.98312 0.29671,-11.23799 1.75959,-0.29957 3.44071,-1.23321 4.72411,-2.78218 2.95785,-3.57096 2.69132,-9.07591 -0.59564,-12.27138 -1.01306,-0.98478 -2.19734,-1.63411 -3.43849,-1.96004 2.59729,-3.57032 2.23419,-8.76522 -0.92379,-11.83585 -2.71038,-2.63477 -6.63332,-2.88383 -9.58863,-0.89234 0.32466,-2.73802 -0.55148,-5.59422 -2.58395,-7.57014 -3.28569,-3.1942 -8.36623,-2.89082 -11.32503,0.68077 -0.92221,1.11313 -1.52769,2.40955 -1.8317,3.76919 0.94412,0.23857 1.89269,0.49875 2.83618,0.78719 0.18647,-0.879 0.57657,-1.72147 1.17221,-2.44036 1.8784,-2.26755 5.10468,-2.46165 7.19084,-0.43394 1.82122,1.77039 2.18273,4.65994 0.99717,6.87348 1.28118,0.75003 2.49088,1.59091 3.62783,2.50676 0.108,-0.16328 0.22745,-0.33006 0.35547,-0.48445 1.87935,-2.26882 5.10278,-2.45974 7.19021,-0.43045 2.08615,2.02834 2.25897,5.52115 0.37993,7.78965 -0.46793,0.56483 -1.02036,1.00194 -1.61854,1.30818 0.47651,1.10836 0.8485,2.25579 1.1325,3.42546 1.54103,-0.35865 3.20977,0.0502 4.46775,1.27292 2.08838,2.03025 2.25707,5.52496 0.38026,7.79029 -1.27451,1.53849 -3.16879,2.11919 -4.90424,1.70241 -0.33387,1.31897 -0.79132,2.60205 -1.37171,3.84542 0.30688,0.18997 0.60136,0.4133 0.87487,0.67887 2.0887,2.03056 2.25866,5.52655 0.38058,7.7941 -1.87999,2.26945 -5.10723,2.46387 -7.19593,0.43362 -0.27351,-0.26589 -0.50954,-0.55974 -0.71698,-0.86947 -1.07628,0.75606 -2.20624,1.3895 -3.38036,1.89143 0.56832,1.82534 0.24112,3.92611 -1.03434,5.46619 -1.87681,2.26564 -5.10214,2.46133 -7.19052,0.43108 -1.25799,-1.22272 -1.81264,-2.97659 -1.64841,-4.67678 -1.10677,-0.17853 -2.1967,-0.45681 -3.26726,-0.84818 -0.21633,0.67664 -0.55815,1.31929 -1.02545,1.88348 -1.87967,2.26914 -5.10627,2.46292 -7.19242,0.43458 -2.08775,-2.0293 -2.25739,-5.52465 -0.37772,-7.79379 0.1293,-0.15597 0.2678,-0.30083 0.40662,-0.43553 -0.9635,-1.12456 -1.86283,-2.34093 -2.69227,-3.63608 -1.90381,1.51594 -4.59228,1.43557 -6.4135,-0.33482 -2.08584,-2.02803 -2.25706,-5.52243 -0.3793,-7.78902 0.59596,-0.71953 1.32756,-1.22876 2.11316,-1.52547 -0.36596,-0.98573 -0.70777,-1.97878 -1.02862,-2.96928 -1.21192,0.47015 -2.33903,1.26561 -3.26091,2.37873 -2.95658,3.56905 -2.69069,9.07782 0.595,12.27202 2.03247,1.97592 4.75048,2.60904 7.22864,1.96353"
       fill="#ed1c24"
       id="path149"
       style="fill:#ffffff;stroke-width:0.317673" />
    <path
       d="m 75.251678,149.96786 c 0,0 -10.10517,28.36372 -13.7943,32.81718 -3.68691,4.45059 -9.9943,4.82799 -14.09101,0.84564 -4.09639,-3.98234 -4.42931,-10.81548 -0.7424,-15.26576 3.68913,-4.45377 28.62771,-18.39706 28.62771,-18.39706 m -34.70828,41.89944 c 7.82682,7.6089 19.8844,6.88524 26.92911,-1.61949 11.57059,-13.96776 10.44667,-43.50052 10.44667,-43.50052 0,0 -27.22233,1.97561 -38.79292,15.94336 -7.04503,8.50474 -6.40937,21.56807 1.41714,29.17665"
       fill="#ed1c24"
       id="path151"
       style="fill:#ffffff;stroke-width:0.317673" />
    <path
       d="m 51.120858,170.3054 c 2.00515,-2.42067 5.4376,-2.62461 7.66449,-0.45967 2.22561,2.16367 2.40955,5.8833 0.4044,8.30396 -2.00579,2.4213 -5.43856,2.62366 -7.66417,0.46031 -2.22689,-2.16494 -2.41051,-5.88298 -0.40472,-8.3046"
       fill="#ed1c24"
       id="path153"
       style="fill:#ffffff;stroke-width:0.317673" />
    <path
       d="m 40.417548,156.77658 c -3.13162,-1.62458 -7.01135,-0.90727 -9.44886,2.03565 -2.84349,3.43213 -2.69894,8.63815 0.22936,11.87651 -1.20207,0.47492 -2.31774,1.26529 -3.22692,2.36253 -2.95975,3.57318 -2.69418,9.07877 0.59119,12.27233 1.42667,1.38696 3.18975,2.11348 4.96936,2.20116 -2.07949,3.52235 -1.5728,8.26139 1.38441,11.13601 2.9569,2.87494 7.35826,2.90734 10.36916,0.29004 0.27161,1.90667 1.12869,3.72757 2.55377,5.11262 3.28632,3.19515 8.36972,2.88955 11.32948,-0.68331 0.90886,-1.09756 1.5118,-2.38668 1.81836,-3.73202 3.28791,2.80441 8.08096,2.39875 10.92413,-1.03371 2.43782,-2.9426 2.67798,-7.19814 0.84882,-10.39584 2.5274,0.34627 5.16663,-0.6112 6.99356,-2.8168 2.95817,-3.57096 2.69387,-9.07813 -0.59405,-12.27456 -1.02481,-0.99622 -2.22021,-1.64872 -3.47279,-1.97274 -0.22333,1.02671 -0.46667,2.0528 -0.73446,3.07666 0.80911,0.19918 1.58614,0.61819 2.24785,1.26147 2.08743,2.0293 2.25706,5.52433 0.37708,7.79347 -1.63856,1.97846 -4.30256,2.37905 -6.34361,1.09883 -0.69824,1.38728 -1.47464,2.70339 -2.32346,3.93851 0.15153,0.11785 0.30306,0.24651 0.4457,0.38533 2.08711,2.02866 2.25674,5.52528 0.37993,7.79093 -1.87935,2.2685 -5.10627,2.46259 -7.19306,0.43394 -0.52035,-0.50574 -0.92061,-1.10519 -1.20048,-1.7526 -1.02418,0.51907 -2.08584,0.92633 -3.16466,1.23606 0.32498,1.67223 -0.0566,3.48296 -1.18619,4.84641 -1.88221,2.27232 -5.10722,2.46324 -7.19306,0.43522 -1.41523,-1.37553 -1.94543,-3.42706 -1.55628,-5.30927 -1.21573,-0.35801 -2.40224,-0.85072 -3.54332,-1.47495 -0.17758,0.33419 -0.38629,0.65218 -0.63281,0.94952 -1.87935,2.26882 -5.10531,2.46165 -7.19179,0.43331 -2.08679,-2.02866 -2.2577,-5.52401 -0.37835,-7.79283 0.2462,-0.29734 0.51781,-0.55434 0.8034,-0.78338 -0.69729,-1.163 -1.27514,-2.38604 -1.73481,-3.65673 -1.68557,0.62232 -3.62528,0.27256 -5.04306,-1.1055 -2.08393,-2.02612 -2.25611,-5.51925 -0.37358,-7.79156 1.12964,-1.36345 2.7485,-1.97148 4.31876,-1.80121 0.16868,-1.19445 0.42854,-2.38095 0.79259,-3.54205 -0.62486,-0.23158 -1.21668,-0.59722 -1.73767,-1.10359 -2.08711,-2.02898 -2.25643,-5.52465 -0.37707,-7.79347 1.87681,-2.26564 5.10341,-2.46069 7.19052,-0.4314 0.14454,0.14042 0.27796,0.28909 0.40249,0.43935 1.04133,-1.04769 2.16526,-2.02612 3.36193,-2.92895 -1.39268,-2.05788 -1.31326,-4.97094 0.32561,-6.9494 1.87967,-2.26914 5.10564,-2.46324 7.19307,-0.43395 0.66012,0.6417 1.12646,1.43461 1.40125,2.28629 0.91045,-0.39931 1.82535,-0.77258 2.74406,-1.12329 -0.43267,-1.31421 -1.163,-2.53375 -2.18591,-3.52839 -3.28855,-3.19705 -8.37131,-2.88796 -11.32948,0.683 -1.82693,2.2056 -2.41971,5.15297 -1.83011,7.83635"
       fill="#ed1c24"
       id="path155"
       style="fill:#ffffff;stroke-width:0.317673" />
    <path
       d="m 40.417548,156.77658 c -3.13162,-1.62458 -7.01135,-0.90727 -9.44886,2.03565 -2.84349,3.43213 -2.69894,8.63815 0.22936,11.87651 -1.20207,0.47492 -2.31774,1.26529 -3.22692,2.36253 -2.95975,3.57318 -2.69418,9.07877 0.59119,12.27233 1.42667,1.38696 3.18975,2.11348 4.96936,2.20116 -2.07949,3.52235 -1.5728,8.26139 1.38441,11.13601 2.9569,2.87494 7.35826,2.90734 10.36916,0.29004 0.27161,1.90667 1.12869,3.72757 2.55377,5.11262 3.28632,3.19515 8.36972,2.88955 11.32948,-0.68331 0.90886,-1.09756 1.5118,-2.38668 1.81836,-3.73202 3.28791,2.80441 8.08096,2.39875 10.92413,-1.03371 2.43782,-2.9426 2.67798,-7.19814 0.84882,-10.39584 2.5274,0.34627 5.16663,-0.6112 6.99356,-2.8168 2.95817,-3.57096 2.69387,-9.07813 -0.59405,-12.27456 -1.02481,-0.99622 -2.22021,-1.64872 -3.47279,-1.97274 -0.22333,1.02671 -0.46667,2.0528 -0.73446,3.07666 0.80911,0.19918 1.58614,0.61819 2.24785,1.26147 2.08743,2.0293 2.25706,5.52433 0.37708,7.79347 -1.63856,1.97846 -4.30256,2.37905 -6.34361,1.09883 -0.69824,1.38728 -1.47464,2.70339 -2.32346,3.93851 0.15153,0.11785 0.30306,0.24651 0.4457,0.38533 2.08711,2.02866 2.25674,5.52528 0.37993,7.79093 -1.87935,2.2685 -5.10627,2.46259 -7.19306,0.43394 -0.52035,-0.50574 -0.92061,-1.10519 -1.20048,-1.7526 -1.02418,0.51907 -2.08584,0.92633 -3.16466,1.23606 0.32498,1.67223 -0.0566,3.48296 -1.18619,4.84641 -1.88221,2.27232 -5.10722,2.46324 -7.19306,0.43522 -1.41523,-1.37553 -1.94543,-3.42706 -1.55628,-5.30927 -1.21573,-0.35801 -2.40224,-0.85072 -3.54332,-1.47495 -0.17758,0.33419 -0.38629,0.65218 -0.63281,0.94952 -1.87935,2.26882 -5.10531,2.46165 -7.19179,0.43331 -2.08679,-2.02866 -2.2577,-5.52401 -0.37835,-7.79283 0.2462,-0.29734 0.51781,-0.55434 0.8034,-0.78338 -0.69729,-1.163 -1.27514,-2.38604 -1.73481,-3.65673 -1.68557,0.62232 -3.62528,0.27256 -5.04306,-1.1055 -2.08393,-2.02612 -2.25611,-5.51925 -0.37358,-7.79156 1.12964,-1.36345 2.7485,-1.97148 4.31876,-1.80121 0.16868,-1.19445 0.42854,-2.38095 0.79259,-3.54205 -0.62486,-0.23158 -1.21668,-0.59722 -1.73767,-1.10359 -2.08711,-2.02898 -2.25643,-5.52465 -0.37707,-7.79347 1.87681,-2.26564 5.10341,-2.46069 7.19052,-0.4314 0.14454,0.14042 0.27796,0.28909 0.40249,0.43935 1.04133,-1.04769 2.16526,-2.02612 3.36193,-2.92895 -1.39268,-2.05788 -1.31326,-4.97094 0.32561,-6.9494 1.87967,-2.26914 5.10564,-2.46324 7.19307,-0.43395 0.66012,0.6417 1.12646,1.43461 1.40125,2.28629 0.91045,-0.39931 1.82535,-0.77258 2.74406,-1.12329 -0.43267,-1.31421 -1.163,-2.53375 -2.18591,-3.52839 -3.28855,-3.19705 -8.37131,-2.88796 -11.32948,0.683 -1.82693,2.2056 -2.41971,5.15297 -1.83011,7.83635"
       fill="#ed1c24"
       id="path157"
       style="fill:#ffffff;stroke-width:0.317673" />
    <path
       d="m 135.02281,77.812579 c 0,0 10.10739,-28.36404 13.79335,-32.81368 3.68723,-4.45123 9.99557,-4.83149 14.09196,-0.84914 4.09639,3.98266 4.42867,10.81834 0.73954,15.26735 -3.68595,4.44996 -28.62485,18.39547 -28.62485,18.39547 m 34.70701,-41.89785 c -7.82682,-7.60858 -19.88313,-6.88492 -26.92911,1.62076 -11.56774,13.96458 -10.4473,43.49956 -10.4473,43.49956 0,0 27.22614,-1.97783 38.79387,-15.9424 7.04598,-8.50569 6.40936,-21.56903 -1.41746,-29.17792"
       fill="#ed1c24"
       id="path159"
       style="fill:#ffffff;stroke-width:0.317673" />
    <path
       d="m 159.15217,57.475939 c -2.0042,2.4194 -5.43951,2.62461 -7.66512,0.46126 -2.22689,-2.16494 -2.40796,-5.88616 -0.40377,-8.30555 2.00579,-2.4213 5.43951,-2.62684 7.6664,-0.4619 2.22561,2.16367 2.40828,5.88457 0.40249,8.30619"
       fill="#ed1c24"
       id="path161"
       style="fill:#ffffff;stroke-width:0.317673" />
    <path
       d="m 169.85615,71.004649 c 3.13162,1.62553 7.01104,0.90759 9.45013,-2.03692 2.84158,-3.43023 2.69958,-8.63911 -0.23063,-11.87524 1.20016,-0.47397 2.31996,-1.26434 3.23009,-2.36285 2.95817,-3.57127 2.69037,-9.07877 -0.59595,-12.2736 -1.42508,-1.38537 -3.19071,-2.10966 -4.96745,-2.19925 2.0779,-3.52585 1.57343,-8.26203 -1.38378,-11.13729 -2.95722,-2.8743 -7.36048,-2.90956 -10.36979,-0.28876 -0.27447,-1.90445 -1.12933,-3.72789 -2.556,-5.11453 -3.28505,-3.19388 -8.36622,-2.88606 -11.32407,0.68458 -0.91014,1.09883 -1.51753,2.38795 -1.82186,3.73202 -3.28569,-2.80664 -8.08127,-2.39779 -10.92286,1.03244 -2.4394,2.94483 -2.67925,7.20037 -0.85041,10.39743 -2.52454,-0.3469 -5.16535,0.60898 -6.99388,2.81648 -2.95944,3.57223 -2.69164,9.07591 0.59691,12.27297 1.02291,0.99463 2.21863,1.64904 3.47343,1.97275 0.22206,-1.02513 0.46444,-2.04899 0.73383,-3.07349 -0.81356,-0.2014 -1.58964,-0.62041 -2.24976,-1.26243 -2.08711,-2.02897 -2.25643,-5.52528 -0.37771,-7.79378 1.6395,-1.97878 4.30319,-2.37746 6.34297,-1.10042 0.69951,-1.386 1.47622,-2.7018 2.32568,-3.93723 -0.15217,-0.11659 -0.30211,-0.24588 -0.44665,-0.38598 -2.08711,-2.02929 -2.25865,-5.5221 -0.37898,-7.79124 1.87871,-2.26786 5.10468,-2.46228 7.19179,-0.43298 0.52067,0.50637 0.91998,1.10454 1.19985,1.7526 1.02576,-0.52226 2.08711,-0.92507 3.16497,-1.23575 -0.32657,-1.67128 0.0566,-3.48042 1.18873,-4.84737 1.88031,-2.26977 5.105,-2.46196 7.18925,-0.43616 1.41746,1.37806 1.94797,3.42959 1.55914,5.31149 1.21574,0.35801 2.39938,0.84945 3.54269,1.474 0.17885,-0.33197 0.38534,-0.65155 0.63058,-0.94762 1.88094,-2.27073 5.10595,-2.46196 7.19274,-0.43331 2.08616,2.02803 2.25866,5.52211 0.37772,7.79251 -0.24556,0.29639 -0.51432,0.5553 -0.80149,0.7818 0.69507,1.16268 1.27609,2.38667 1.73544,3.65768 1.68526,-0.622 3.62465,-0.27225 5.03988,1.1036 2.08616,2.02802 2.25834,5.52242 0.37803,7.79219 -1.1325,1.36694 -2.75295,1.97338 -4.3213,1.80216 -0.16805,1.1954 -0.42505,2.38 -0.79323,3.54141 0.62455,0.23158 1.21796,0.59786 1.73799,1.1036 2.08711,2.02897 2.25738,5.52464 0.37866,7.79283 -1.87966,2.26913 -5.10404,2.46037 -7.19115,0.4314 -0.14295,-0.13883 -0.27797,-0.28686 -0.40186,-0.43808 -1.04228,1.04769 -2.16621,2.0258 -3.36415,2.92736 1.39395,2.06106 1.31485,4.97221 -0.32466,6.95099 -1.87904,2.26851 -5.10532,2.46387 -7.19275,0.43458 -0.66171,-0.64329 -1.13028,-1.43461 -1.39966,-2.28565 -0.91141,0.39995 -1.82758,0.76908 -2.74374,1.11947 0.43108,1.31549 1.16109,2.53281 2.1859,3.52903 3.28823,3.19642 8.3675,2.89082 11.32662,-0.68141 1.82853,-2.20751 2.42289,-5.15328 1.83075,-7.83603"
       fill="#ed1c24"
       id="path163"
       style="fill:#ffffff;stroke-width:0.317673" />
    <path
       d="m 60.523178,116.5728 c 0,0 -25.63492,12.37113 -31.13828,12.70214 -5.504,0.33165 -10.19888,-4.23235 -10.48828,-10.19602 -0.29035,-5.96367 3.93787,-11.06803 9.43933,-11.39556 5.5059,-0.33323 32.18723,8.88944 32.18723,8.88944 m -51.8105096,3.11986 c 0.55402,11.39238 9.5269996,20.11567 20.0438796,19.48541 17.269,-1.04038 35.75025,-22.84321 35.75025,-22.84321 0,0 -20.48545,-19.459991 -37.75509,-18.418661 -10.51623,0.6309 -18.5905196,10.378051 -18.0390396,21.776461"
       fill="#ed1c24"
       id="path165"
       style="fill:#ffffff;stroke-width:0.317673" />
    <path
       d="m 30.240778,112.507 c 2.98994,-0.18139 5.54625,2.30376 5.70381,5.54498 0.15757,3.24471 -2.13952,6.01799 -5.13486,6.19843 -2.9912,0.18012 -5.54752,-2.30535 -5.70381,-5.54466 -0.15757,-3.24598 2.13984,-6.01895 5.13486,-6.19875"
       fill="#ed1c24"
       id="path167"
       style="fill:#ffffff;stroke-width:0.317673" />
    <path
       d="m 31.518778,94.708899 c -1.14712,-3.55126 -4.34799,-6.01577 -7.9901,-5.79753 -4.24157,0.25478 -7.53997,4.0624 -7.58889,8.60131 -1.15537,-0.58611 -2.45592,-0.87868 -3.81811,-0.79736 -4.4150096,0.26272 -7.8204596,4.373401 -7.5866496,9.158501 0.0997,2.07504 0.87137,3.93756 2.06868,5.36518 -3.76601,0.90664 -6.50180997,4.65104 -6.29245997,8.9571 0.21157,4.30383 3.29013997,7.70166 7.12316997,8.14989 -1.05149,1.56295 -1.63728,3.5087 -1.53753,5.58278 0.23253,4.78638 4.01506,8.46376 8.4313496,8.19627 1.36154,-0.0826 2.62588,-0.52892 3.71899,-1.25194 0.48986,4.50682 4.13515,7.89543 8.37735,7.63907 3.64244,-0.2176 6.58821,-3.05029 7.38335,-6.72163 1.55374,2.1805 4.04048,3.52299 6.76833,3.36066 4.41788,-0.26621 7.82301,-4.37658 7.58825,-9.16041 -0.0718,-1.49021 -0.48636,-2.87113 -1.15728,-4.06018 -0.82944,0.55847 -1.67001,1.09947 -2.52677,1.62013 0.44125,0.76337 0.7154,1.65539 0.76305,2.61445 0.14645,3.04108 -2.01404,5.64917 -4.81782,5.81627 -2.44894,0.14708 -4.58847,-1.60838 -5.19077,-4.0767 -1.39904,0.44729 -2.80378,0.78275 -4.21012,1.00671 0.0321,0.20172 0.054,0.40694 0.0648,0.61724 0.1455,3.03917 -2.01372,5.64599 -4.82036,5.81531 -2.80251,0.16837 -5.20602,-2.16494 -5.3531,-5.20125 -0.0356,-0.75956 0.0731,-1.49148 0.29575,-2.16653 -1.06007,-0.41488 -2.07218,-0.94063 -3.03727,-1.54516 -0.85613,1.43175 -2.30916,2.42575 -4.00045,2.52804 -2.80378,0.16741 -5.2041196,-2.16621 -5.3521496,-5.20316 -0.10007,-2.06202 0.8628,-3.92644 2.3657096,-4.95951 -0.62264,-1.18524 -1.13568,-2.44195 -1.5356296,-3.76029 -0.34055,0.10102 -0.69793,0.16455 -1.06357,0.18997 -2.80473,0.16646 -5.20602,-2.16748 -5.35374,-5.20475 -0.14772,-3.03981 2.01436,-5.64981 4.81814,-5.81659 0.36628,-0.0219 0.72811,-3.2e-4 1.07405,0.0597 0.2713,-1.35995 0.65918,-2.67035 1.1661796,-3.92071 -1.5975796,-0.85168 -2.7351596,-2.58649 -2.8345896,-4.64724 -0.14645,-3.04012 2.01372,-5.64758 4.8162296,-5.815631 1.69288,-0.10229 3.22978,0.711901 4.22378,2.033101 0.89997,-0.71667 1.85807,-1.36281 2.86954,-1.90444 -0.28718,-0.639481 -0.46666,-1.356151 -0.50415,-2.113161 -0.14676,-3.03886 2.01309,-5.646 4.8191,-5.81595 2.80409,-0.16742 5.20506,2.16652 5.3531,5.20379 0.01,0.21094 0.008,0.41584 -0.004,0.62074 1.41809,0.054 2.84921,0.22141 4.28191,0.50065 0.36151,-2.52931 2.31933,-4.53351 4.76668,-4.6825 2.80378,-0.17027 5.20666,2.16558 5.35374,5.20475 0.0457,0.96255 -0.14137,1.884751 -0.50447,2.694181 0.89902,0.41615 1.79009,0.85327 2.66401,1.30691 0.55656,-1.2637 0.83675,-2.68561 0.76305,-4.176131 -0.23063,-4.78478 -4.01475,-8.46375 -8.43104,-8.19627 -2.73039,0.16424 -5.07005,1.80089 -6.40682,4.1523"
       fill="#ed1c24"
       id="path169"
       style="fill:#ffffff;stroke-width:0.317673" />
    <path
       d="m 149.75068,111.2077 c 0,0 25.63492,-12.369541 31.13955,-12.702461 5.5005,-0.33006 10.1957,4.234581 10.48765,10.195701 0.28908,5.96495 -3.93692,11.06677 -9.44187,11.3981 -5.50241,0.32879 -32.18533,-8.89134 -32.18533,-8.89134 m 51.80988,-3.11859 c -0.55403,-11.392701 -9.5286,-20.117581 -20.04325,-19.484781 -17.26932,1.03975 -35.75183,22.842581 -35.75183,22.842581 0,0 20.48544,19.45682 37.75508,18.41993 10.51719,-0.6328 18.5937,-10.3825 18.04,-21.77773"
       fill="#ed1c24"
       id="path171"
       style="fill:#ffffff;stroke-width:0.317673" />
    <path
       d="m 180.03416,115.2739 c -2.99279,0.18044 -5.54752,-2.30313 -5.70477,-5.54593 -0.15788,-3.24058 2.1408,-6.01545 5.13423,-6.19779 2.99152,-0.17917 5.54657,2.30471 5.70477,5.54593 0.15566,3.24375 -2.14302,6.01862 -5.13423,6.19779"
       fill="#ed1c24"
       id="path173"
       style="fill:#ffffff;stroke-width:0.317673" />
    <path
       d="m 178.75367,133.0738 c 1.1433,3.55253 4.34862,6.01418 7.99233,5.79562 4.23934,-0.257 7.5371,-4.06049 7.58666,-8.60226 1.15601,0.58738 2.45688,0.88186 3.82065,0.79895 4.41342,-0.26303 7.81856,-4.37372 7.58475,-9.1566 -0.0991,-2.07631 -0.87042,-3.93914 -2.069,-5.36803 3.76569,-0.90442 6.50085,-4.65295 6.29309,-8.95647 -0.20902,-4.30541 -3.29236,-7.700071 -7.12254,-8.149571 1.0515,-1.56263 1.63634,-3.50838 1.53754,-5.58278 -0.23349,-4.78733 -4.01602,-8.46439 -8.4323,-8.19786 -1.36218,0.0832 -2.62589,0.53337 -3.71805,1.25226 -0.48667,-4.50682 -4.13451,-7.89321 -8.37798,-7.63749 -3.64084,0.21666 -6.58821,3.0522 -7.38239,6.72037 -1.55692,-2.17923 -4.04048,-3.52521 -6.76929,-3.36034 -4.41819,0.26557 -7.82333,4.37658 -7.59079,9.16073 0.0753,1.4867 0.4889,2.87049 1.16141,4.05795 0.82659,-0.55466 1.66874,-1.0982 2.52455,-1.61441 -0.43935,-0.7675 -0.71254,-1.65921 -0.76019,-2.62271 -0.14645,-3.036 2.01468,-5.64504 4.81528,-5.81278 2.44767,-0.14803 4.5891,1.6087 5.19013,4.08051 1.40094,-0.44919 2.80791,-0.78688 4.21203,-1.01274 -0.0315,-0.19918 -0.055,-0.40376 -0.0632,-0.61311 -0.14867,-3.0379 2.01373,-5.64885 4.81655,-5.81468 2.8041,-0.17027 5.20444,2.16367 5.35533,5.20094 0.0343,0.75924 -0.0737,1.48925 -0.29607,2.16398 1.06007,0.41584 2.07091,0.94222 3.03759,1.54421 0.85644,-1.4308 2.30852,-2.42352 3.99854,-2.5255 2.80315,-0.16836 5.20507,2.16685 5.35247,5.20348 0.10038,2.06074 -0.86185,3.92199 -2.36571,4.96141 0.62327,1.184291 1.136,2.439411 1.53563,3.759981 0.34182,-0.10261 0.69729,-0.1671 1.06516,-0.19219 2.80378,-0.16646 5.20538,2.16811 5.35278,5.20411 0.14772,3.04045 -2.01245,5.64822 -4.81909,5.81754 -0.36501,0.0216 -0.72589,-3.2e-4 -1.07469,-0.061 -0.26939,1.36154 -0.65726,2.67226 -1.16459,3.92516 1.59663,0.84978 2.73548,2.58014 2.83428,4.64374 0.14899,3.03854 -2.01214,5.64759 -4.81592,5.81691 -1.69002,0.10102 -3.23105,-0.71096 -4.22123,-2.03406 -0.90188,0.71984 -1.85903,1.35741 -2.87272,1.90476 0.29067,0.6417 0.46857,1.35392 0.50351,2.11411 0.14645,3.03537 -2.015,5.64441 -4.81782,5.8131 -2.80283,0.17027 -5.20443,-2.16462 -5.35215,-5.20348 -0.0118,-0.20808 -0.008,-0.41425 0.004,-0.61946 -1.41746,-0.0553 -2.84794,-0.22015 -4.28255,-0.49938 -0.36087,2.52803 -2.31901,4.53382 -4.7635,4.68186 -2.80695,0.16709 -5.20856,-2.16749 -5.35342,-5.20475 -0.0483,-0.96414 0.13819,-1.88253 0.50192,-2.69736 -0.90377,-0.41234 -1.78881,-0.84914 -2.66654,-1.30373 -0.55211,1.26116 -0.83453,2.68783 -0.76051,4.17549 0.23349,4.78637 4.01411,8.46185 8.43072,8.19595 2.72912,-0.16233 5.06942,-1.79802 6.40555,-4.15039"
       fill="#ed1c24"
       id="path175"
       style="fill:#ffffff;stroke-width:0.317673" />
    <path
       d="m 107.48662,162.2285 c 0,0 11.34092,27.74109 11.62904,33.70666 0.2929,5.96081 -3.93532,11.06518 -9.43964,11.39556 -5.50431,0.33133 -10.199522,-4.23331 -10.487652,-10.19571 -0.2894,-5.96271 8.298252,-34.90651 8.298252,-34.90651 m 2.72468,56.13658 c 10.51941,-0.63566 18.59402,-10.38282 18.03904,-21.77615 -0.90886,-18.71378 -20.97529,-38.67665 -20.97529,-38.67665 0,0 -18.014272,22.2571 -17.106672,40.96771 0.55529,11.39396 9.52827,20.11694 20.042922,19.48509"
       fill="#ed1c24"
       id="path177"
       style="fill:#ffffff;stroke-width:0.317673" />
    <path
       d="m 103.64498,195.0577 c -0.15534,-3.24344 2.14175,-6.01672 5.13486,-6.19875 2.99184,-0.17948 5.54688,2.3044 5.70477,5.54593 0.15598,3.24344 -2.14112,6.01641 -5.13486,6.19875 -2.99185,0.17917 -5.54657,-2.3044 -5.70477,-5.54593"
       fill="#ed1c24"
       id="path179"
       style="fill:#ffffff;stroke-width:0.317673" />
    <path
       d="m 87.225478,193.7206 c -3.28251,1.25322 -5.56467,4.7311 -5.37216,8.67659 0.22332,4.598 3.72662,8.15879 7.91354,8.19882 -0.54417,1.25639 -0.81959,2.66432 -0.74844,4.13959 0.23127,4.78542 4.0138,8.46249 8.43231,8.19755 1.91366,-0.11659 3.636722,-0.95652 4.957282,-2.2577 0.82404,4.0786 4.27556,7.02914 8.2471,6.79216 3.97218,-0.24112 7.11587,-3.58875 7.54092,-7.74359 1.44032,1.13695 3.23295,1.76689 5.1482,1.65094 4.41533,-0.26526 7.82078,-4.37626 7.58666,-9.1585 -0.0724,-1.47623 -0.48223,-2.84603 -1.14553,-4.02841 4.16088,-0.54131 7.29821,-4.50587 7.0768,-9.0991 -0.19347,-3.94676 -2.80156,-7.12921 -6.18255,-7.98057 2.01436,-1.69256 3.26313,-4.3896 3.11923,-7.34809 -0.2319,-4.78574 -4.01221,-8.46121 -8.43072,-8.19596 -1.37425,0.0829 -2.65034,0.53687 -3.75012,1.26974 0.51304,0.8952 1.0102,1.80343 1.48543,2.72945 0.70714,-0.47778 1.53087,-0.77862 2.42099,-0.83104 2.80282,-0.17122 5.20443,2.16336 5.35374,5.20475 0.12579,2.65035 -1.50291,4.97476 -3.78158,5.63361 0.40885,1.51721 0.7154,3.03918 0.91807,4.56083 0.18711,-0.0353 0.37454,-0.0594 0.56864,-0.0718 2.80378,-0.16773 5.2057,2.16717 5.35247,5.20348 0.14549,3.03918 -2.01437,5.64632 -4.81688,5.81818 -0.69887,0.041 -1.37202,-0.0737 -1.99593,-0.31323 -0.38725,1.14394 -0.8736,2.24881 -1.43461,3.29522 1.31866,0.92697 2.23292,2.49532 2.32028,4.32893 0.14835,3.03631 -2.01182,5.64377 -4.81814,5.81341 -1.90286,0.11404 -3.61639,-0.92252 -4.56877,-2.54996 -1.09375,0.67982 -2.25484,1.23892 -3.47534,1.67604 0.0943,0.36787 0.1528,0.75479 0.17154,1.15093 0.14994,3.03822 -2.01214,5.64822 -4.81814,5.81659 -2.80251,0.16932 -5.2038,-2.16526 -5.3531,-5.2038 -0.0172,-0.39804 0.004,-0.78815 0.0597,-1.16586 -1.25354,-0.28908 -2.46165,-0.70523 -3.61607,-1.24813 -0.78846,1.72782 -2.394302,2.96706 -4.297162,3.08206 -2.80251,0.16836 -5.20443,-2.16653 -5.35246,-5.20348 -0.0877,-1.83202 0.66743,-3.50393 1.88983,-4.58275 -0.66012,-0.9724 -1.25099,-2.00547 -1.74815,-3.10398 -0.59278,0.31513 -1.25322,0.51018 -1.95369,0.55466 -2.80473,0.16646 -5.2038,-2.16875 -5.35151,-5.20507 -0.14677,-3.04076 2.01245,-5.64727 4.81877,-5.81722 0.1922,-0.0127 0.38343,-0.0108 0.57054,6.3e-4 0.0559,-1.5369 0.21221,-3.08619 0.47429,-4.63897 -2.33362,-0.38566 -4.17708,-2.50199 -4.3051,-5.15456 -0.14677,-3.03568 2.01341,-5.64377 4.81782,-5.81627 0.88726,-0.0499 1.73672,0.15026 2.48389,0.54195 0.38533,-0.97907 0.79005,-1.94352 1.21446,-2.89559 -1.16522,-0.59595 -2.47817,-0.89424 -3.85369,-0.81133 -4.41438,0.26398 -7.81951,4.37467 -7.58698,9.16168 0.14454,2.95467 1.6446,5.48779 3.8143,6.92717"
       fill="#ed1c24"
       id="path181"
       style="fill:#ffffff;stroke-width:0.317673" />
    <path
       d="m 102.78715,65.551899 c 0,0 -11.339332,-27.74331 -11.630632,-33.70476 -0.28972,-5.9643 3.93628,-11.06612 9.441552,-11.39809 5.50209,-0.32879 10.19697,4.23553 10.48828,10.19634 0.28876,5.96462 -8.2992,34.90651 -8.2992,34.90651 M 100.06184,9.4169092 C 89.544648,10.049079 81.468138,19.798769 82.021838,31.194329 c 0.90791,18.7106 20.975292,38.67506 20.975292,38.67506 0,0 18.01586,-22.25647 17.10826,-40.96707 -0.5556,-11.3946 -9.52891,-20.1178998 -20.04355,-19.4854098"
       fill="#ed1c24"
       id="path183"
       style="fill:#ffffff;stroke-width:0.317673" />
    <path
       d="m 106.62818,32.723039 c 0.15757,3.24534 -2.14111,6.02022 -5.13423,6.19779 -2.992162,0.18108 -5.548472,-2.30408 -5.703492,-5.54465 -0.16011,-3.24281 2.13857,-6.018 5.133912,-6.19812 2.98993,-0.18107 5.54624,2.30408 5.70381,5.54498"
       fill="#ed1c24"
       id="path185"
       style="fill:#ffffff;stroke-width:0.317673" />
    <path
       d="m 123.04866,34.059499 c 3.28156,-1.25004 5.56563,-4.73046 5.37121,-8.67532 -0.22174,-4.59705 -3.72249,-8.16006 -7.91291,-8.19977 0.54354,-1.25227 0.81801,-2.664 0.7478,-4.13991 -0.23126,-4.7847898 -4.01411,-8.4621698 -8.43135,-8.1965898 -1.91493,0.11722 -3.63672,0.95746 -4.9576,2.25801 -0.82658,-4.07732 -4.27333,-7.03072997 -8.247742,-6.79246997 -3.97345,0.23857 -7.1165,3.59064997 -7.54123,7.74326997 -1.43937,-1.136 -3.232,-1.76531 -5.14788,-1.64809 -4.41534,0.26304 -7.82047,4.3737198 -7.58476,9.1565998 0.0705,1.4775 0.48032,2.84571 1.14299,4.0265 -4.16183,0.54418 -7.29821,4.5046 -7.07425,9.10037 0.19155,3.94709 2.7952,7.13239 6.18,7.98216 -2.01373,1.69352 -3.26345,4.38961 -3.11827,7.34619 0.23158,4.78446 4.0157,8.46311 8.43103,8.19627 1.37298,-0.081 2.65098,-0.53973 3.74885,-1.27069 -0.50922,-0.89362 -1.00892,-1.80311 -1.48607,-2.72881 -0.70428,0.47937 -1.52864,0.77798 -2.41653,0.8323 -2.80505,0.169 -5.20761,-2.16684 -5.35374,-5.20507 -0.1293,-2.6497 1.50005,-4.97507 3.78126,-5.63614 -0.41012,-1.51435 -0.71699,-3.03854 -0.92157,-4.55765 -0.18552,0.034 -0.37486,0.0597 -0.56705,0.0696 -2.8041,0.169 -5.20507,-2.16494 -5.3531,-5.20412 -0.14867,-3.0379 2.01246,-5.64695 4.8156,-5.815 0.70142,-0.0445 1.37584,0.0747 1.99721,0.311 0.38883,-1.1487 0.87391,-2.24531 1.4362,-3.29521 -1.32152,-0.92411 -2.23134,-2.49501 -2.32219,-4.32702 -0.14677,-3.03791 2.01436,-5.6469498 4.81846,-5.8146898 1.90317,-0.11722 3.61511,0.9234798 4.56908,2.5470998 1.09375,-0.67632 2.25453,-1.23574 3.47312,-1.67445 -0.0912,-0.36723 -0.15058,-0.7538398 -0.17091,-1.1499698 -0.14676,-3.04045 2.01341,-5.64822 4.8191,-5.81754 2.802822,-0.16774 5.203792,2.16652 5.354052,5.20475 0.0152,0.3974 -0.004,0.78878 -0.0613,1.16808 1.25386,0.2871698 2.46228,0.7049098 3.61639,1.2484498 0.78783,-1.7325898 2.39461,-2.9702398 4.29684,-3.0839598 2.80346,-0.16805 5.20379,2.1652498 5.35215,5.2031598 0.0896,1.8317 -0.66489,3.50266 -1.88634,4.57861 0.65694,0.97653 1.24623,2.01246 1.74624,3.10652 0.5931,-0.31417 1.25291,-0.50795 1.95401,-0.55243 2.80124,-0.16741 5.20316,2.1678 5.34929,5.20602 0.15058,3.03727 -2.01182,5.64759 -4.81497,5.81627 -0.19473,0.0121 -0.38501,0.009 -0.57339,-0.003 -0.0524,1.53722 -0.21094,3.08842 -0.47461,4.64311 2.3349,0.38216 4.17645,2.49754 4.30574,5.15074 0.15026,3.03632 -2.01119,5.64536 -4.81528,5.81278 -0.88758,0.0546 -1.73704,-0.14518 -2.48675,-0.53369 -0.3847,0.9743 -0.79227,1.93971 -1.21287,2.88955 1.16427,0.59817 2.47626,0.89583 3.84987,0.81419 4.41693,-0.26462 7.82206,-4.37562 7.58984,-9.16231 -0.1439,-2.95722 -1.64681,-5.48685 -3.81366,-6.92781"
       fill="#ed1c24"
       id="path187"
       style="fill:#ffffff;stroke-width:0.317673" />
    <path
       d="m 81.884378,94.726599 c -1.0156,1.2259 -2.74977,1.32851 -3.87783,0.2319 -1.08295,-1.05277 -1.20811,-2.83427 -0.3145,-4.0589 0.86121,-1.19922 2.43369,-1.50228 3.63386,-0.67728 1.27577,0.87995 1.65253,2.71547 0.83548,4.10465 -0.0791,0.13882 -0.1779,0.27987 -0.27701,0.39963 m 6.54565,-6.8881 c -0.12834,0.15503 -0.2732,0.29544 -0.43522,0.42378 -1.15791,0.91299 -2.78789,0.71603 -3.71963,-0.4889 -0.96985,-1.25767 -0.80911,-3.13289 0.34913,-4.18883 0.12452,-0.11595 0.26716,-0.22587 0.41329,-0.31577 1.31358,-0.81292 2.9893,-0.31735 3.73742,1.10868 0.59881,1.13886 0.42409,2.53249 -0.34499,3.46104 m -11.04517,15.478921 c -0.76876,0.92824 -2.02707,1.26434 -3.13892,0.74463 -1.359,-0.63725 -1.99721,-2.33172 -1.45081,-3.8216 0.53242,-1.469881 2.04263,-2.244681 3.43531,-1.734501 1.43398,0.52289 2.20274,2.211961 1.7148,3.766961 -0.0235,0.0782 -0.0559,0.16456 -0.0867,0.24017 -0.12103,0.30242 -0.28082,0.57149 -0.47365,0.80434 m 19.09912,-20.090891 c -0.30782,0.37168 -0.70618,0.66267 -1.16808,0.83326 -1.37775,0.50923 -2.89273,-0.23762 -3.43404,-1.72147 -0.55021,-1.5261 0.14422,-3.25265 1.55246,-3.85909 0.10484,-0.0473 0.22333,-0.088 0.33261,-0.11881 1.47082,-0.41266 2.96261,0.54544 3.33969,2.13698 0.23825,0.99781 -0.0279,2.01119 -0.62264,2.72913 m -21.17638,29.698901 c -0.53814,0.64964 -1.33391,1.03848 -2.19861,0.98415 -1.51371,-0.0893 -2.67195,-1.49115 -2.58554,-3.13161 0.006,-0.0839 0.0162,-0.17917 0.0273,-0.26685 0.2192,-1.62458 1.61187,-2.75549 3.11224,-2.52105 1.45431,0.22364 2.47689,1.6484 2.33585,3.21803 -0.055,0.66012 -0.30719,1.25385 -0.69126,1.71733 M 105.50399,81.260449 c -0.4692,0.56641 -1.14013,0.94 -1.89492,0.98511 -0.0127,-9.6e-4 -0.0235,0.004 -0.0387,0.002 -0.0191,9.6e-4 -0.0368,0.002 -0.0546,0.004 -1.51403,0.0918 -2.80918,-1.163 -2.88828,-2.80251 -0.081,-1.64396 1.07754,-3.04426 2.59125,-3.1367 l 0.007,0.002 c 0.0137,-0.002 0.0213,-0.004 0.0318,-0.002 0.0197,-0.003 0.0381,-0.005 0.0537,-0.006 l 0.007,-0.003 c 1.5153,-0.088 2.80505,1.16586 2.88701,2.80632 0.0381,0.82023 -0.23254,1.58297 -0.70174,2.14969 M 75.802068,122.7776 c -0.40091,0.48413 -0.95239,0.82849 -1.59027,0.94762 -1.46543,0.26621 -2.8527,-0.77735 -3.1402,-2.34316 -0.28972,-1.54611 0.58738,-3.08079 2.01119,-3.48042 1.46923,-0.41012 2.96452,0.54608 3.33906,2.13667 0.02,0.0794 0.0362,0.17599 0.0492,0.25985 0.14073,0.92919 -0.12992,1.82884 -0.66901,2.47944 M 114.57367,82.110729 c -0.59373,0.71667 -1.4956,1.10804 -2.43845,0.96191 -0.11437,-0.0168 -0.23318,-0.0429 -0.34277,-0.0769 -1.46384,-0.43044 -2.32156,-2.0655 -1.91811,-3.65196 0.39233,-1.53563 1.82662,-2.46197 3.24693,-2.12206 1.39427,0.32784 2.33363,1.77452 2.12555,3.32636 -0.0823,0.60707 -0.32307,1.14012 -0.67315,1.56263 M 78.838028,132.06283 c -0.19282,0.23286 -0.4225,0.43712 -0.68744,0.59945 -1.31516,0.81451 -2.99216,0.31767 -3.74123,-1.1055 -0.0388,-0.0737 -0.0766,-0.15534 -0.10801,-0.23127 -0.63503,-1.48766 -0.0388,-3.25773 1.33867,-3.95089 1.33868,-0.67601 2.91529,-0.0842 3.58812,1.31644 0.5448,1.1236 0.35928,2.46704 -0.39011,3.37177 M 123.03457,85.712159 c -0.7675,0.92665 -2.02231,1.26752 -3.13543,0.74749 -0.15058,-0.0721 -0.30465,-0.1617 -0.43776,-0.26145 -1.26084,-0.91045 -1.59503,-2.75899 -0.75383,-4.12434 0.81324,-1.30754 2.40986,-1.70654 3.65101,-0.93205 1.20461,0.73795 1.71861,2.35967 1.15029,3.76823 -0.11786,0.30211 -0.28082,0.56895 -0.47428,0.80212 M 84.173348,140.03546 v 0 c -1.01401,1.22432 -2.74819,1.32788 -3.87466,0.23254 -0.1115,-0.10833 -0.223,-0.23126 -0.31735,-0.35929 -0.94476,-1.28181 -0.7478,-3.15322 0.43648,-4.18025 1.11313,-0.96668 2.70403,-0.84215 3.67484,0.2373 1.00988,1.10518 1.05626,2.89209 0.0807,4.0697 M 130.21938,91.748579 c -0.10102,0.12167 -0.21189,0.23539 -0.3307,0.33769 -1.11344,0.96604 -2.70403,0.84342 -3.67325,-0.23699 -1.0102,-1.10741 -1.05975,-2.8959 -0.0848,-4.07288 1.01402,-1.22399 2.75041,-1.32755 3.87593,-0.23317 0.11277,0.1096 0.22428,0.23762 0.31735,0.36405 0.8466,1.14966 0.77544,2.779 -0.10451,3.8413 M 91.362778,146.06632 c -0.85835,1.03625 -2.28025,1.29738 -3.40704,0.5985 -1.20239,-0.74082 -1.72051,-2.36063 -1.1522,-3.77269 0.6039,-1.50481 2.22053,-2.19702 3.6094,-1.54579 0.15216,0.0708 0.30338,0.16042 0.44061,0.26113 1.26021,0.91013 1.59376,2.75708 0.75034,4.12244 -0.0734,0.12071 -0.15566,0.23317 -0.24111,0.33641 M 135.54184,99.737889 c -0.24143,0.291301 -0.53877,0.535591 -0.88821,0.713171 -1.33582,0.66934 -2.91274,0.0836 -3.58557,-1.316121 -0.68745,-1.41205 -0.21539,-3.16973 1.07564,-3.9744 1.31675,-0.81134 2.99311,-0.31481 3.7425,1.10836 0.0397,0.0705 0.0769,0.15153 0.10928,0.22841 0.47047,1.11153 0.25795,2.38127 -0.45364,3.24058 M 99.839238,149.64681 c -0.64678,0.78084 -1.64777,1.16236 -2.64335,0.92316 -1.39205,-0.32784 -2.33522,-1.7723 -2.12396,-3.32985 0.21983,-1.62489 1.61568,-2.75644 3.11097,-2.52296 0.11372,0.02 0.23476,0.0467 0.34276,0.0788 1.4613,0.43171 2.320602,2.06646 1.915252,3.65164 -0.11531,0.46063 -0.32498,0.86535 -0.601672,1.19922 m 38.718272,-40.61318 c -0.34912,0.42123 -0.81261,0.74144 -1.3571,0.89297 -1.46797,0.4098 -2.9642,-0.54512 -3.33779,-2.13857 -0.0207,-0.0801 -0.0394,-0.1725 -0.0527,-0.25954 -0.24652,-1.61727 0.76908,-3.15036 2.26246,-3.42356 1.46511,-0.26621 2.85016,0.77894 3.13639,2.34506 0.18075,0.95112 -0.0855,1.90064 -0.65123,2.58364 m -29.65475,41.45311 c -0.46952,0.56672 -1.13759,0.93745 -1.8946,0.98415 l -0.008,0.001 c -1.51403,0.0909 -2.80601,-1.16523 -2.88447,-2.80442 -0.082,-1.64173 1.08231,-3.04711 2.59761,-3.13575 1.51276,-0.0924 2.80791,1.16173 2.88796,2.80474 0.04,0.82182 -0.22968,1.5836 -0.69888,2.15001 m 30.14269,-31.60844 c -0.59119,0.71381 -1.49401,1.11059 -2.43814,0.96223 -1.45494,-0.223 -2.47403,-1.6484 -2.33775,-3.21516 0.13311,-1.5925 1.41015,-2.7952 2.894,-2.70657 1.51466,0.0893 2.66781,1.4921 2.57982,3.1313 -0.004,0.0886 -0.014,0.18425 -0.0226,0.26748 -0.0823,0.60357 -0.32402,1.13663 -0.67537,1.56072 m -21.21482,29.66237 c -0.27542,0.33229 -0.62454,0.6004 -1.03148,0.77576 -0.10801,0.047 -0.22618,0.0893 -0.33546,0.1204 -1.46733,0.4117 -2.9623,-0.54513 -3.33811,-2.1354 -0.35611,-1.51943 0.4368,-3.07253 1.79168,-3.56238 1.37647,-0.50859 2.89177,0.23953 3.42927,1.72083 0.39424,1.08073 0.15948,2.26533 -0.5159,3.08079 m 19.12009,-20.05309 c -0.71159,0.85899 -1.85235,1.2259 -2.92418,0.83548 -1.43524,-0.52479 -2.20179,-2.21163 -1.71225,-3.76918 0.0222,-0.0769 0.0537,-0.16456 0.0839,-0.24271 0.6058,-1.50545 2.22244,-2.19924 3.61258,-1.54611 1.36122,0.64011 2.00006,2.33394 1.45112,3.82224 -0.12166,0.33673 -0.29607,0.64075 -0.51113,0.90028 m -11.05342,15.44303 c -0.0864,0.10451 -0.17981,0.20331 -0.28305,0.2948 -0.12516,0.11785 -0.26811,0.22364 -0.4117,0.31608 -1.31739,0.81197 -2.99312,0.31609 -3.74123,-1.10963 -0.69984,-1.33041 -0.34404,-3.00296 0.78369,-3.88863 1.15729,-0.91109 2.78377,-0.70968 3.71582,0.49398 0.88821,1.14457 0.83612,2.80727 -0.0635,3.8934 m 6.53993,-6.85983 c -0.88186,1.06452 -2.36857,1.31485 -3.51728,0.52448 -1.27831,-0.87741 -1.65348,-2.71451 -0.83706,-4.10052 0.0816,-0.13978 0.17694,-0.27764 0.27859,-0.40027 1.01592,-1.22653 2.74978,-1.32977 3.87656,-0.23444 1.08644,1.05594 1.21129,2.83809 0.31418,4.05859 -0.0362,0.0546 -0.0753,0.10419 -0.11499,0.15216"
       fill="#ed1c24"
       id="path189"
       style="fill:#ffffff;stroke-width:0.317673" />
    <path
       d="m 88.779428,97.986359 c -3.93279,4.747621 -5.93127,10.863141 -5.62027,17.227071 0.30719,6.36013 2.88606,12.20467 7.25533,16.44973 4.36895,4.24728 10.008602,6.39507 15.879512,6.04086 5.87186,-0.35325 11.26975,-3.16402 15.20254,-7.91163 3.93152,-4.74603 5.92777,-10.86155 5.619,-17.2239 -0.30688,-6.36267 -2.88638,-12.20467 -7.25533,-16.451951 -4.368,-4.24633 -10.0086,-6.39539 -15.87855,-6.03959 -5.875042,0.35261 -11.270712,3.16338 -15.202232,7.90941 m 35.436712,34.450021 c -4.5872,5.53767 -10.88156,8.81255 -17.72805,9.22458 -6.848382,0.41456 -13.425482,-2.0868 -18.522222,-7.04154 -5.09738,-4.95537 -8.10192,-11.76882 -8.46026,-19.18965 -0.3631,-7.41385 1.96544,-14.55132 6.55264,-20.088991 4.5856,-5.53576 10.8841,-8.81224 17.731222,-9.22617 6.84679,-0.40821 13.4223,2.09061 18.51936,7.04598 5.09452,4.95792 8.10129,11.769141 8.46312,19.184891 0.35897,7.41988 -1.96989,14.55513 -6.55581,20.0909"
       fill="#ed1c24"
       id="path191"
       style="fill:#ffffff;stroke-width:0.317673" />
    <path
       d="m 114.92714,100.5882 -4.31749,5.21206 -4.79749,-4.66376 4.31749,-5.212051 z m 6.15809,5.98654 -4.31749,5.21206 -4.79718,-4.66344 4.31749,-5.21205 z m -17.85702,-5.28194 -4.317492,5.21205 -4.79654,-4.6628 4.31749,-5.212371 z m 6.15713,5.98559 -4.31781,5.21205 -4.79717,-4.66375 4.31749,-5.21237 z m 6.15809,5.98654 -4.31781,5.21237 -4.79686,-4.66375 4.31749,-5.21206 z m 6.15649,5.98495 -4.31781,5.21238 -4.79781,-4.66407 4.31781,-5.21238 z m -24.012562,-11.26817 -4.3159,5.21015 -4.79654,-4.66311 4.3159,-5.20984 z m 6.156812,5.98559 -4.315582,5.21015 -4.79749,-4.66407 4.3159,-5.20983 z m 6.15809,5.98655 -4.31558,5.21015 -4.79718,-4.66344 4.31558,-5.21015 z m 6.1565,5.98495 -4.3159,5.21015 -4.7975,-4.66407 4.3159,-5.20983 z m -17.856072,-5.28163 -4.31749,5.21206 -4.79749,-4.66375 4.31781,-5.21206 z m 6.158092,5.98654 -4.31749,5.21206 -4.797182,-4.66343 4.31749,-5.21206 z m 17.84907,-21.5471 -4.79717,-4.66343 3.01249,-3.636721 c -0.2192,-0.22936 -0.43744,-0.45872 -0.66489,-0.67982 -0.22809,-0.22205 -0.46349,-0.43331 -0.69602,-0.64329 l -3.01249,3.63672 -4.79749,-4.66375 2.1859,-2.63891 c -0.61057,-0.26971 -1.22844,-0.50732 -1.86029,-0.71699 l -1.68525,2.03406 -3.09827,-3.01217 c -0.91902,-0.074 -1.84917,-0.0918 -2.78535,-0.0391 l 4.65899,4.52938 -4.31749,5.21206 -4.796542,-4.6628 4.195502,-5.06466 c -0.93682,0.062 -1.86093,0.19188 -2.76629,0.37613 l -2.788852,3.36669 -1.87459,-1.82249 c -0.60548,0.28464 -1.19762,0.59564 -1.77865,0.93873 l 2.42893,2.36157 -4.31749,5.212381 -3.35018,-3.256781 c -0.21093,0.23571 -0.42123,0.47714 -0.62486,0.72302 -0.20522,0.24747 -0.4044,0.50065 -0.5985,0.75384 l 3.35018,3.256781 -4.3159,5.20983 -2.42893,-2.36158 c -0.25413,0.66489 -0.47555,1.33645 -0.67156,2.01913 l 1.87491,1.82249 -2.78758,3.36479 c -0.0731,0.99685 -0.0915,2.00451 -0.0464,3.01916 l 4.1936,-5.06243 4.79622,4.66311 -4.31749,5.21206 -4.65899,-4.5297 c 0.0527,1.01433 0.169,2.01437 0.33642,2.99661 l 3.09794,3.01186 -1.68493,2.03405 c 0.26049,0.65822 0.54544,1.2977 0.85867,1.92605 l 2.1859,-2.63859 4.79718,4.66376 -3.01345,3.63799 c 0.21666,0.22936 0.43934,0.45554 0.66775,0.67759 0.22746,0.2211 0.45809,0.43553 0.69316,0.64583 l 3.01376,-3.63831 4.79686,4.66376 -2.18432,2.63668 c 0.60898,0.27129 1.23067,0.51018 1.85807,0.71826 l 1.685262,-2.03406 3.09921,3.01281 c 0.92125,0.0759 1.84822,0.0902 2.78694,0.0403 l -4.66153,-4.53192 4.31749,-5.21205 4.79781,4.66407 -4.19359,5.06243 c 0.93586,-0.061 1.8587,-0.18965 2.76629,-0.37517 l 2.78726,-3.36511 1.87268,1.82058 c 0.60707,-0.28304 1.19985,-0.59341 1.78246,-0.93872 l -2.42924,-2.36158 4.3159,-5.20983 3.34922,3.25615 c 0.21221,-0.2354 0.42314,-0.47747 0.62836,-0.72493 0.20363,-0.24588 0.40249,-0.49875 0.595,-0.75193 l -3.34922,-3.25615 4.31749,-5.21237 2.42924,2.36158 c 0.25255,-0.66267 0.47524,-1.33264 0.67093,-2.01596 l -1.87586,-1.82344 2.78885,-3.36669 c 0.0708,-0.99559 0.0905,-2.00483 0.0448,-3.01853 l -4.1936,5.06275 -4.79781,-4.66375 4.31749,-5.21237 4.66153,4.53191 c -0.0553,-1.01655 -0.16837,-2.01309 -0.33769,-2.99724 l -3.09921,-3.01281 1.68525,-2.03405 c -0.25763,-0.65473 -0.54481,-1.29706 -0.85962,-1.92383 z"
       fill="#ed1c24"
       id="path193"
       style="fill:#ffffff;stroke-width:0.317673" />
    <path
       d="m 183.16278,189.74148 c -0.48858,0.5896 -1.03371,1.08866 -1.61854,1.49783 l 11.93433,11.60236 1.95686,1.90222 84.14165,81.79882 5.42045,2.19797 -2.60269,-5.59961 -82.96722,-80.65678 -3.1313,-3.04426 -11.93464,-11.60204 c -0.31323,0.67505 -0.71254,1.31611 -1.1989,1.90349"
       fill="#ed1c24"
       id="path195"
       style="fill:#ffffff;stroke-width:0.317673" />
  </g>
</svg>
