<?xml version="1.0" encoding="UTF-8" standalone="no"?>
<svg
   xmlns:dc="http://purl.org/dc/elements/1.1/"
   xmlns:cc="http://creativecommons.org/ns#"
   xmlns:rdf="http://www.w3.org/1999/02/22-rdf-syntax-ns#"
   xmlns:svg="http://www.w3.org/2000/svg"
   xmlns="http://www.w3.org/2000/svg"
   id="svg8"
   version="1.1"
   viewBox="0 0 121.89354 79.649208"
   height="79.649208mm"
   width="121.89354mm">
  <title
     id="title849">Šrámkova Sobotka - logo v bílé - mod JB 2.6</title>
  <defs
     id="defs2" />
  <metadata
     id="metadata5">
    <rdf:RDF>
      <cc:Work
         rdf:about="">
        <dc:format>image/svg+xml</dc:format>
        <dc:type
           rdf:resource="http://purl.org/dc/dcmitype/StillImage" />
        <dc:title>Šrámkova Sobotka - logo v bílé</dc:title>
      </cc:Work>
    </rdf:RDF>
  </metadata>
  <path
     style="fill:#ffffff;fill-opacity:1;stroke:none;stroke-width:0.264583;stroke-opacity:1"
     d="m 25.741312,40.226289 c -6.14627,-2.391833 -9.913937,-4.040188 -9.913937,-7.596188 0,-3.063874 2.299229,-5.042958 5.857875,-5.042958 4.939771,0 6.958541,3.069167 8.913812,6.035146 l 0.751417,1.140354 9.001125,-10.12825 -0.338667,-0.621771 C 38.237583,20.763539 34.541354,13.998143 21.971,13.836748 15.568083,13.749435 10.173229,15.694123 6.3711667,19.44856 2.9157084,22.861685 1.0874376,27.48131 1.0874376,32.812664 c 0,12.361333 9.6520004,16.216312 17.4095834,19.314583 6.11452,2.442104 9.86102,4.1275 9.86102,7.836958 0,3.4925 -2.365375,5.495396 -6.490229,5.495396 -3.381375,0 -8.522229,-2.037292 -11.8744995,-7.776104 L 9.2948125,56.484934 1.382e-7,66.949205 0.28045847,67.549809 c 0.77258333,1.648355 2.63524993,4.810125 6.40556243,7.479771 3.8523331,2.727854 8.6809791,4.265083 14.3483541,4.574646 0.547687,0.0291 1.090083,0.04498 1.624542,0.04498 5.921374,0 10.961687,-1.822979 14.649979,-5.315479 3.907895,-3.701521 5.974291,-8.982604 5.974291,-15.27175 C 43.280587,47.05254 33.554458,43.266352 25.741312,40.226289 Z"
     id="path10" />
  <path
     style="fill:#ffffff;fill-opacity:1;stroke:none;stroke-width:0.264583;stroke-opacity:1"
     d="M 31.347833,2.195081 C 30.329187,1.0018102 28.974521,0.28743521 27.326166,0.07047687 c -2.076979,-0.27252083 -3.931708,0.2460625 -5.516562,1.54252083 -0.04233,0.034396 -0.08202,0.066146 -0.124354,0.1005417 -0.04233,-0.034396 -0.08467,-0.066146 -0.127,-0.1005417 -1.582208,-1.29645833 -3.439583,-1.81504166 -5.516563,-1.54252083 -1.651,0.21695834 -3.00302,0.93133333 -4.021666,2.12460413 -1.095375,1.2832292 -1.471083,2.8389791 -1.116542,4.619625 0.1905,0.9604374 0.648229,1.8732499 1.394354,2.7966458 0.804334,0.9948332 1.74625,1.8123962 2.561167,2.4817912 1.672167,1.373188 3.471333,2.645834 5.209646,3.878792 l 0.235479,0.166688 c 0.119062,0.08467 0.248708,0.169333 0.378354,0.259291 0.132292,0.08996 0.267229,0.177271 0.386292,0.264583 l 0.574146,0.492125 0.642937,-0.470958 c 0.153458,-0.113771 0.322792,-0.230187 0.489479,-0.346604 0.09525,-0.06615 0.1905,-0.132292 0.280459,-0.195792 l 0.238125,-0.169333 c 1.738312,-1.230312 3.537479,-2.502958 5.209645,-3.876146 0.814917,-0.669396 1.756834,-1.489604 2.561167,-2.4817914 0.746125,-0.9233958 1.203854,-1.8362083 1.394354,-2.7966458 0.359833,-1.7832917 -0.01588,-3.3390416 -1.11125,-4.6222708 z"
     id="path12" />
  <g
     style="fill:#ffffff;fill-opacity:1;stroke:#ffffff;stroke-opacity:1;paint-order:fill markers stroke;stroke-width:2.60000007;stroke-miterlimit:4;stroke-dasharray:none;stroke-linejoin:bevel;stroke-linecap:butt"
     id="g46"
     transform="matrix(0.26458333,0,0,0.26458333,-15.488708,-62.815689)">
    <g
       style="fill:#ffffff;fill-opacity:1;stroke:#ffffff;stroke-opacity:1;paint-order:fill markers stroke;stroke-width:2.60000007;stroke-miterlimit:4;stroke-dasharray:none;stroke-linejoin:bevel;stroke-linecap:butt"
       id="g44">
      <path
         style="fill:#ffffff;fill-opacity:1;stroke:#ffffff;stroke-opacity:1;paint-order:fill markers stroke;stroke-width:2.60000007;stroke-miterlimit:4;stroke-dasharray:none;stroke-linejoin:bevel;stroke-linecap:butt"
         d="m 263.11,393.3 c 0.91,2.6 2.93,5.24 7.36,5.24 3.56,0 6.11,-2.07 6.11,-5.58 0,-8.42 -15.78,-6.25 -15.78,-17.12 0,-4.81 3.66,-8.61 9.62,-8.61 6.01,0 8.71,4.18 9.52,6.45 l -3.27,1.35 c -0.77,-1.68 -2.6,-4.23 -6.3,-4.23 -3.7,0 -5.68,2.26 -5.68,5.05 0,7.7 15.82,6.11 15.82,16.88 0,5.29 -3.9,9.43 -10.2,9.43 -6.54,0 -9.47,-4.18 -10.53,-7.41 z m 10.1,-34.05 h 3.56 l -4.52,6.25 h -4.04 l -4.52,-6.25 h 3.61 l 2.93,3.94 z"
         id="path14" />
      <path
         style="fill:#ffffff;fill-opacity:1;stroke:#ffffff;stroke-opacity:1;paint-order:fill markers stroke;stroke-width:2.60000007;stroke-miterlimit:4;stroke-dasharray:none;stroke-linejoin:bevel;stroke-linecap:butt"
         d="m 289.6,367.85 h 8.56 c 6.88,0 10.49,3.46 10.49,9.33 0,3.99 -1.97,7.65 -5.87,8.9 l 8.37,15.44 h -4.33 l -7.6,-14.62 h -5.72 v 14.62 h -3.9 z m 8.56,15.64 c 3.94,0 6.4,-1.83 6.4,-6.25 0,-3.56 -1.88,-5.92 -6.64,-5.92 h -4.42 v 12.17 z"
         id="path16" />
      <path
         style="fill:#ffffff;fill-opacity:1;stroke:#ffffff;stroke-opacity:1;paint-order:fill markers stroke;stroke-width:2.60000007;stroke-miterlimit:4;stroke-dasharray:none;stroke-linejoin:bevel;stroke-linecap:butt"
         d="m 323.07,390.6 -4.04,10.92 h -3.94 l 12.6,-33.67 h 3.94 l 12.6,33.67 h -3.94 l -4.04,-10.92 z m 6.59,-18.47 -5.39,15.1 h 10.82 z m 1.54,-13.22 h 4.18 l -4.28,6.83 h -3.32 z"
         id="path18" />
      <path
         style="fill:#ffffff;fill-opacity:1;stroke:#ffffff;stroke-opacity:1;paint-order:fill markers stroke;stroke-width:2.60000007;stroke-miterlimit:4;stroke-dasharray:none;stroke-linejoin:bevel;stroke-linecap:butt"
         d="m 368.63,393.83 12.12,-25.97 h 4.95 v 33.67 h -3.75 v -27.8 l -11.4,24.72 h -3.85 l -11.4,-24.72 v 27.8 h -3.75 v -33.67 h 5 z"
         id="path20" />
      <path
         style="fill:#ffffff;fill-opacity:1;stroke:#ffffff;stroke-opacity:1;paint-order:fill markers stroke;stroke-width:2.60000007;stroke-miterlimit:4;stroke-dasharray:none;stroke-linejoin:bevel;stroke-linecap:butt"
         d="m 396.72,367.85 h 3.9 v 15.49 l 13.42,-15.49 h 4.71 l -14.14,16.11 14.72,17.56 h -4.76 l -13.95,-16.93 v 16.93 h -3.9 z"
         id="path22" />
      <path
         style="fill:#ffffff;fill-opacity:1;stroke:#ffffff;stroke-opacity:1;paint-order:fill markers stroke;stroke-width:2.60000007;stroke-miterlimit:4;stroke-dasharray:none;stroke-linejoin:bevel;stroke-linecap:butt"
         d="m 439.94,367.23 c 9.81,0 17.17,7.65 17.17,17.46 0,9.91 -7.41,17.46 -17.22,17.46 -9.76,0 -17.12,-7.46 -17.12,-17.46 0,-9.91 7.4,-17.46 17.17,-17.46 z m 0,31.26 c 7.46,0 13.13,-5.82 13.13,-13.8 0,-7.89 -5.67,-13.8 -13.13,-13.8 -7.46,0 -13.13,5.92 -13.13,13.8 -0.01,7.98 5.67,13.8 13.13,13.8 z"
         id="path24" />
      <path
         style="fill:#ffffff;fill-opacity:1;stroke:#ffffff;stroke-opacity:1;paint-order:fill markers stroke;stroke-width:2.60000007;stroke-miterlimit:4;stroke-dasharray:none;stroke-linejoin:bevel;stroke-linecap:butt"
         d="m 471.87,401.52 -12.79,-33.67 h 4.28 l 10.58,29.05 10.63,-29.05 h 4.28 l -12.79,33.67 z"
         id="path26" />
      <path
         style="fill:#ffffff;fill-opacity:1;stroke:#ffffff;stroke-opacity:1;paint-order:fill markers stroke;stroke-width:2.60000007;stroke-miterlimit:4;stroke-dasharray:none;stroke-linejoin:bevel;stroke-linecap:butt"
         d="m 498.08,390.6 -4.04,10.92 h -3.94 l 12.6,-33.67 h 3.94 l 12.6,33.67 h -3.94 l -4.04,-10.92 z m 6.59,-18.47 -5.39,15.1 h 10.82 z"
         id="path28" />
      <path
         style="fill:#ffffff;fill-opacity:1;stroke:#ffffff;stroke-opacity:1;paint-order:fill markers stroke;stroke-width:2.60000007;stroke-miterlimit:4;stroke-dasharray:none;stroke-linejoin:bevel;stroke-linecap:butt"
         d="m 263.11,448.68 c 0.91,2.6 2.93,5.24 7.36,5.24 3.56,0 6.11,-2.07 6.11,-5.58 0,-8.42 -15.78,-6.25 -15.78,-17.12 0,-4.81 3.66,-8.61 9.62,-8.61 6.01,0 8.71,4.18 9.52,6.44 l -3.27,1.35 c -0.77,-1.68 -2.6,-4.23 -6.3,-4.23 -3.7,0 -5.68,2.26 -5.68,5.05 0,7.7 15.82,6.11 15.82,16.88 0,5.29 -3.9,9.43 -10.2,9.43 -6.54,0 -9.47,-4.18 -10.53,-7.41 z"
         id="path30" />
      <path
         style="fill:#ffffff;fill-opacity:1;stroke:#ffffff;stroke-opacity:1;paint-order:fill markers stroke;stroke-width:2.60000007;stroke-miterlimit:4;stroke-dasharray:none;stroke-linejoin:bevel;stroke-linecap:butt"
         d="m 304.26,422.62 c 9.81,0 17.17,7.65 17.17,17.46 0,9.91 -7.41,17.46 -17.22,17.46 -9.76,0 -17.12,-7.46 -17.12,-17.46 0,-9.91 7.41,-17.46 17.17,-17.46 z m 0,31.26 c 7.46,0 13.13,-5.82 13.13,-13.8 0,-7.89 -5.67,-13.8 -13.13,-13.8 -7.45,0 -13.13,5.92 -13.13,13.8 0,7.98 5.68,13.8 13.13,13.8 z"
         id="path32" />
      <path
         style="fill:#ffffff;fill-opacity:1;stroke:#ffffff;stroke-opacity:1;paint-order:fill markers stroke;stroke-width:2.60000007;stroke-miterlimit:4;stroke-dasharray:none;stroke-linejoin:bevel;stroke-linecap:butt"
         d="m 328.35,423.24 h 9.28 c 6.4,0 10,3.27 10,8.61 0,3.37 -1.68,5.96 -4.33,7.41 3.22,1.15 5.48,3.99 5.48,8.08 0,6.06 -4.38,9.57 -10.15,9.57 h -10.29 v -33.67 z m 9.72,14.57 c 3.37,0 5.58,-2.26 5.58,-5.68 0,-3.32 -1.97,-5.43 -5.58,-5.43 h -5.82 v 11.11 z m -0.1,15.68 c 3.99,0 6.78,-1.92 6.78,-6.25 0,-4.42 -2.93,-6.16 -6.83,-6.16 h -5.68 v 12.41 z"
         id="path34" />
      <path
         style="fill:#ffffff;fill-opacity:1;stroke:#ffffff;stroke-opacity:1;paint-order:fill markers stroke;stroke-width:2.60000007;stroke-miterlimit:4;stroke-dasharray:none;stroke-linejoin:bevel;stroke-linecap:butt"
         d="m 372.97,422.62 c 9.81,0 17.17,7.65 17.17,17.46 0,9.91 -7.41,17.46 -17.22,17.46 -9.76,0 -17.12,-7.46 -17.12,-17.46 0,-9.91 7.41,-17.46 17.17,-17.46 z m 0,31.26 c 7.45,0 13.13,-5.82 13.13,-13.8 0,-7.89 -5.68,-13.8 -13.13,-13.8 -7.46,0 -13.13,5.92 -13.13,13.8 0,7.98 5.68,13.8 13.13,13.8 z"
         id="path36" />
      <path
         style="fill:#ffffff;fill-opacity:1;stroke:#ffffff;stroke-opacity:1;paint-order:fill markers stroke;stroke-width:2.60000007;stroke-miterlimit:4;stroke-dasharray:none;stroke-linejoin:bevel;stroke-linecap:butt"
         d="m 403.1,426.8 h -9.09 v -3.56 h 22.03 v 3.56 H 407 v 30.11 h -3.9 z"
         id="path38" />
      <path
         style="fill:#ffffff;fill-opacity:1;stroke:#ffffff;stroke-opacity:1;paint-order:fill markers stroke;stroke-width:2.60000007;stroke-miterlimit:4;stroke-dasharray:none;stroke-linejoin:bevel;stroke-linecap:butt"
         d="m 423.79,423.24 h 3.9 v 15.49 l 13.42,-15.49 h 4.71 l -14.14,16.11 14.72,17.55 h -4.76 l -13.95,-16.93 v 16.93 h -3.9 z"
         id="path40" />
      <path
         style="fill:#ffffff;fill-opacity:1;stroke:#ffffff;stroke-opacity:1;paint-order:fill markers stroke;stroke-width:2.60000007;stroke-miterlimit:4;stroke-dasharray:none;stroke-linejoin:bevel;stroke-linecap:butt"
         d="m 459.19,445.99 -4.04,10.92 h -3.94 l 12.6,-33.67 h 3.94 l 12.6,33.67 h -3.94 l -4.04,-10.92 z m 6.59,-18.47 -5.39,15.1 h 10.82 z"
         id="path42" />
    </g>
  </g>
</svg>
