<?xml version="1.0" encoding="UTF-8" standalone="no"?>
<svg
   xmlns:dc="http://purl.org/dc/elements/1.1/"
   xmlns:cc="http://creativecommons.org/ns#"
   xmlns:rdf="http://www.w3.org/1999/02/22-rdf-syntax-ns#"
   xmlns:svg="http://www.w3.org/2000/svg"
   xmlns="http://www.w3.org/2000/svg"
   version="1.1"
   id="svg2"
   xml:space="preserve"
   width="244.67657"
   height="159.87445"
   viewBox="0 0 244.67657 159.87445"><title
     id="title1034">Logo Šrámkovy Sobotky</title><metadata
     id="metadata8"><rdf:RDF><cc:Work
         rdf:about=""><dc:format>image/svg+xml</dc:format><dc:type
           rdf:resource="http://purl.org/dc/dcmitype/StillImage" /><dc:title>Logo Šrámkovy Sobotky</dc:title></cc:Work></rdf:RDF></metadata><defs
     id="defs6"><clipPath
       clipPathUnits="userSpaceOnUse"
       id="clipPath18"><path
         d="M 0,841.89 H 595.276 V 0 H 0 Z"
         id="path16" /></clipPath></defs><g
     transform="matrix(0.53107342,0,0,-0.53107342,51.676099,80.743979)"
     id="g20"><path
       id="path22"
       style="fill:#ec1d27;fill-opacity:1;fill-rule:nonzero;stroke:none"
       d="m 0,0 c -23.229,9.042 -37.465,15.267 -37.465,28.706 0,11.581 8.689,19.064 22.136,19.064 18.668,0 26.304,-11.595 33.688,-22.808 l 2.838,-4.31 34.024,38.278 -1.283,2.348 C 47.226,73.563 33.259,99.126 -14.256,99.741 -38.46,100.073 -58.846,92.719 -73.221,78.529 -86.286,65.632 -93.192,48.167 -93.192,28.021 c 0,-46.716 36.483,-61.289 65.797,-72.998 23.11,-9.231 37.274,-15.601 37.274,-29.621 0,-13.201 -8.94,-20.773 -24.526,-20.773 -12.784,0 -32.208,7.698 -44.883,29.389 l -2.645,4.526 -35.13,-39.552 1.064,-2.268 c 2.923,-6.229 9.955,-18.184 24.208,-28.27 14.565,-10.307 32.809,-16.122 54.227,-17.287 2.074,-0.113 4.12,-0.168 6.142,-0.168 22.381,0 41.431,6.889 55.37,20.09 14.773,13.993 22.581,33.953 22.581,57.725 C 66.287,-25.805 29.533,-11.497 0,0" /></g><g
     transform="matrix(0.53107342,0,0,-0.53107342,62.932094,4.4115214)"
     id="g24"><path
       id="path26"
       style="fill:#ec1d27;fill-opacity:1;fill-rule:nonzero;stroke:none"
       d="M 0,0 C -3.852,4.512 -8.966,7.214 -15.203,8.035 -23.05,9.067 -30.067,7.106 -36.051,2.206 -36.207,2.078 -36.363,1.952 -36.522,1.828 -36.683,1.954 -36.842,2.082 -37,2.211 -42.984,7.111 -49.996,9.071 -57.848,8.04 -64.085,7.22 -69.2,4.517 -73.05,0.005 c -4.14,-4.849 -5.559,-10.725 -4.217,-17.463 0.723,-3.626 2.446,-7.083 5.269,-10.569 3.041,-3.756 6.602,-6.852 9.683,-9.385 6.319,-5.195 13.118,-10.005 19.692,-14.657 l 0.892,-0.63 c 0.445,-0.315 0.937,-0.644 1.432,-0.976 0.502,-0.336 1.008,-0.673 1.462,-1 l 2.173,-1.863 2.432,1.778 c 0.583,0.427 1.224,0.874 1.852,1.311 0.362,0.253 0.72,0.503 1.062,0.745 l 0.898,0.635 c 6.571,4.651 13.368,9.459 19.685,14.652 3.082,2.533 6.643,5.63 9.682,9.384 2.823,3.487 4.547,6.944 5.269,10.569 C 5.559,-10.726 4.141,-4.85 0,0" /></g><g
     transform="matrix(0.53107342,0,0,-0.53107342,114.01498,64.704659)"
     id="g28"><path
       id="path30"
       style="fill:#ec1d27;fill-opacity:1;fill-rule:nonzero;stroke:none"
       d="m 0,0 h 3.56 l -4.522,-6.252 h -4.04 L -9.522,0 h 3.606 l 2.935,-3.943 z m -10.1,-34.052 c 0.914,-2.596 2.934,-5.242 7.359,-5.242 3.559,0 6.108,2.068 6.108,5.579 0,8.417 -15.775,6.253 -15.775,17.122 0,4.81 3.655,8.61 9.619,8.61 6.012,0 8.705,-4.185 9.522,-6.446 l -3.27,-1.346 c -0.77,1.683 -2.597,4.232 -6.3,4.232 -3.704,0 -5.676,-2.26 -5.676,-5.05 0,-7.695 15.824,-6.108 15.824,-16.882 0,-5.29 -3.896,-9.426 -10.197,-9.426 -6.541,0 -9.474,4.184 -10.532,7.407 z" /></g><g
     transform="matrix(0.53107342,0,0,-0.53107342,126.24613,77.578038)"
     id="g32"><path
       id="path34"
       style="fill:#ec1d27;fill-opacity:1;fill-rule:nonzero;stroke:none"
       d="m 0,0 c 3.944,0 6.396,1.828 6.396,6.253 0,3.559 -1.875,5.915 -6.636,5.915 H -4.665 V 0 Z M -8.561,15.631 H 0 c 6.878,0 10.485,-3.463 10.485,-9.33 0,-3.992 -1.971,-7.648 -5.868,-8.898 l 8.369,-15.439 H 8.657 L 1.059,-3.415 h -5.724 v -14.621 h -3.896 z" /></g><g
     transform="matrix(0.53107342,0,0,-0.53107342,143.79173,64.52574)"
     id="g36"><path
       id="path38"
       style="fill:#ec1d27;fill-opacity:1;fill-rule:nonzero;stroke:none"
       d="M 0,0 H 4.185 L -0.097,-6.83 H -3.415 Z M -1.539,-13.227 -6.926,-28.328 H 3.896 Z m -6.589,-18.468 -4.041,-10.918 h -3.943 L -3.511,-8.946 H 0.433 L 13.034,-42.613 H 9.09 l -4.04,10.918 z" /></g><g
     transform="matrix(0.53107342,0,0,-0.53107342,162.31012,83.069496)"
     id="g40"><path
       id="path42"
       style="fill:#ec1d27;fill-opacity:1;fill-rule:nonzero;stroke:none"
       d="m 0,0 12.12,25.972 h 4.954 V -7.695 H 13.322 V 20.104 L 1.924,-4.617 H -1.924 L -13.322,20.104 V -7.695 h -3.752 v 33.667 h 5.002 z" /></g><g
     transform="matrix(0.53107342,0,0,-0.53107342,175.22372,69.276616)"
     id="g44"><path
       id="path46"
       style="fill:#ec1d27;fill-opacity:1;fill-rule:nonzero;stroke:none"
       d="M 0,0 H 3.896 V -15.487 L 17.314,0 h 4.713 L 7.888,-16.112 22.604,-33.667 h -4.76 l -13.948,16.93 v -16.93 H 0 Z" /></g><g
     transform="matrix(0.53107342,0,0,-0.53107342,198.17603,85.547219)"
     id="g48"><path
       id="path50"
       style="fill:#ec1d27;fill-opacity:1;fill-rule:nonzero;stroke:none"
       d="m 0,0 c 7.455,0 13.13,5.82 13.13,13.804 0,7.887 -5.675,13.803 -13.13,13.803 -7.455,0 -13.131,-5.916 -13.131,-13.803 C -13.131,5.82 -7.455,0 0,0 m 0,31.263 c 9.812,0 17.17,-7.648 17.17,-17.459 0,-9.908 -7.406,-17.459 -17.219,-17.459 -9.763,0 -17.121,7.455 -17.121,17.459 0,9.907 7.406,17.459 17.17,17.459" /></g><g
     transform="matrix(0.53107342,0,0,-0.53107342,215.13304,87.156265)"
     id="g52"><path
       id="path54"
       style="fill:#ec1d27;fill-opacity:1;fill-rule:nonzero;stroke:none"
       d="m 0,0 -12.794,33.667 h 4.28 L 2.068,4.617 12.697,33.667 h 4.281 L 4.184,0 Z" /></g><g
     transform="matrix(0.53107342,0,0,-0.53107342,230.17385,71.550036)"
     id="g56"><path
       id="path58"
       style="fill:#ec1d27;fill-opacity:1;fill-rule:nonzero;stroke:none"
       d="M 0,0 -5.387,-15.102 H 5.435 Z m -6.59,-18.469 -4.039,-10.917 h -3.944 l 12.6,33.667 h 3.945 l 12.6,-33.667 h -3.943 l -4.04,10.917 z" /></g><g
     transform="matrix(0.53107342,0,0,-0.53107342,108.65135,112.20307)"
     id="g60"><path
       id="path62"
       style="fill:#ec1d27;fill-opacity:1;fill-rule:nonzero;stroke:none"
       d="m 0,0 c 0.914,-2.598 2.934,-5.242 7.358,-5.242 3.559,0 6.109,2.067 6.109,5.578 0,8.417 -15.776,6.253 -15.776,17.123 0,4.809 3.656,8.608 9.62,8.608 6.011,0 8.705,-4.184 9.522,-6.444 l -3.27,-1.347 c -0.77,1.683 -2.597,4.233 -6.301,4.233 -3.703,0 -5.675,-2.261 -5.675,-5.05 0,-7.695 15.823,-6.108 15.823,-16.882 0,-5.291 -3.895,-9.427 -10.196,-9.427 -6.541,0 -9.475,4.184 -10.533,7.407 z" /></g><g
     transform="matrix(0.53107342,0,0,-0.53107342,129.82521,114.96168)"
     id="g64"><path
       id="path66"
       style="fill:#ec1d27;fill-opacity:1;fill-rule:nonzero;stroke:none"
       d="M 0,0 C 7.455,0 13.13,5.819 13.13,13.804 13.13,21.69 7.455,27.606 0,27.606 -7.455,27.606 -13.13,21.69 -13.13,13.804 -13.13,5.819 -7.455,0 0,0 m 0,31.262 c 9.812,0 17.171,-7.648 17.171,-17.458 0,-9.908 -7.407,-17.459 -17.219,-17.459 -9.764,0 -17.122,7.455 -17.122,17.459 0,9.907 7.407,17.458 17.17,17.458" /></g><g
     transform="matrix(0.53107342,0,0,-0.53107342,147.38688,114.75732)"
     id="g68"><path
       id="path70"
       style="fill:#ec1d27;fill-opacity:1;fill-rule:nonzero;stroke:none"
       d="m 0,0 c 3.991,0 6.781,1.924 6.781,6.252 0,4.425 -2.933,6.156 -6.829,6.156 H -5.724 V 0 Z m 0.096,15.679 c 3.367,0 5.579,2.26 5.579,5.675 0,3.319 -1.972,5.435 -5.579,5.435 h -5.82 v -11.11 z m -9.715,14.573 h 9.282 c 6.397,0 10.004,-3.271 10.004,-8.609 0,-3.367 -1.684,-5.964 -4.328,-7.407 3.222,-1.154 5.482,-3.992 5.482,-8.08 0,-6.06 -4.377,-9.571 -10.148,-9.571 H -9.619 Z" /></g><g
     transform="matrix(0.53107342,0,0,-0.53107342,165.29389,114.96168)"
     id="g72"><path
       id="path74"
       style="fill:#ec1d27;fill-opacity:1;fill-rule:nonzero;stroke:none"
       d="M 0,0 C 7.454,0 13.13,5.819 13.13,13.804 13.13,21.69 7.454,27.606 0,27.606 -7.455,27.606 -13.13,21.69 -13.13,13.804 -13.13,5.819 -7.455,0 0,0 m 0,31.262 c 9.812,0 17.17,-7.648 17.17,-17.458 0,-9.908 -7.407,-17.459 -17.218,-17.459 -9.764,0 -17.123,7.455 -17.123,17.459 0,9.907 7.407,17.458 17.171,17.458" /></g><g
     transform="matrix(0.53107342,0,0,-0.53107342,180.9548,100.5817)"
     id="g76"><path
       id="path78"
       style="fill:#ec1d27;fill-opacity:1;fill-rule:nonzero;stroke:none"
       d="M 0,0 H -9.09 V 3.56 H 12.938 V 0 H 3.896 V -30.107 H 0 Z" /></g><g
     transform="matrix(0.53107342,0,0,-0.53107342,191.60365,98.691286)"
     id="g80"><path
       id="path82"
       style="fill:#ec1d27;fill-opacity:1;fill-rule:nonzero;stroke:none"
       d="M 0,0 H 3.896 V -15.487 L 17.314,0 h 4.713 L 7.888,-16.112 22.604,-33.667 h -4.761 l -13.947,16.93 v -16.93 H 0 Z" /></g><g
     transform="matrix(0.53107342,0,0,-0.53107342,213.89944,100.96444)"
     id="g84"><path
       id="path86"
       style="fill:#ec1d27;fill-opacity:1;fill-rule:nonzero;stroke:none"
       d="M 0,0 -5.387,-15.103 H 5.435 Z m -6.589,-18.469 -4.041,-10.918 h -3.943 L -1.972,4.28 h 3.944 l 12.601,-33.667 h -3.944 l -4.04,10.918 z" /></g></svg>
