<?xml version="1.0" encoding="UTF-8" standalone="no"?>
<svg
   xmlns:dc="http://purl.org/dc/elements/1.1/"
   xmlns:cc="http://creativecommons.org/ns#"
   xmlns:rdf="http://www.w3.org/1999/02/22-rdf-syntax-ns#"
   xmlns:svg="http://www.w3.org/2000/svg"
   xmlns="http://www.w3.org/2000/svg"
   id="svg25"
   version="1.1"
   fill="none"
   viewBox="0 0 124 43"
   height="43"
   width="124">
  <title
     id="title867">JB edit</title>
  <metadata
     id="metadata29">
    <rdf:RDF>
      <cc:Work
         rdf:about="">
        <dc:format>image/svg+xml</dc:format>
        <dc:type
           rdf:resource="http://purl.org/dc/dcmitype/StillImage" />
        <dc:title>JB edit</dc:title>
      </cc:Work>
    </rdf:RDF>
  </metadata>
  <path
     style="fill:#ffffff"
     d="m 16.6786,21.5336 c 0,5.7096 -3.8234,9.4735 -9.63062,9.4735 H -0.424561 V 12.0645 H 7.04798 c 5.79022,0 9.63062,3.7596 9.63062,9.4691 z m -3.7596,0 c 0,-3.6789 -2.4088,-6.1131 -5.87102,-6.1131 H 3.31384 V 27.651 h 3.73414 c 3.48772,0 5.87102,-2.4172 5.87102,-6.1174 z"
     fill="#ffffff"
     id="path2" />
  <path
     style="fill:#ffffff"
     d="m 26.3943,24.6475 h -3.2754 v 6.3723 H 19.3848 V 12.0645 h 9.0316 c 4.1165,0 6.7673,2.5489 6.7673,6.3297 0,3.0332 -1.6992,5.2253 -4.6262,5.9815 l 5.5991,6.6314 h -4.5923 z m 1.7587,-9.2567 h -5.0596 v 6.0196 h 5.0596 c 2.0816,0 3.3008,-1.113 3.3008,-3.0034 0,-1.8905 -1.2192,-3.0162 -3.3008,-3.0162 z"
     fill="#ffffff"
     id="path4" />
  <path
     style="fill:#ffffff"
     d="m 52.4907,27.3239 h -9.7708 l -1.559,3.6832 H 37.0996 L 45.596,12.0645 h 4.0612 l 8.4964,18.9426 h -4.0868 z m -8.3901,-3.3008 h 7.035 l -3.5175,-8.2542 z"
     fill="#ffffff"
     id="path6" />
  <path
     style="fill:#ffffff"
     d="M 80.3205,12.0645 V 31.0071 H 76.5864 V 18.2073 L 70.469,25.854 H 69.7128 L 63.5954,18.2073 V 31.0071 H 59.8528 V 12.0645 h 3.356 l 6.8736,8.6577 6.8523,-8.6577 z"
     fill="#ffffff"
     id="path8" />
  <path
     style="fill:#ffffff"
     d="m 123.575,31.0071 h -4.545 l -2.515,-3.7087 -2.031,-3.1649 -2.001,3.1394 -2.519,3.7342 h -4.545 l 6.559,-9.5967 -6.245,-9.3459 h 4.414 l 2.328,3.5174 1.975,3.1904 2.056,-3.1904 2.328,-3.5174 h 4.436 l -6.33,9.3077 z"
     fill="#ffffff"
     id="path10" />
  <g
     style="fill:#2e3192;fill-opacity:1"
     id="g42">
    <path
       style="fill:#2e3192;fill-opacity:1"
       id="path12"
       fill="#d73231"
       d="m 102.335,19.5711 c -0.442,-1.7263 -1.446,-3.2564 -2.8539,-4.3491 -1.4076,-1.0927 -3.1388,-1.6858 -4.9208,-1.6858 -1.7819,0 -3.5132,0.5931 -4.9208,1.6858 -1.4076,1.0927 -2.4114,2.6228 -2.8533,4.3491 L 83.5491,18.747 c 0.6241,-2.4467 2.0453,-4.6158 4.0392,-6.165 1.9939,-1.5491 4.447,-2.3901 6.972,-2.3901 2.5251,0 4.9782,0.841 6.9717,2.3901 1.994,1.5492 3.416,3.7183 4.04,6.165 z" />
    <path
       style="fill:#2e3192;fill-opacity:1"
       id="path14"
       fill="#d73231"
       d="m 94.5732,32.923 c -2.412,0.0064 -4.7631,-0.7574 -6.7108,-2.1802 -1.9477,-1.4227 -3.3904,-3.4302 -4.1178,-5.7299 l 3.1862,-1.0153 c 0.5165,1.6226 1.5358,3.0388 2.9105,4.0439 1.3746,1.005 3.0333,1.5467 4.7362,1.5467 1.7028,0 3.3616,-0.5417 4.7362,-1.5467 1.3743,-1.0051 2.3943,-2.4213 2.9103,-4.0439 l 3.182,1.0153 c -0.727,2.3001 -2.169,4.3079 -4.117,5.7308 -1.9479,1.4229 -4.2993,2.1864 -6.7115,2.1793" />
    <path
       style="fill:#2e3192;fill-opacity:1"
       id="path16"
       fill="#d73231"
       d="m 92.1814,24.5459 c 0,0.6415 0.4248,0.8879 0.9898,0.5438 l 4.6518,-2.9058 c 0.1201,-0.052 0.2225,-0.138 0.2944,-0.2475 0.0719,-0.1094 0.1102,-0.2375 0.1102,-0.3685 0,-0.1309 -0.0383,-0.259 -0.1102,-0.3685 C 98.0455,21.09 97.9431,21.004 97.823,20.9519 l -4.6518,-2.91 c -0.548,-0.3398 -0.9898,-0.0934 -0.9898,0.5481 z" />
  </g>
  <defs
     id="defs23" />
</svg>
