<?xml version="1.0" encoding="UTF-8" standalone="no"?>
<svg
   xmlns:dc="http://purl.org/dc/elements/1.1/"
   xmlns:cc="http://creativecommons.org/ns#"
   xmlns:rdf="http://www.w3.org/1999/02/22-rdf-syntax-ns#"
   xmlns:svg="http://www.w3.org/2000/svg"
   xmlns="http://www.w3.org/2000/svg"
   xmlns:sodipodi="http://sodipodi.sourceforge.net/DTD/sodipodi-0.dtd"
   xmlns:inkscape="http://www.inkscape.org/namespaces/inkscape"
   inkscape:version="1.0 (4035a4fb49, 2020-05-01)"
   sodipodi:docname="separator.svg"
   viewBox="0 0 347.91 36.95"
   version="1.1"
   id="svg180">
  <sodipodi:namedview
     inkscape:current-layer="svg180"
     inkscape:window-maximized="1"
     inkscape:window-y="-9"
     inkscape:window-x="-9"
     inkscape:cy="44.573339"
     inkscape:cx="168.28412"
     inkscape:zoom="1.8818663"
     showgrid="false"
     id="namedview99"
     inkscape:window-height="823"
     inkscape:window-width="1600"
     inkscape:pageshadow="2"
     inkscape:pageopacity="0"
     guidetolerance="10"
     gridtolerance="10"
     objecttolerance="10"
     borderopacity="1"
     bordercolor="#666666"
     pagecolor="#ffffff" />
  <metadata
     id="metadata184">
    <rdf:RDF>
      <cc:Work
         rdf:about="">
        <dc:format>image/svg+xml</dc:format>
        <dc:type
           rdf:resource="http://purl.org/dc/dcmitype/StillImage" />
        <dc:title>květový separátor</dc:title>
      </cc:Work>
    </rdf:RDF>
  </metadata>
  <defs
     id="defs4">
    <style
       id="style2">.cls-1{fill:#293788;}</style>
  </defs>
  <title
     id="title6">květový separátor</title>
  <path
     style="fill:#2e3192;fill-opacity:1"
     d="m 38.25,18.47 a 3.84,3.84 0 0 0 7.55,1 h 8.06 l -5.71,5.69 a 3.86,3.86 0 0 0 -1.91,-0.53 3.83,3.83 0 1 0 2.76,6.53 3.77,3.77 0 0 0 1.13,-2.71 3.7,3.7 0 0 0 -0.53,-1.9 l 5.71,-5.69 v 8 a 3.84,3.84 0 1 0 2,0 v -8 L 63,26.55 a 3.89,3.89 0 1 0 1.4,-1.4 l -5.71,-5.69 h 8.01 a 3.83,3.83 0 1 0 0,-2 h -8.06 l 5.7,-5.69 A 3.77,3.77 0 0 0 66.26,12.3 3.84,3.84 0 1 0 63,10.4 l -5.71,5.69 v -8 a 3.84,3.84 0 1 0 -2,0 v 8 L 49.55,10.4 a 3.76,3.76 0 0 0 0.53,-1.91 3.85,3.85 0 1 0 -3.84,3.83 3.76,3.76 0 0 0 1.91,-0.53 l 5.71,5.69 H 45.8 a 3.84,3.84 0 0 0 -7.55,1 z m 9.85,-10 a 1.84,1.84 0 0 1 -0.55,1.31 1.91,1.91 0 0 1 -2.63,0 1.86,1.86 0 1 1 3.18,-1.29 z m 8.15,-2.28 a 1.86,1.86 0 1 1 1.86,-1.85 1.85,1.85 0 0 1 -1.86,1.87 z m 8.69,3.61 a 1.86,1.86 0 1 1 2.63,0 1.91,1.91 0 0 1 -2.63,0 z m 3.6,8.67 a 1.86,1.86 0 1 1 1.86,1.86 1.86,1.86 0 0 1 -1.86,-1.86 z m -3.6,8.67 a 1.86,1.86 0 0 1 2.63,2.62 1.89,1.89 0 0 1 -2.63,0 1.86,1.86 0 0 1 0,-2.62 z m -8.69,3.59 a 1.86,1.86 0 1 1 -1.86,1.86 1.87,1.87 0 0 1 1.86,-1.86 z m -10,-4.13 a 1.86,1.86 0 0 1 1.86,1.85 1.82,1.82 0 0 1 -0.55,1.31 1.89,1.89 0 0 1 -2.63,0 1.85,1.85 0 0 1 1.32,-3.16 z m -6,-8.13 a 1.86,1.86 0 1 1 1.86,1.86 1.85,1.85 0 0 1 -1.88,-1.86 z"
     class="cls-1"
     id="flower" />
  <g
     style="fill:#2e3192;fill-opacity:1"
     data-name="flower"
     id="flower-2">
    <path
       style="fill:#2e3192;fill-opacity:1"
       id="path9"
       d="m 91.44,14.45 a 1.42,1.42 0 1 1 0,2 1.41,1.41 0 0 1 0,-2 z"
       class="cls-1" />
    <path
       style="fill:#2e3192;fill-opacity:1"
       id="path11"
       d="m 97.5,20.49 a 1.42,1.42 0 0 1 2,2 1.43,1.43 0 0 1 -2,0 1.41,1.41 0 0 1 0,-2 z"
       class="cls-1" />
    <path
       style="fill:#2e3192;fill-opacity:1"
       id="path13"
       d="m 97.5,16.46 a 1.42,1.42 0 1 1 2,0 1.41,1.41 0 0 1 -2,0 z"
       class="cls-1" />
    <path
       style="fill:#2e3192;fill-opacity:1"
       id="path15"
       d="m 91.44,20.49 a 1.42,1.42 0 1 1 0,2 1.42,1.42 0 0 1 0,-2 z"
       class="cls-1" />
    <path
       style="fill:#2e3192;fill-opacity:1"
       id="path17"
       d="m 95.47,12.78 a 1.42,1.42 0 1 1 -1.42,1.42 1.43,1.43 0 0 1 1.42,-1.42 z"
       class="cls-1" />
    <path
       style="fill:#2e3192;fill-opacity:1"
       id="path19"
       d="m 95.47,21.33 a 1.42,1.42 0 1 1 -1.42,1.41 1.42,1.42 0 0 1 1.42,-1.41 z"
       class="cls-1" />
    <path
       style="fill:#2e3192;fill-opacity:1"
       id="path21"
       d="m 99.76,17.05 a 1.42,1.42 0 1 1 -1.42,1.42 1.43,1.43 0 0 1 1.42,-1.42 z"
       class="cls-1" />
    <path
       style="fill:#2e3192;fill-opacity:1"
       id="path23"
       d="m 91.19,19.89 a 1.42,1.42 0 1 1 1.42,-1.42 1.42,1.42 0 0 1 -1.42,1.42 z"
       class="cls-1" />
    <path
       style="fill:#2e3192;fill-opacity:1"
       id="path25"
       d="m 94.05,19.9 a 2,2 0 1 0 0,-2.85 2,2 0 0 0 0,2.85 z"
       class="cls-1" />
    <path
       style="fill:#2e3192;fill-opacity:1"
       id="path27"
       d="m 100.76,27.6 a 10.52,10.52 0 0 0 5.24,-9.13 6.25,6.25 0 0 1 5.44,2.47 6.37,6.37 0 0 1 0,6.77 6.43,6.43 0 0 1 -5.9,3.35 6.22,6.22 0 0 1 -4.78,-3.46 z"
       class="cls-1" />
    <path
       style="fill:#2e3192;fill-opacity:1"
       id="path29"
       d="m 90.2,27.6 a 10.64,10.64 0 0 0 10.56,0 6.19,6.19 0 0 1 0.58,5.93 6.75,6.75 0 0 1 -11.73,0 6.17,6.17 0 0 1 0.59,-5.93 z"
       class="cls-1" />
    <path
       style="fill:#2e3192;fill-opacity:1"
       id="path31"
       d="m 84.91,18.47 a 10.5,10.5 0 0 0 5.29,9.13 6.23,6.23 0 0 1 -4.87,3.46 6.43,6.43 0 0 1 -5.9,-3.35 6.37,6.37 0 0 1 0,-6.77 6.25,6.25 0 0 1 5.48,-2.47 z"
       class="cls-1" />
    <path
       style="fill:#2e3192;fill-opacity:1"
       id="path33"
       d="m 90.19,9.34 a 10.64,10.64 0 0 0 -3.87,3.87 10.52,10.52 0 0 0 -1.41,5.26 6.22,6.22 0 0 1 -5.44,-2.47 6.39,6.39 0 0 1 0,-6.78 6.44,6.44 0 0 1 5.9,-3.34 6.21,6.21 0 0 1 4.82,3.46 z"
       class="cls-1" />
    <path
       style="fill:#2e3192;fill-opacity:1"
       id="path35"
       d="m 100.75,9.34 a 10.64,10.64 0 0 0 -10.56,0 6.18,6.18 0 0 1 -0.58,-5.92 6.74,6.74 0 0 1 11.73,0 6.15,6.15 0 0 1 -0.59,5.92 z"
       class="cls-1" />
    <path
       style="fill:#2e3192;fill-opacity:1"
       id="path37"
       d="m 106,18.47 a 10.53,10.53 0 0 0 -5.29,-9.13 6.24,6.24 0 0 1 4.87,-3.45 6.42,6.42 0 0 1 5.9,3.34 6.39,6.39 0 0 1 0,6.78 6.24,6.24 0 0 1 -5.48,2.46 z"
       class="cls-1" />
    <path
       style="fill:#2e3192;fill-opacity:1"
       id="path39"
       d="m 95.47,27.46 a 9,9 0 1 1 9,-9 9,9 0 0 1 -9,9 z m 0,-16.59 a 7.6,7.6 0 1 0 7.63,7.6 7.62,7.62 0 0 0 -7.63,-7.6 z"
       class="cls-1" />
  </g>
  <g
     style="fill:#2e3192;fill-opacity:1"
     data-name="flower"
     id="flower-3">
    <path
       style="fill:#2e3192;fill-opacity:1"
       id="path42"
       d="m 13,14.45 a 1.43,1.43 0 0 1 2,0 1.41,1.41 0 0 1 0,2 1.42,1.42 0 1 1 -2,-2 z"
       class="cls-1" />
    <path
       style="fill:#2e3192;fill-opacity:1"
       id="path44"
       d="m 19,20.49 a 1.42,1.42 0 1 1 0,2 1.42,1.42 0 0 1 0,-2 z"
       class="cls-1" />
    <path
       style="fill:#2e3192;fill-opacity:1"
       id="path46"
       d="m 19,16.46 a 1.41,1.41 0 0 1 0,-2 1.43,1.43 0 0 1 2,0 1.42,1.42 0 0 1 -2,2 z"
       class="cls-1" />
    <path
       style="fill:#2e3192;fill-opacity:1"
       id="path48"
       d="m 13,20.49 a 1.42,1.42 0 0 1 2,0 1.4,1.4 0 0 1 0,2 1.42,1.42 0 0 1 -2,-2 z"
       class="cls-1" />
    <path
       style="fill:#2e3192;fill-opacity:1"
       id="path50"
       d="M 17,12.79 A 1.42,1.42 0 1 1 15.57,14.21 1.42,1.42 0 0 1 17,12.79 Z"
       class="cls-1" />
    <path
       style="fill:#2e3192;fill-opacity:1"
       id="path52"
       d="M 17,21.33 A 1.42,1.42 0 1 1 15.58,22.75 1.43,1.43 0 0 1 17,21.33 Z"
       class="cls-1" />
    <path
       style="fill:#2e3192;fill-opacity:1"
       id="path54"
       d="m 21.28,17.06 a 1.42,1.42 0 1 1 -1.43,1.42 1.42,1.42 0 0 1 1.43,-1.42 z"
       class="cls-1" />
    <path
       style="fill:#2e3192;fill-opacity:1"
       id="path56"
       d="m 12.71,19.9 a 1.42,1.42 0 1 1 1.42,-1.42 1.43,1.43 0 0 1 -1.42,1.42 z"
       class="cls-1" />
    <path
       style="fill:#2e3192;fill-opacity:1"
       id="path58"
       d="m 15.57,19.9 a 2,2 0 1 0 0,-2.85 2,2 0 0 0 0,2.85 z"
       class="cls-1" />
    <path
       style="fill:#2e3192;fill-opacity:1"
       id="path60"
       d="m 22.27,27.6 a 10.64,10.64 0 0 0 3.88,-3.86 10.52,10.52 0 0 0 1.41,-5.26 6.22,6.22 0 0 1 5.44,2.46 6.39,6.39 0 0 1 0,6.78 6.44,6.44 0 0 1 -5.9,3.34 6.21,6.21 0 0 1 -4.83,-3.46 z"
       class="cls-1" />
    <path
       style="fill:#2e3192;fill-opacity:1"
       id="path62"
       d="m 11.71,27.6 a 10.59,10.59 0 0 0 10.56,0 6.17,6.17 0 0 1 0.58,5.93 A 6.41,6.41 0 0 1 17,37 6.44,6.44 0 0 1 11.13,33.58 6.2,6.2 0 0 1 11.71,27.6 Z"
       class="cls-1" />
    <path
       style="fill:#2e3192;fill-opacity:1"
       id="path64"
       d="M 6.43,18.48 A 10.52,10.52 0 0 0 11.71,27.6 6.2,6.2 0 0 1 6.85,31.06 6.44,6.44 0 0 1 1,27.72 6.39,6.39 0 0 1 1,20.94 6.22,6.22 0 0 1 6.43,18.48 Z"
       class="cls-1" />
    <path
       style="fill:#2e3192;fill-opacity:1"
       id="path66"
       d="M 11.71,9.35 A 10.69,10.69 0 0 0 7.84,13.21 10.56,10.56 0 0 0 6.43,18.48 6.25,6.25 0 0 1 1,16 6.37,6.37 0 0 1 1,9.24 6.43,6.43 0 0 1 6.9,5.89 6.22,6.22 0 0 1 11.71,9.35 Z"
       class="cls-1" />
    <path
       style="fill:#2e3192;fill-opacity:1"
       id="path68"
       d="M 22.27,9.35 A 10.64,10.64 0 0 0 11.71,9.35 6.19,6.19 0 0 1 11.13,3.42 6.44,6.44 0 0 1 17,0 6.42,6.42 0 0 1 22.86,3.42 6.17,6.17 0 0 1 22.27,9.35 Z"
       class="cls-1" />
    <path
       style="fill:#2e3192;fill-opacity:1"
       id="path70"
       d="M 27.56,18.48 A 10.5,10.5 0 0 0 22.27,9.35 6.21,6.21 0 0 1 27.14,5.89 6.43,6.43 0 0 1 33,9.24 6.37,6.37 0 0 1 33,16 6.25,6.25 0 0 1 27.56,18.48 Z"
       class="cls-1" />
    <path
       style="fill:#2e3192;fill-opacity:1"
       id="path72"
       d="m 17,27.46 a 9,9 0 1 1 9,-9 9,9 0 0 1 -9,9 z m 0,-16.58 a 7.6,7.6 0 1 0 7.63,7.6 7.62,7.62 0 0 0 -7.63,-7.6 z"
       class="cls-1" />
  </g>
  <path
     style="fill:#2e3192;fill-opacity:1"
     d="m 116.73,18.47 a 3.84,3.84 0 0 0 7.55,1 h 8.06 l -5.71,5.69 a 3.86,3.86 0 0 0 -1.91,-0.53 3.83,3.83 0 1 0 2.71,6.54 3.77,3.77 0 0 0 1.13,-2.71 3.7,3.7 0 0 0 -0.53,-1.9 l 5.71,-5.69 v 8 a 3.84,3.84 0 1 0 2,0 v -8 l 5.7,5.69 a 3.93,3.93 0 1 0 1.41,-1.4 l -5.71,-5.69 h 8.06 a 3.83,3.83 0 1 0 0,-2 h -8.06 l 5.7,-5.69 a 3.77,3.77 0 0 0 1.92,0.53 3.84,3.84 0 1 0 -3.32,-1.92 l -5.7,5.69 v -8 a 3.84,3.84 0 1 0 -2,0 v 8 L 128,10.4 a 3.76,3.76 0 0 0 0.53,-1.91 3.85,3.85 0 1 0 -3.84,3.83 3.76,3.76 0 0 0 1.91,-0.53 l 5.71,5.69 h -8.06 a 3.84,3.84 0 0 0 -7.55,1 z m 9.85,-10 A 1.84,1.84 0 0 1 126,9.8 a 1.91,1.91 0 0 1 -2.63,0 1.85,1.85 0 0 1 1.32,-3.16 1.83,1.83 0 0 1 1.31,0.54 1.86,1.86 0 0 1 0.58,1.31 z m 8.15,-2.28 a 1.86,1.86 0 1 1 1.86,-1.85 1.85,1.85 0 0 1 -1.86,1.87 z m 8.69,3.59 a 1.86,1.86 0 1 1 2.63,0 1.91,1.91 0 0 1 -2.63,0.02 z m 3.6,8.67 a 1.86,1.86 0 1 1 1.87,1.86 1.86,1.86 0 0 1 -1.89,-1.84 z m -3.6,8.67 a 1.86,1.86 0 1 1 2.63,2.62 1.89,1.89 0 0 1 -2.63,0 1.86,1.86 0 0 1 0,-2.6 z m -8.69,3.59 a 1.86,1.86 0 1 1 -1.86,1.86 1.87,1.87 0 0 1 1.86,-1.84 z m -10,-4.13 a 1.83,1.83 0 0 1 1.31,0.54 1.86,1.86 0 0 1 0.55,1.31 1.82,1.82 0 0 1 -0.55,1.31 1.89,1.89 0 0 1 -2.63,0 1.85,1.85 0 0 1 1.32,-3.16 z m -6,-8.13 a 1.86,1.86 0 1 1 1.86,1.86 1.85,1.85 0 0 1 -1.88,-1.84 z"
     class="cls-1"
     data-name="flower"
     id="flower-4" />
  <path
     style="fill:#2e3192;fill-opacity:1"
     d="m 195.21,18.47 a 3.84,3.84 0 0 0 7.55,1 h 8.06 l -5.71,5.69 a 3.86,3.86 0 0 0 -1.91,-0.53 3.83,3.83 0 1 0 2.71,6.54 3.77,3.77 0 0 0 1.09,-2.72 3.7,3.7 0 0 0 -0.53,-1.9 l 5.71,-5.69 v 8 a 3.84,3.84 0 1 0 2,0 v -8 l 5.71,5.69 a 3.89,3.89 0 1 0 1.4,-1.4 l -5.71,-5.69 h 8.06 a 3.83,3.83 0 1 0 0,-2 h -8.04 l 5.7,-5.69 a 3.77,3.77 0 0 0 1.92,0.53 3.84,3.84 0 1 0 -3.31,-1.92 l -5.71,5.69 v -8 a 3.84,3.84 0 1 0 -2,0 v 8 l -5.71,-5.69 a 3.76,3.76 0 0 0 0.51,-1.89 3.85,3.85 0 0 0 -6.56,-2.71 3.83,3.83 0 0 0 2.72,6.54 3.76,3.76 0 0 0 1.91,-0.53 l 5.71,5.69 h -8.06 a 3.84,3.84 0 0 0 -7.55,1 z m 9.85,-10 a 1.84,1.84 0 0 1 -0.55,1.31 1.91,1.91 0 0 1 -2.63,0 1.86,1.86 0 1 1 3.18,-1.31 z m 8.15,-2.28 a 1.86,1.86 0 1 1 1.86,-1.85 1.85,1.85 0 0 1 -1.86,1.87 z m 8.69,3.61 a 1.86,1.86 0 1 1 2.63,0 1.91,1.91 0 0 1 -2.63,0 z m 3.6,8.67 a 1.86,1.86 0 1 1 1.87,1.86 1.86,1.86 0 0 1 -1.87,-1.86 z m -3.6,8.67 a 1.86,1.86 0 0 1 2.63,2.62 1.89,1.89 0 0 1 -2.63,0 1.86,1.86 0 0 1 0,-2.62 z m -8.69,3.59 a 1.86,1.86 0 1 1 -1.86,1.86 1.87,1.87 0 0 1 1.86,-1.86 z m -10,-4.13 a 1.86,1.86 0 0 1 1.86,1.85 1.82,1.82 0 0 1 -0.55,1.31 1.89,1.89 0 0 1 -2.63,0 1.85,1.85 0 0 1 1.32,-3.16 z m -6,-8.13 a 1.86,1.86 0 1 1 1.86,1.86 1.86,1.86 0 0 1 -1.88,-1.86 z"
     class="cls-1"
     data-name="flower"
     id="flower-5" />
  <g
     style="fill:#2e3192;fill-opacity:1"
     data-name="flower"
     id="flower-6">
    <path
       style="fill:#2e3192;fill-opacity:1"
       id="path77"
       d="m 248.4,14.45 a 1.42,1.42 0 1 1 0,2 1.41,1.41 0 0 1 0,-2 z"
       class="cls-1" />
    <path
       style="fill:#2e3192;fill-opacity:1"
       id="path79"
       d="m 254.46,20.49 a 1.42,1.42 0 1 1 2,2 1.42,1.42 0 0 1 -2,-2 z"
       class="cls-1" />
    <path
       style="fill:#2e3192;fill-opacity:1"
       id="path81"
       d="m 254.46,16.46 a 1.42,1.42 0 1 1 2,0 1.41,1.41 0 0 1 -2,0 z"
       class="cls-1" />
    <path
       style="fill:#2e3192;fill-opacity:1"
       id="path83"
       d="m 248.4,20.49 a 1.42,1.42 0 1 1 0,2 1.42,1.42 0 0 1 0,-2 z"
       class="cls-1" />
    <path
       style="fill:#2e3192;fill-opacity:1"
       id="path85"
       d="M 252.44,12.78 A 1.42,1.42 0 1 1 251,14.2 1.43,1.43 0 0 1 252.44,12.78 Z"
       class="cls-1" />
    <path
       style="fill:#2e3192;fill-opacity:1"
       id="path87"
       d="m 252.44,21.33 a 1.42,1.42 0 1 1 -1.44,1.41 1.42,1.42 0 0 1 1.44,-1.41 z"
       class="cls-1" />
    <path
       style="fill:#2e3192;fill-opacity:1"
       id="path89"
       d="m 256.72,17.05 a 1.42,1.42 0 1 1 -1.42,1.42 1.42,1.42 0 0 1 1.42,-1.42 z"
       class="cls-1" />
    <path
       style="fill:#2e3192;fill-opacity:1"
       id="path91"
       d="m 248.15,19.89 a 1.42,1.42 0 1 1 1.43,-1.42 1.42,1.42 0 0 1 -1.43,1.42 z"
       class="cls-1" />
    <path
       style="fill:#2e3192;fill-opacity:1"
       id="path93"
       d="m 251,19.9 a 2,2 0 1 0 0,-2.85 2,2 0 0 0 0,2.85 z"
       class="cls-1" />
    <path
       style="fill:#2e3192;fill-opacity:1"
       id="path95"
       d="m 257.72,27.6 a 10.69,10.69 0 0 0 3.87,-3.86 10.48,10.48 0 0 0 1.41,-5.27 6.25,6.25 0 0 1 5.44,2.47 6.37,6.37 0 0 1 0,6.77 6.42,6.42 0 0 1 -5.9,3.35 6.22,6.22 0 0 1 -4.82,-3.46 z"
       class="cls-1" />
    <path
       style="fill:#2e3192;fill-opacity:1"
       id="path97"
       d="m 247.16,27.6 a 10.64,10.64 0 0 0 10.56,0 6.19,6.19 0 0 1 0.58,5.93 6.74,6.74 0 0 1 -11.72,0 6.17,6.17 0 0 1 0.58,-5.93 z"
       class="cls-1" />
    <path
       style="fill:#2e3192;fill-opacity:1"
       id="path99"
       d="m 241.87,18.47 a 10.5,10.5 0 0 0 5.29,9.13 6.23,6.23 0 0 1 -4.87,3.46 6.43,6.43 0 0 1 -5.9,-3.35 6.37,6.37 0 0 1 0,-6.77 6.26,6.26 0 0 1 5.48,-2.47 z"
       class="cls-1" />
    <path
       style="fill:#2e3192;fill-opacity:1"
       id="path101"
       d="m 247.15,9.34 a 10.64,10.64 0 0 0 -3.87,3.87 10.52,10.52 0 0 0 -1.41,5.26 6.23,6.23 0 0 1 -5.44,-2.47 6.39,6.39 0 0 1 0,-6.78 6.44,6.44 0 0 1 5.9,-3.34 6.19,6.19 0 0 1 4.82,3.46 z"
       class="cls-1" />
    <path
       style="fill:#2e3192;fill-opacity:1"
       id="path103"
       d="m 257.72,9.34 a 10.66,10.66 0 0 0 -10.57,0 6.2,6.2 0 0 1 -0.58,-5.92 6.74,6.74 0 0 1 11.73,0 6.18,6.18 0 0 1 -0.58,5.92 z"
       class="cls-1" />
    <path
       style="fill:#2e3192;fill-opacity:1"
       id="path105"
       d="m 263,18.47 a 10.42,10.42 0 0 0 -1.41,-5.26 10.64,10.64 0 0 0 -3.87,-3.87 6.21,6.21 0 0 1 4.86,-3.45 6.41,6.41 0 0 1 5.9,3.34 6.39,6.39 0 0 1 0,6.78 6.24,6.24 0 0 1 -5.48,2.46 z"
       class="cls-1" />
    <path
       style="fill:#2e3192;fill-opacity:1"
       id="path107"
       d="m 252.44,27.46 a 9,9 0 1 1 9,-9 9,9 0 0 1 -9,9 z m 0,-16.59 a 7.6,7.6 0 1 0 7.62,7.6 7.62,7.62 0 0 0 -7.62,-7.6 z"
       class="cls-1" />
  </g>
  <g
     style="fill:#2e3192;fill-opacity:1"
     data-name="flower"
     id="flower-7">
    <path
       style="fill:#2e3192;fill-opacity:1"
       id="path110"
       d="m 326.88,14.45 a 1.42,1.42 0 1 1 0,2 1.42,1.42 0 0 1 0,-2 z"
       class="cls-1" />
    <path
       style="fill:#2e3192;fill-opacity:1"
       id="path112"
       d="m 332.94,20.49 a 1.42,1.42 0 1 1 2,2 1.42,1.42 0 0 1 -2,-2 z"
       class="cls-1" />
    <path
       style="fill:#2e3192;fill-opacity:1"
       id="path114"
       d="m 332.94,16.46 a 1.42,1.42 0 0 1 2,-2 1.4,1.4 0 0 1 0,2 1.42,1.42 0 0 1 -2,0 z"
       class="cls-1" />
    <path
       style="fill:#2e3192;fill-opacity:1"
       id="path116"
       d="m 326.88,20.49 a 1.42,1.42 0 1 1 0,2 1.43,1.43 0 0 1 0,-2 z"
       class="cls-1" />
    <path
       style="fill:#2e3192;fill-opacity:1"
       id="path118"
       d="m 330.92,12.78 a 1.42,1.42 0 1 1 -1.43,1.42 1.43,1.43 0 0 1 1.43,-1.42 z"
       class="cls-1" />
    <path
       style="fill:#2e3192;fill-opacity:1"
       id="path120"
       d="m 330.92,21.33 a 1.42,1.42 0 1 1 -1.42,1.41 1.4,1.4 0 0 1 1.42,-1.41 z"
       class="cls-1" />
    <path
       style="fill:#2e3192;fill-opacity:1"
       id="path122"
       d="m 335.2,17.05 a 1.42,1.42 0 1 1 -1.42,1.42 1.42,1.42 0 0 1 1.42,-1.42 z"
       class="cls-1" />
    <path
       style="fill:#2e3192;fill-opacity:1"
       id="path124"
       d="m 326.63,19.89 a 1.42,1.42 0 1 1 1.43,-1.42 1.42,1.42 0 0 1 -1.43,1.42 z"
       class="cls-1" />
    <path
       style="fill:#2e3192;fill-opacity:1"
       id="path126"
       d="m 329.49,19.9 a 2,2 0 1 0 0,-2.85 2,2 0 0 0 0,2.85 z"
       class="cls-1" />
    <path
       style="fill:#2e3192;fill-opacity:1"
       id="path128"
       d="m 336.2,27.6 a 10.61,10.61 0 0 0 3.87,-3.86 10.38,10.38 0 0 0 1.41,-5.27 6.25,6.25 0 0 1 5.44,2.47 6.35,6.35 0 0 1 0,6.77 6.42,6.42 0 0 1 -5.9,3.35 6.22,6.22 0 0 1 -4.82,-3.46 z"
       class="cls-1" />
    <path
       style="fill:#2e3192;fill-opacity:1"
       id="path130"
       d="m 325.64,27.6 a 10.64,10.64 0 0 0 10.56,0 6.19,6.19 0 0 1 0.58,5.93 6.74,6.74 0 0 1 -11.72,0 6.17,6.17 0 0 1 0.58,-5.93 z"
       class="cls-1" />
    <path
       style="fill:#2e3192;fill-opacity:1"
       id="path132"
       d="m 320.35,18.47 a 10.56,10.56 0 0 0 1.41,5.27 10.72,10.72 0 0 0 3.88,3.86 6.23,6.23 0 0 1 -4.87,3.46 6.43,6.43 0 0 1 -5.9,-3.35 6.4,6.4 0 0 1 0,-6.77 6.26,6.26 0 0 1 5.48,-2.47 z"
       class="cls-1" />
    <path
       style="fill:#2e3192;fill-opacity:1"
       id="path134"
       d="m 325.64,9.34 a 10.67,10.67 0 0 0 -3.88,3.87 10.52,10.52 0 0 0 -1.41,5.26 6.23,6.23 0 0 1 -5.44,-2.47 6.41,6.41 0 0 1 0,-6.78 6.44,6.44 0 0 1 5.9,-3.34 6.22,6.22 0 0 1 4.83,3.46 z"
       class="cls-1" />
    <path
       style="fill:#2e3192;fill-opacity:1"
       id="path136"
       d="m 336.2,9.34 a 10.64,10.64 0 0 0 -10.56,0 6.15,6.15 0 0 1 -0.58,-5.92 6.73,6.73 0 0 1 11.72,0 6.18,6.18 0 0 1 -0.58,5.92 z"
       class="cls-1" />
    <path
       style="fill:#2e3192;fill-opacity:1"
       id="path138"
       d="m 341.48,18.47 a 10.32,10.32 0 0 0 -1.41,-5.26 10.56,10.56 0 0 0 -3.87,-3.87 6.21,6.21 0 0 1 4.86,-3.45 6.41,6.41 0 0 1 5.94,3.34 6.37,6.37 0 0 1 0,6.78 6.24,6.24 0 0 1 -5.52,2.46 z"
       class="cls-1" />
    <path
       style="fill:#2e3192;fill-opacity:1"
       id="path140"
       d="m 330.92,27.46 a 9,9 0 1 1 9,-9 9,9 0 0 1 -9,9 z m 0,-16.59 a 7.6,7.6 0 1 0 7.62,7.6 7.61,7.61 0 0 0 -7.62,-7.6 z"
       class="cls-1" />
  </g>
  <path
     style="fill:#2e3192;fill-opacity:1"
     d="m 273.69,18.47 a 3.84,3.84 0 0 0 7.55,1 h 8.06 l -5.71,5.69 a 3.81,3.81 0 1 0 1.93,3.3 3.7,3.7 0 0 0 -0.53,-1.9 l 5.71,-5.69 v 8 a 3.84,3.84 0 1 0 2,0 v -8 l 5.71,5.69 a 3.89,3.89 0 1 0 1.4,-1.4 l -5.71,-5.69 h 8.06 a 3.83,3.83 0 1 0 0,-2 h -8.06 l 5.71,-5.69 a 3.71,3.71 0 0 0 1.91,0.53 3.84,3.84 0 1 0 -3.31,-1.92 l -5.71,5.69 v -8 a 3.84,3.84 0 1 0 -2,0 v 8 L 285,10.4 a 3.76,3.76 0 0 0 0.53,-1.91 3.85,3.85 0 1 0 -3.84,3.83 3.74,3.74 0 0 0 1.91,-0.53 l 5.71,5.69 h -8.06 a 3.84,3.84 0 0 0 -7.55,1 z m 9.85,-10 A 1.84,1.84 0 0 1 283,9.8 a 1.91,1.91 0 0 1 -2.63,0 1.85,1.85 0 0 1 1.32,-3.16 1.83,1.83 0 0 1 1.31,0.54 1.86,1.86 0 0 1 0.54,1.31 z m 8.15,-2.28 a 1.86,1.86 0 1 1 1.86,-1.85 1.86,1.86 0 0 1 -1.86,1.87 z m 8.7,3.59 a 1.85,1.85 0 1 1 2.62,0 1.9,1.9 0 0 1 -2.62,0.02 z m 3.6,8.67 a 1.86,1.86 0 1 1 1.86,1.86 1.85,1.85 0 0 1 -1.85,-1.84 z m -3.6,8.67 a 1.8561856,1.8561856 0 0 1 2.61,2.64 1.88,1.88 0 0 1 -2.62,0 1.84,1.84 0 0 1 0.01,-2.62 z m -8.7,3.59 a 1.86,1.86 0 1 1 -1.86,1.86 1.86,1.86 0 0 1 1.86,-1.84 z m -10,-4.13 a 1.83,1.83 0 0 1 1.31,0.54 1.86,1.86 0 0 1 0.55,1.31 1.82,1.82 0 0 1 -0.55,1.31 1.89,1.89 0 0 1 -2.63,0 1.85,1.85 0 0 1 1.32,-3.16 z m -6,-8.13 a 1.86,1.86 0 1 1 1.86,1.86 1.86,1.86 0 0 1 -1.88,-1.84 z"
     class="cls-1"
     data-name="flower"
     id="flower-8" />
  <g
     style="fill:#2e3192;fill-opacity:1"
     data-name="flower"
     id="flower-9">
    <path
       style="fill:#2e3192;fill-opacity:1"
       id="path144"
       d="m 169.92,14.45 a 1.42,1.42 0 1 1 0,2 1.41,1.41 0 0 1 0,-2 z"
       class="cls-1" />
    <path
       style="fill:#2e3192;fill-opacity:1"
       id="path146"
       d="m 176,20.49 a 1.42,1.42 0 1 1 2,2 1.43,1.43 0 0 1 -2,0 1.41,1.41 0 0 1 0,-2 z"
       class="cls-1" />
    <path
       style="fill:#2e3192;fill-opacity:1"
       id="path148"
       d="m 176,16.46 a 1.42,1.42 0 1 1 2,0 1.41,1.41 0 0 1 -2,0 z"
       class="cls-1" />
    <path
       style="fill:#2e3192;fill-opacity:1"
       id="path150"
       d="m 169.92,20.49 a 1.42,1.42 0 1 1 0,2 1.42,1.42 0 0 1 0,-2 z"
       class="cls-1" />
    <path
       style="fill:#2e3192;fill-opacity:1"
       id="path152"
       d="M 174,12.78 A 1.42,1.42 0 1 1 172.57,14.2 1.43,1.43 0 0 1 174,12.78 Z"
       class="cls-1" />
    <path
       style="fill:#2e3192;fill-opacity:1"
       id="path154"
       d="m 174,21.33 a 1.42,1.42 0 1 1 -1.43,1.41 1.42,1.42 0 0 1 1.43,-1.41 z"
       class="cls-1" />
    <path
       style="fill:#2e3192;fill-opacity:1"
       id="path156"
       d="m 178.24,17.05 a 1.42,1.42 0 1 1 -1.42,1.42 1.43,1.43 0 0 1 1.42,-1.42 z"
       class="cls-1" />
    <path
       style="fill:#2e3192;fill-opacity:1"
       id="path158"
       d="m 169.67,19.89 a 1.42,1.42 0 1 1 1.43,-1.42 1.42,1.42 0 0 1 -1.43,1.42 z"
       class="cls-1" />
    <path
       style="fill:#2e3192;fill-opacity:1"
       id="path160"
       d="m 172.53,19.9 a 2,2 0 1 0 0,-2.85 2,2 0 0 0 0,2.85 z"
       class="cls-1" />
    <path
       style="fill:#2e3192;fill-opacity:1"
       id="path162"
       d="m 179.24,27.6 a 10.52,10.52 0 0 0 5.28,-9.13 6.25,6.25 0 0 1 5.48,2.47 6.37,6.37 0 0 1 0,6.77 6.43,6.43 0 0 1 -5.9,3.35 6.22,6.22 0 0 1 -4.86,-3.46 z"
       class="cls-1" />
    <path
       style="fill:#2e3192;fill-opacity:1"
       id="path164"
       d="m 168.68,27.6 a 10.64,10.64 0 0 0 10.56,0 6.19,6.19 0 0 1 0.58,5.93 6.74,6.74 0 0 1 -11.72,0 6.17,6.17 0 0 1 0.58,-5.93 z"
       class="cls-1" />
    <path
       style="fill:#2e3192;fill-opacity:1"
       id="path166"
       d="m 163.39,18.47 a 10.5,10.5 0 0 0 5.29,9.13 6.25,6.25 0 0 1 -4.87,3.46 6.43,6.43 0 0 1 -5.9,-3.35 6.37,6.37 0 0 1 0,-6.77 6.25,6.25 0 0 1 5.48,-2.47 z"
       class="cls-1" />
    <path
       style="fill:#2e3192;fill-opacity:1"
       id="path168"
       d="M 168.68,9.34 A 10.53,10.53 0 0 0 163.39,18.47 6.22,6.22 0 0 1 158,16 a 6.39,6.39 0 0 1 0,-6.78 6.44,6.44 0 0 1 5.9,-3.34 6.24,6.24 0 0 1 4.78,3.46 z"
       class="cls-1" />
    <path
       style="fill:#2e3192;fill-opacity:1"
       id="path170"
       d="m 179.23,9.34 a 10.62,10.62 0 0 0 -10.55,0 6.18,6.18 0 0 1 -0.59,-5.92 6.74,6.74 0 0 1 11.73,0 6.15,6.15 0 0 1 -0.59,5.92 z"
       class="cls-1" />
    <path
       style="fill:#2e3192;fill-opacity:1"
       id="path172"
       d="m 184.52,18.47 a 10.53,10.53 0 0 0 -5.29,-9.13 6.24,6.24 0 0 1 4.87,-3.45 6.42,6.42 0 0 1 5.9,3.34 6.39,6.39 0 0 1 0,6.77 6.24,6.24 0 0 1 -5.48,2.47 z"
       class="cls-1" />
    <path
       style="fill:#2e3192;fill-opacity:1"
       id="path174"
       d="m 174,27.46 a 9,9 0 1 1 9,-9 9,9 0 0 1 -9,9 z m 0,-16.59 a 7.6,7.6 0 1 0 7.62,7.6 7.62,7.62 0 0 0 -7.62,-7.6 z"
       class="cls-1" />
  </g>
</svg>
