<?xml version="1.0" encoding="UTF-8" standalone="no"?>
<svg
   xmlns:dc="http://purl.org/dc/elements/1.1/"
   xmlns:cc="http://creativecommons.org/ns#"
   xmlns:rdf="http://www.w3.org/1999/02/22-rdf-syntax-ns#"
   xmlns:svg="http://www.w3.org/2000/svg"
   xmlns="http://www.w3.org/2000/svg"
   id="svg453"
   version="1.1"
   viewBox="0 0 101.94588 102.13113"
   height="102.13113mm"
   width="101.94588mm">
  <title
     id="title1348">Slepice, autor V. Koubek</title>
  <defs
     id="defs447" />
  <metadata
     id="metadata450">
    <rdf:RDF>
      <cc:Work
         rdf:about="">
        <dc:format>image/svg+xml</dc:format>
        <dc:type
           rdf:resource="http://purl.org/dc/dcmitype/StillImage" />
        <dc:title>Slepice, autor V. Koubek</dc:title>
      </cc:Work>
    </rdf:RDF>
  </metadata>
  <g
     transform="translate(-10.584639,-19.407734)"
     id="layer1">
    <path
       d="m 57.034946,103.0442 c 0.40455,1.71069 1.11601,4.32186 1.99007,5.88355 v 12.31112 h 2.8611 v -12.30956 c 0.71137,-1.27041 1.31352,-3.2356 1.73163,-4.84599 -2.24466,-0.18497 -4.44207,-0.53656 -6.5828,-1.03912"
       fill="#ed1c24"
       id="path3"
       style="stroke-width:0.103622;fill:#feffff;fill-opacity:1" />
    <path
       d="m 69.388526,104.19913 c 0.41718,1.58822 1.00741,3.49061 1.70168,4.72858 v 12.31112 h 2.86173 v -12.30956 c 0.81105,-1.44739 1.47962,-3.79329 1.89504,-5.49342 -2.1057,0.4035 -4.26063,0.66391 -6.45845,0.76328"
       fill="#ed1c24"
       id="path5"
       style="stroke-width:0.103622;fill:#feffff;fill-opacity:1" />
    <path
       d="m 15.666696,40.177394 c 0.36972,-0.78773 1.02679,-1.3848 1.84519,-1.67971 0.36268,-0.12953 0.73562,-0.19522 1.11083,-0.19522 1.37289,0 2.60786,0.86503 3.07353,2.15378 1.06596,2.94328 2.66858,11.99331 2.99437,17.87148 -3.51362,-4.7319 -8.07671,-12.71577 -9.14236,-15.65946 -0.29522,-0.81903 -0.25367,-1.70334 0.11844,-2.49087 m 17.42062,-6.99168 c 1.80178,0 3.26834,1.45951 3.26834,3.25839 0,3.12918 -1.57474,16.24399 -3.26834,21.88538 -1.69381,-5.64139 -3.26762,-18.7562 -3.26762,-21.88538 0,-1.79888 1.46501,-3.25839 3.26762,-3.25839 m 11.39085,7.27084 c 0.46527,-1.28906 1.70282,-2.15409 3.07416,-2.15409 0.37573,0 0.74774,0.0657 1.10792,0.19522 0.82173,0.29491 1.47962,0.89198 1.84956,1.67971 0.37096,0.78753 0.41241,1.67184 0.11595,2.49087 -1.064,2.94369 -5.62896,10.92756 -9.14195,15.66122 0.32693,-5.87993 1.93027,-14.92882 2.99436,-17.87293 m -0.20071,21.52312 c 4.47398,-5.57631 9.58172,-15.11648 10.55152,-17.79884 1.45122,-4.00779 -0.63148,-8.43131 -4.65056,-9.87393 -3.65475,-1.31631 -7.64544,0.28651 -9.43064,3.60221 0.0492,-0.59925 0.0763,-1.09943 0.0763,-1.46501 0,-4.26135 -3.46388,-7.71414 -7.73673,-7.71414 -4.27285,0 -7.73756,3.45279 -7.73756,7.71414 0,0.36558 0.0279,0.86576 0.0764,1.46356 -1.78551,-3.31425 -5.77537,-4.91707 -9.43012,-3.60076 -4.01846,1.44262 -6.1008498,5.86614 -4.64942,9.87393 0.97001,2.68236 6.07795,12.22408 10.55328,17.79884 z"
       fill="#ed1c24"
       id="path7"
       style="stroke-width:0.103622;fill:#feffff;fill-opacity:1" />
    <path
       d="m 34.617676,36.239464 c 0,0.8439 -0.68464,1.52759 -1.53081,1.52759 -0.84587,0 -1.53153,-0.68369 -1.53153,-1.52759 0,-0.84369 0.68566,-1.52625 1.53153,-1.52625 0.84617,0 1.53081,0.68256 1.53081,1.52625"
       fill="#ed1c24"
       id="path9"
       style="stroke-width:0.103622;fill:#feffff;fill-opacity:1" />
    <path
       d="m 20.035206,41.348644 c 0,0.84276 -0.68556,1.52739 -1.5307,1.52739 -0.84639,0 -1.53153,-0.68463 -1.53153,-1.52739 0,-0.84276 0.68514,-1.52739 1.53153,-1.52739 0.84514,0 1.5307,0.68463 1.5307,1.52739"
       fill="#ed1c24"
       id="path11"
       style="stroke-width:0.103622;fill:#feffff;fill-opacity:1" />
    <path
       d="m 49.199936,41.348644 c 0,0.84276 -0.68422,1.52739 -1.53008,1.52739 -0.84504,0 -1.53226,-0.68463 -1.53226,-1.52739 0,-0.84276 0.68722,-1.52739 1.53226,-1.52739 0.84586,0 1.53008,0.68463 1.53008,1.52739"
       fill="#ed1c24"
       id="path13"
       style="stroke-width:0.103622;fill:#feffff;fill-opacity:1" />
    <path
       d="m 33.085716,33.188744 c -1.77266,0 -3.21508,1.43931 -3.21508,3.2072 0,1.768 1.44242,3.20752 3.21508,3.20752 1.77587,0 3.21736,-1.43952 3.21736,-3.20752 0,-1.76789 -1.44149,-3.2072 -3.21736,-3.2072 m 0,7.74751 c -2.50827,0 -4.55191,-2.03659 -4.55191,-4.54031 0,-2.50236 2.04364,-4.5404 4.55191,-4.5404 2.51159,0 4.55554,2.03804 4.55554,4.5404 0,2.50372 -2.04395,4.54031 -4.55554,4.54031"
       fill="#ed1c24"
       id="path15"
       style="stroke-width:0.103622;fill:#feffff;fill-opacity:1" />
    <path
       d="m 18.504596,38.297364 c -1.77422,0 -3.21653,1.439 -3.21653,3.20824 0,1.7678 1.44231,3.20648 3.21653,3.20648 1.77432,0 3.21653,-1.43868 3.21653,-3.20648 0,-1.76924 -1.44221,-3.20824 -3.21653,-3.20824 m 0,7.74751 c -2.51087,0 -4.55326,-2.03627 -4.55326,-4.53927 0,-2.50444 2.04239,-4.54009 4.55326,-4.54009 2.51003,0 4.55325,2.03565 4.55325,4.54009 0,2.503 -2.04322,4.53927 -4.55325,4.53927"
       fill="#ed1c24"
       id="path17"
       style="stroke-width:0.103622;fill:#feffff;fill-opacity:1" />
    <path
       d="m 47.669906,38.297364 c -1.77442,0 -3.21787,1.439 -3.21787,3.20824 0,1.7678 1.44345,3.20648 3.21787,3.20648 1.77256,0 3.21498,-1.43868 3.21498,-3.20648 0,-1.76924 -1.44242,-3.20824 -3.21498,-3.20824 m 0,7.74751 c -2.51117,0 -4.55284,-2.03627 -4.55284,-4.53927 0,-2.50444 2.04167,-4.54009 4.55284,-4.54009 2.50921,0 4.55284,2.03565 4.55284,4.54009 0,2.503 -2.04363,4.53927 -4.55284,4.53927"
       fill="#ed1c24"
       id="path19"
       style="stroke-width:0.103622;fill:#feffff;fill-opacity:1" />
    <path
       d="m 25.566526,63.980444 c 0,0.39687 -0.32444,0.72111 -0.72318,0.72111 -0.4005,0 -0.7238,-0.32424 -0.7238,-0.72111 0,-0.39822 0.3233,-0.72131 0.7238,-0.72131 0.39874,0 0.72318,0.32309 0.72318,0.72131"
       fill="#ed1c24"
       id="path21"
       style="stroke-width:0.103622;fill:#feffff;fill-opacity:1" />
    <path
       d="m 29.839676,63.980444 c 0,0.39687 -0.32434,0.72111 -0.7238,0.72111 -0.39967,0 -0.72401,-0.32424 -0.72401,-0.72111 0,-0.39822 0.32434,-0.72131 0.72401,-0.72131 0.39946,0 0.7238,0.32309 0.7238,0.72131"
       fill="#ed1c24"
       id="path23"
       style="stroke-width:0.103622;fill:#feffff;fill-opacity:1" />
    <path
       d="m 34.113026,63.980444 c 0,0.39687 -0.32393,0.72111 -0.72536,0.72111 -0.39811,0 -0.72224,-0.32424 -0.72224,-0.72111 0,-0.39822 0.32413,-0.72131 0.72224,-0.72131 0.40143,0 0.72536,0.32309 0.72536,0.72131"
       fill="#ed1c24"
       id="path25"
       style="stroke-width:0.103622;fill:#feffff;fill-opacity:1" />
    <path
       d="m 38.384286,63.980444 c 0,0.39687 -0.3233,0.72111 -0.72266,0.72111 -0.39988,0 -0.72318,-0.32424 -0.72318,-0.72111 0,-0.39822 0.3233,-0.72131 0.72318,-0.72131 0.39936,0 0.72266,0.32309 0.72266,0.72131"
       fill="#ed1c24"
       id="path27"
       style="stroke-width:0.103622;fill:#feffff;fill-opacity:1" />
    <path
       d="m 42.658366,63.980444 c 0,0.39687 -0.32371,0.72111 -0.72359,0.72111 -0.39988,0 -0.7238,-0.32424 -0.7238,-0.72111 0,-0.39822 0.32392,-0.72131 0.7238,-0.72131 0.39988,0 0.72359,0.32309 0.72359,0.72131"
       fill="#ed1c24"
       id="path29"
       style="stroke-width:0.103622;fill:#feffff;fill-opacity:1" />
    <path
       d="m 86.501526,28.770154 c 0,1.39983 -1.13746,2.53231 -2.54154,2.53231 -1.40232,0 -2.53977,-1.13248 -2.53977,-2.53231 0,-1.40014 1.13745,-2.53263 2.53977,-2.53263 1.40408,0 2.54154,1.13249 2.54154,2.53263"
       fill="#ed1c24"
       id="path31"
       style="stroke-width:0.103622;fill:#feffff;fill-opacity:1" />
    <path
       d="m 105.20343,55.672644 c -1.5191,0 -2.92753,-0.67759 -3.88334,-1.79184 -0.95467,1.11425 -2.363103,1.79184 -3.88334,1.79184 -1.521069,0 -2.929703,-0.67759 -3.88334,-1.79184 -0.956744,1.11425 -2.364234,1.79184 -3.884584,1.79184 -1.51993,0 -2.9297,-0.67759 -3.88427,-1.79184 v -3.18585 c 0,0 1.30792,2.98037 3.88427,2.98037 2.57605,0 3.884584,-2.98037 3.884584,-2.98037 0,0 1.306676,2.98037 3.88334,2.98037 2.57542,0 3.88334,-2.98037 3.88334,-2.98037 0,0 1.30729,2.98037 3.88334,2.98037 2.57542,0 3.88447,-2.98037 3.88447,-2.98037 v 3.18585 c -0.95456,1.11425 -2.36454,1.79184 -3.88447,1.79184 m 3.88447,4.06519 c -0.95456,1.11321 -2.36454,1.79308 -3.88447,1.79308 -1.5191,0 -2.92753,-0.67987 -3.88334,-1.79308 -0.95467,1.11321 -2.363103,1.79308 -3.88334,1.79308 -1.521069,0 -2.929703,-0.67987 -3.88334,-1.79308 -0.956744,1.11321 -2.364234,1.79308 -3.884584,1.79308 -1.51993,0 -2.9297,-0.67987 -3.88427,-1.79308 v -3.18616 c 0,0 1.30792,2.98057 3.88427,2.98057 2.57605,0 3.884584,-2.98057 3.884584,-2.98057 0,0 1.306676,2.98057 3.88334,2.98057 2.57542,0 3.88334,-2.98057 3.88334,-2.98057 0,0 1.30729,2.98057 3.88334,2.98057 2.57542,0 3.88447,-2.98057 3.88447,-2.98057 z m -25.920624,30.99459 c -21.08656,1.06513 -28.45626,-9.55032 -35.11377,-18.07551 24.25998,7.75538 30.26747,-3.77153 36.54292,-3.9651 6.27493,-0.19253 11.521317,4.72071 11.715612,10.97885 0.105177,3.44544 -3.201922,10.75628 -13.144762,11.06176 m -4.44238,7.83113 c -0.27398,0.18227 -0.60039,0.27957 -0.93136,0.27957 -0.9213,0 -1.66883,-0.74504 -1.66883,-1.66614 0,-0.79281 0.55738,-1.45672 1.30232,-1.62386 0.65831,-0.14662 1.36595,0.10839 1.76054,0.69966 0.5121,0.76535 0.30486,1.80001 -0.46267,2.31077 m -7.36245,1.492666 c -0.0638,0.008 -0.12673,0.0112 -0.19066,0.0112 -0.72567,0 -1.39476,-0.476446 -1.60532,-1.208746 -0.25232,-0.88421 0.26113,-1.80634 1.14824,-2.05866 0.14911,-0.0414 0.31045,-0.0645 0.46516,-0.0645 0.92234,0 1.67091,0.74577 1.67091,1.66603 0,0.85862 -0.65168,1.5648 -1.48833,1.654746 m -6.91521,0.0896 c -0.15606,0 -0.31688,-0.0232 -0.4663,-0.0656 -0.8867,-0.251796 -1.40056,-1.173516 -1.14617,-2.057416 0.22756,-0.79706 1.00244,-1.28595 1.7964,-1.19963 0.83622,0.0924 1.48583,0.79934 1.48583,1.65785 0,0.91954 -0.74701,1.664786 -1.66976,1.664786 m -5.00919,-2.265796 c -0.20953,0.73033 -0.89706,1.19984 -1.62811,1.19984 -0.15678,0 -0.31398,-0.0213 -0.46806,-0.0652 -0.0248,-0.007 -0.0532,-0.0157 -0.0754,-0.0239 -0.87613,-0.28983 -1.34885,-1.23393 -1.05684,-2.10602 0.29148,-0.87291 1.23786,-1.34428 2.11243,-1.05383 0.88649,0.25294 1.36927,1.16512 1.11601,2.04912 m -6.41658,-2.13378 c -0.23336,0.69665 -0.88525,1.13891 -1.58366,1.13891 -0.17553,0 -0.35397,-0.0292 -0.5294,-0.0852 -0.10321,-0.0349 -0.21067,-0.0833 -0.30589,-0.1372 -0.8009,-0.45687 -1.07954,-1.47485 -0.62204,-2.27232 0.42805,-0.74505 1.34314,-1.03633 2.1143,-0.70204 0.79084,0.33729 1.20336,1.22895 0.92669,2.05783 m -6.08583,-2.85479 c -0.32174,0.48122 -0.85136,0.74131 -1.39133,0.74131 -0.31936,0 -0.64038,-0.0905 -0.92493,-0.28019 -0.0403,-0.0274 -0.0838,-0.0603 -0.12207,-0.0892 -0.72079,-0.57511 -0.83695,-1.62262 -0.26185,-2.34082 0.55811,-0.69541 1.56273,-0.82587 2.27782,-0.31253 0.73281,0.51915 0.924,1.52884 0.42236,2.28145 m 27.65434,-62.43796 c 1.46563,-2.53045 5.77423,-8.74808 12.70177,-8.74808 11.656443,0 18.581194,11.99839 21.421994,24.59116 v 0.003 10e-4 c 0,2.1258 -1.72769,3.84779 -3.86034,3.84779 -2.13098,0 -3.85971,-1.72199 -3.85971,-3.84779 0,2.1258 -1.727588,3.84779 -3.859196,3.84779 -2.132229,0 -3.86085,-1.72199 -3.86085,-3.84779 0,2.1258 -1.727178,3.84779 -3.859408,3.84779 -2.13285,0 -3.86012,-1.72199 -3.86012,-3.84779 v -10e-4 -0.003 c -1.06399,-6.83439 -4.3257,-13.69096 -10.96414,-15.84308 m -32.98776,58.34613 c -0.33024,0.412 -0.81509,0.62567 -1.3046,0.62567 -0.36734,0 -0.73644,-0.11844 -1.04213,-0.36517 -0.0887,-0.0697 -0.17367,-0.15159 -0.24548,-0.2376 -0.59137,-0.70691 -0.49479,-1.75743 0.21336,-2.34631 0.65976,-0.54754 1.61899,-0.50205 2.22414,0.075 0.6235,0.58909 0.70059,1.5679 0.15471,2.24839 m -4.83448,-4.68786 c -0.28362,0.18963 -0.60598,0.27978 -0.92493,0.27978 -0.50278,0 -0.99591,-0.226 -1.32232,-0.64702 -0.51252,-0.65375 -0.46682,-1.60033 0.13584,-2.20134 0.65189,-0.64992 1.71049,-0.64992 2.36238,0 0.0787,0.0779 0.1517,0.16797 0.21294,0.2604 0.51044,0.76276 0.30486,1.79815 -0.46391,2.30818 m -3.71205,-5.61486 c -0.23999,0.11916 -0.49532,0.17522 -0.74774,0.17522 -0.61075,0 -1.20005,-0.3349 -1.49216,-0.91809 l -0.002,-0.005 c -0.41397,-0.82224 -0.0793,-1.82333 0.74598,-2.23647 0.82555,-0.40848 1.82944,-0.0762 2.24165,0.74629 0.41273,0.82358 0.0789,1.8254 -0.74608,2.23854 m -3.24108,-6.05691 c -0.69831,0 -1.35113,-0.44091 -1.58407,-1.13995 -0.014,-0.0405 -0.0278,-0.0869 -0.0374,-0.12725 -0.22444,-0.89343 0.32009,-1.79794 1.21424,-2.02052 0.87271,-0.21948 1.7565,0.29149 2.0081,1.14461 0.25843,0.85882 -0.21419,1.77131 -1.07125,2.05793 -0.17585,0.0579 -0.35428,0.0852 -0.52961,0.0852 m 57.47719,-52.73282 c -9.95113,0 -14.88312,10.51784 -15.08881,10.96404 l -0.51293,1.12409 1.20761,0.26766 c 8.16293,1.80281 11.05751,11.61644 11.05751,19.47243 0,7.70834 -2.42808,20.64006 -18.69414,20.64006 -11.56453,0 -19.16085,-6.38498 -21.19744,-8.34852 -0.0362,1.14606 -0.97363,2.06488 -2.13036,2.06488 -1.16938,0 -2.11451,-0.93591 -2.13378,-2.09544 h -0.006 c -0.0196,1.15953 -0.96514,2.09544 -2.13337,2.09544 -1.16834,0 -2.11472,-0.93591 -2.1341,-2.09544 h -0.006 c -0.0194,1.15953 -0.96565,2.09544 -2.13389,2.09544 -1.16719,0 -2.11378,-0.93591 -2.13181,-2.09544 h -0.007 c -0.0188,1.15953 -0.96483,2.09544 -2.13316,2.09544 -1.16803,0 -2.1142,-0.93591 -2.13275,-2.09544 h -0.007 c -0.0202,1.15953 -0.96576,2.09544 -2.13317,2.09544 -1.02585,0 -1.8797,-0.71966 -2.08756,-1.67867 2.37284,22.4641 21.44975,40.038286 44.59756,40.038286 24.74815,0 44.879624,-20.075406 44.879624,-44.749056 1e-5,-16.5246 -7.73672,-39.7952 -24.939214,-39.7952"
       fill="#ed1c24"
       id="path33"
       style="stroke-width:0.103622;fill:#feffff;fill-opacity:1" />
    <path
       d="m 83.890036,80.891774 c 0,0 -0.15657,2.12124 -1.5478,3.65806 -1.39382,1.53723 -3.49569,1.90447 -3.49569,1.90447 0,0 0.15751,-2.12146 1.5479,-3.65755 1.39404,-1.53661 3.49559,-1.90498 3.49559,-1.90498"
       fill="#ed1c24"
       id="path35"
       style="stroke-width:0.103622;fill:#feffff;fill-opacity:1" />
    <path
       d="m 86.597036,84.997784 c 0.10539,2.07058 -1.12015,3.81215 -1.12015,3.81215 0,0 -1.39465,-1.61029 -1.49921,-3.68003 -0.10372,-2.06705 1.11974,-3.8079 1.11974,-3.8079 0,0 1.39579,1.60821 1.49962,3.67578"
       fill="#ed1c24"
       id="path37"
       style="stroke-width:0.103622;fill:#feffff;fill-opacity:1" />
    <path
       d="m 89.925406,82.316494 c 1.542,1.38895 1.91152,3.48615 1.91152,3.48615 0,0 -2.12954,-0.15719 -3.66843,-1.54624 -1.54086,-1.38864 -1.91172,-3.4817 -1.91172,-3.4817 0,0 2.1285,0.1517 3.66863,1.54179"
       fill="#ed1c24"
       id="path39"
       style="stroke-width:0.103622;fill:#feffff;fill-opacity:1" />
    <path
       d="m 83.339326,79.735664 c 0,0 -1.61609,1.38926 -3.68801,1.49578 -2.0739,0.10476 -3.82272,-1.11756 -3.82272,-1.11756 0,0 1.61681,-1.3904 3.68873,-1.49651 2.07431,-0.10383 3.822,1.11829 3.822,1.11829"
       fill="#ed1c24"
       id="path41"
       style="stroke-width:0.103622;fill:#feffff;fill-opacity:1" />
    <path
       d="m 86.220216,79.936384 c -0.0112,0.0437 -0.0186,0.0886 -0.0334,0.13274 -0.0135,0.04 -0.0338,0.0756 -0.0526,0.1115 -0.0176,0.0351 -0.0315,0.0741 -0.05,0.10828 -0.0386,0.0604 -0.082,0.11585 -0.12776,0.17129 -0.007,0.004 -0.0106,0.0137 -0.0196,0.024 -0.007,0.01 -0.0186,0.0156 -0.0272,0.0255 -0.0466,0.0485 -0.0979,0.0973 -0.15315,0.13874 -0.032,0.0253 -0.0703,0.041 -0.10497,0.0633 -0.0343,0.0194 -0.0663,0.0437 -0.10456,0.0599 -0.0405,0.0205 -0.0874,0.0345 -0.13046,0.0489 -0.0342,0.013 -0.0635,0.0255 -0.0962,0.0358 -0.1602,0.0394 -0.32713,0.0474 -0.48847,0.0229 -0.0353,-0.005 -0.065,-0.015 -0.0989,-0.0229 -0.045,-0.0104 -0.0915,-0.0194 -0.1372,-0.0365 -0.0382,-0.0128 -0.0723,-0.0337 -0.11077,-0.051 -0.0374,-0.0178 -0.0746,-0.0308 -0.10932,-0.0511 -0.0651,-0.0397 -0.12321,-0.0821 -0.17751,-0.13118 -0.009,-0.005 -0.0125,-0.008 -0.0192,-0.0152 -0.004,-0.002 -0.007,-0.005 -0.009,-0.01 -0.0565,-0.05 -0.1088,-0.1085 -0.15657,-0.16921 -0.0212,-0.0313 -0.0392,-0.0672 -0.0606,-0.10135 -0.0211,-0.0338 -0.0453,-0.0689 -0.0635,-0.10611 -0.0203,-0.0437 -0.0332,-0.0879 -0.0491,-0.13243 -0.0106,-0.0329 -0.0234,-0.0627 -0.0328,-0.0964 -0.0405,-0.15885 -0.0468,-0.32496 -0.0241,-0.48557 0.005,-0.0382 0.0171,-0.0741 0.0264,-0.11098 0.009,-0.0424 0.0177,-0.0852 0.0306,-0.12507 0.016,-0.0428 0.0401,-0.0854 0.0627,-0.1288 0.0139,-0.0305 0.0232,-0.0613 0.0407,-0.0879 0.086,-0.1431 0.19874,-0.26517 0.3292,-0.36527 0.0245,-0.0152 0.052,-0.0296 0.0783,-0.0461 0.0428,-0.0259 0.0847,-0.0556 0.12881,-0.0759 0.0383,-0.0171 0.0755,-0.0278 0.11274,-0.0412 0.0382,-0.0148 0.0768,-0.0309 0.1173,-0.0417 0.0712,-0.018 0.14372,-0.0277 0.21564,-0.0328 0.011,0 0.0157,-0.003 0.0242,-0.005 0.0102,0 0.0172,0.004 0.0259,0.004 0.0719,-10e-4 0.14537,0.001 0.22009,0.009 0.0401,0.007 0.0782,0.0197 0.11761,0.0296 0.0399,0.0114 0.079,0.0157 0.11719,0.0292 0.0451,0.0171 0.089,0.0395 0.13264,0.0627 0.0268,0.0135 0.0587,0.0242 0.0886,0.0405 0.14083,0.0852 0.26466,0.19616 0.36247,0.32599 0.0198,0.0297 0.0349,0.0593 0.0516,0.0894 0.0269,0.0382 0.0522,0.0783 0.0725,0.12052 0.0179,0.0385 0.0296,0.0782 0.0457,0.11854 0.0108,0.0367 0.0263,0.0716 0.0374,0.10849 0.0187,0.0786 0.0305,0.15678 0.0347,0.23657 0.001,2.1e-4 0,0.004 0.001,0.005 v 0.005 c 0.003,0.0784 0,0.15813 -0.0125,0.23844 -0.005,0.0358 -0.0159,0.0691 -0.0241,0.10331"
       fill="#ed1c24"
       id="path43"
       style="stroke-width:0.103622;fill:#feffff;fill-opacity:1" />
    <path
       d="m 83.429526,74.304554 c -0.10269,-2.06933 1.12026,-3.81059 1.12026,-3.81059 0,0 1.39382,1.60904 1.4991,3.67878 0.10424,2.06695 -1.12078,3.8077 -1.12078,3.8077 0,0 -1.39423,-1.60936 -1.49858,-3.67589"
       fill="#ed1c24"
       id="path45"
       style="stroke-width:0.103622;fill:#feffff;fill-opacity:1" />
    <path
       d="m 80.102126,76.987364 c -1.54138,-1.38885 -1.90996,-3.48636 -1.90996,-3.48636 0,0 2.12705,0.1575 3.66822,1.54666 1.54138,1.38687 1.90924,3.48439 1.90924,3.48439 0,0 -2.12933,-0.15626 -3.6675,-1.54469"
       fill="#ed1c24"
       id="path47"
       style="stroke-width:0.103622;fill:#feffff;fill-opacity:1" />
    <path
       d="m 86.688766,79.568334 c 0,0 1.61453,-1.3906 3.68739,-1.49557 2.07534,-0.10746 3.820644,1.1158 3.820644,1.1158 0,0 -1.613494,1.39195 -3.687594,1.49557 -2.0741,0.10342 -3.82044,-1.1158 -3.82044,-1.1158"
       fill="#ed1c24"
       id="path49"
       style="stroke-width:0.103622;fill:#feffff;fill-opacity:1" />
    <path
       d="m 86.138086,78.412294 c 0,0 0.15699,-2.12384 1.5478,-3.65869 1.39279,-1.53661 3.493,-1.9056 3.493,-1.9056 0,0 -0.15409,2.12124 -1.5477,3.65827 -1.3904,1.53453 -3.4931,1.90602 -3.4931,1.90602"
       fill="#ed1c24"
       id="path51"
       style="stroke-width:0.103622;fill:#feffff;fill-opacity:1" />
    <path
       d="m 72.125326,79.923934 c 0,0 1.03404,0.91757 1.03404,2.05068 0,1.13165 -1.03404,2.04892 -1.03404,2.04892 0,0 -1.03519,-0.91727 -1.03519,-2.04892 0,-1.13311 1.03519,-2.05068 1.03519,-2.05068"
       fill="#ed1c24"
       id="path53"
       style="stroke-width:0.103622;fill:#feffff;fill-opacity:1" />
    <path
       d="m 72.125326,84.460094 c 0,0 1.03404,0.91798 1.03404,2.05109 0,1.13311 -1.03404,2.04944 -1.03404,2.04944 0,0 -1.03519,-0.91633 -1.03519,-2.04944 0,-1.13311 1.03519,-2.05109 1.03519,-2.05109"
       fill="#ed1c24"
       id="path55"
       style="stroke-width:0.103622;fill:#feffff;fill-opacity:1" />
    <path
       d="m 67.794996,84.242494 c 0,0 0.92005,-1.0327 2.05544,-1.0327 1.1358,0 2.05638,1.0327 2.05638,1.0327 0,0 -0.92058,1.03259 -2.05638,1.03259 -1.13539,0 -2.05544,-1.03259 -2.05544,-1.03259"
       fill="#ed1c24"
       id="path57"
       style="stroke-width:0.103622;fill:#feffff;fill-opacity:1" />
    <path
       d="m 72.344256,84.242494 c 0,0 0.92068,-1.0327 2.05606,-1.0327 1.13519,0 2.05607,1.0327 2.05607,1.0327 0,0 -0.92088,1.03259 -2.05607,1.03259 -1.13538,0 -2.05606,-1.03259 -2.05606,-1.03259"
       fill="#ed1c24"
       id="path59"
       style="stroke-width:0.103622;fill:#feffff;fill-opacity:1" />
    <path
       d="m 62.427546,76.371074 c 0,0 1.03622,0.91851 1.03622,2.05006 0,1.13207 -1.03622,2.05026 -1.03622,2.05026 0,0 -1.03425,-0.91819 -1.03425,-2.05026 0,-1.13155 1.03425,-2.05006 1.03425,-2.05006"
       fill="#ed1c24"
       id="path61"
       style="stroke-width:0.103622;fill:#feffff;fill-opacity:1" />
    <path
       d="m 62.427546,80.908264 c 0,0 1.03622,0.9182 1.03622,2.04892 0,1.1331 -1.03622,2.05047 -1.03622,2.05047 0,0 -1.03425,-0.91737 -1.03425,-2.05047 0,-1.13072 1.03425,-2.04892 1.03425,-2.04892"
       fill="#ed1c24"
       id="path63"
       style="stroke-width:0.103622;fill:#feffff;fill-opacity:1" />
    <path
       d="m 58.097766,80.689484 c 0,0 0.92047,-1.03156 2.05493,-1.03156 1.13746,0 2.05679,1.03156 2.05679,1.03156 0,0 -0.91933,1.03373 -2.05679,1.03373 -1.13446,0 -2.05493,-1.03373 -2.05493,-1.03373"
       fill="#ed1c24"
       id="path65"
       style="stroke-width:0.103622;fill:#feffff;fill-opacity:1" />
    <path
       d="m 62.647606,80.689484 c 0,0 0.91975,-1.03156 2.05607,-1.03156 1.13539,0 2.05628,1.03156 2.05628,1.03156 0,0 -0.92089,1.03373 -2.05628,1.03373 -1.13632,0 -2.05607,-1.03373 -2.05607,-1.03373"
       fill="#ed1c24"
       id="path67"
       style="stroke-width:0.103622;fill:#feffff;fill-opacity:1" />
  </g>
</svg>
