<?xml version="1.0" encoding="UTF-8" standalone="no"?>
<svg
   xmlns:dc="http://purl.org/dc/elements/1.1/"
   xmlns:cc="http://creativecommons.org/ns#"
   xmlns:rdf="http://www.w3.org/1999/02/22-rdf-syntax-ns#"
   xmlns:svg="http://www.w3.org/2000/svg"
   xmlns="http://www.w3.org/2000/svg"
   id="svg889"
   version="1.1"
   viewBox="0 0 98.127075 25.630805"
   height="25.630806mm"
   width="98.127075mm">
  <title
     id="title931">blazej@seznam.cz, 2021</title>
  <defs
     id="defs883" />
  <metadata
     id="metadata886">
    <rdf:RDF>
      <cc:Work
         rdf:about="">
        <dc:format>image/svg+xml</dc:format>
        <dc:type
           rdf:resource="http://purl.org/dc/dcmitype/StillImage" />
        <dc:title>blazej@seznam.cz, 2021</dc:title>
      </cc:Work>
    </rdf:RDF>
  </metadata>
  <g
     transform="translate(-32.641928,-112.71883)"
     id="layer1">
    <g
       style="fill:#ffffff"
       transform="matrix(0.35277778,0,0,0.35277778,31.090701,112.66545)"
       data-name="Layer 1"
       id="Layer-1">
      <clipPath
         id="cp0">
        <path
           id="path891"
           d="M 0,72 H 288 V 0 H 0 Z"
           transform="matrix(1,0,0,-1,0,72)" />
      </clipPath>
      <g
         style="fill:#ffffff"
         id="g902"
         clip-path="url(#cp0)">
        <path
           style="fill:#ffffff"
           id="path894"
           fill="#030404"
           d="m 0,0 c -0.028,0 -0.056,-0.001 -0.084,-0.001 -0.028,-0.001 -0.058,-0.001 -0.086,-0.002 -5.812,-0.122 -14.674,-0.576 -22.827,-2.543 -8.152,-1.967 -15.598,-5.448 -18.579,-11.623 -0.966,-2.001 -1.813,-3.65 -2.584,-5.312 -0.773,-1.663 -1.468,-3.34 -2.132,-5.395 -0.547,-1.692 -1.078,-3.755 -1.587,-5.839 -0.509,-2.083 -0.995,-4.185 -1.455,-5.952 -0.438,-1.686 -1.602,-6.615 -2.114,-11.371 -0.514,-4.757 -0.378,-9.341 1.781,-10.337 4.325,-1.997 6.831,-0.461 8.472,2.915 1.639,3.376 2.415,8.592 3.278,13.96 0.579,3.599 1.36,7.332 2.247,10.533 0.886,3.202 1.878,5.871 2.878,7.341 2.64,3.883 5.39,6.477 8.636,8.116 3.247,1.638 6.989,2.322 11.614,2.385 1.008,0.013 3.14,0.025 5.281,0.043 2.143,0.018 4.295,0.042 5.344,0.082 0.352,0.012 0.65,0.14 0.903,0.36 0.253,0.221 0.461,0.535 0.63,0.92 0.223,0.506 0.379,1.136 0.486,1.841 0.106,0.704 0.163,1.483 0.186,2.288 0.028,0.973 0.008,1.984 -0.033,2.945 C 0.243,-4.372 0.229,-4.101 0.216,-3.837 0.18,-3.174 0.138,-2.549 0.101,-1.993 0.071,-1.553 0.045,-1.157 0.026,-0.82 0.008,-0.482 -0.003,-0.204 0,0"
           transform="matrix(1,0,0,-1,279.417,10.7066)" />
        <path
           style="fill:#ffffff"
           id="path896"
           fill="#030404"
           d="m 0,0 c 4.229,-0.773 5.643,-6.687 3.166,-10 -2.4,-3.213 -8.682,-3.227 -12.166,-3.333 -7.601,-0.232 -18.564,-1.932 -25.834,0.666 -6.86,2.451 -9.011,6.759 -9.333,11.667 -0.709,10.798 9.983,24.829 16.877,30.708 7.561,6.45 22.994,15.875 35.79,15.792 3.928,-0.024 7.76,-0.445 10.846,-2.759 1.705,-1.279 3.802,-2.829 4.945,-4.491 C 27.508,33.57 27.737,27.316 27.541,21 27.25,11.618 25.055,1.802 22.518,-5.599 c -1.028,-2.997 -1.699,-6.839 -5.185,-8.067 -3.226,-1.138 -7.5,0.958 -7.5,4.367 0,6.365 2.361,12.271 3.599,18.459 0.959,4.793 2.3,9.061 2.359,13.715 0.029,2.292 0.198,5.228 -0.625,7.5 -0.743,2.052 -2.962,2.803 -5.807,2.999 C 5.203,33.66 -0.123,32.527 -1.834,32 -6.591,30.535 -14.904,26.859 -18.41,23.25 -22.429,19.113 -30.237,12.823 -31.334,6.834 -34.094,-8.232 -7.806,-0.917 0,0"
           transform="matrix(1,0,0,-1,190.584,55.7071)" />
        <path
           style="fill:#ffffff"
           id="path898"
           fill="#030404"
           d="m 0,0 c -4.418,-6.627 -5.614,-15.177 -6.727,-22.899 -0.607,-4.212 -0.909,-8.432 -0.897,-12.687 0.012,-3.985 -0.75,-9.027 1.727,-12.423 4.417,-6.06 12.495,-8.375 19.664,-7.377 8.316,1.158 15.76,5.964 22.663,10.477 12.179,7.964 23.018,19.693 29.841,32.573 2.323,4.386 6.245,12.205 -1.257,13.986 -2.864,0.68 -5.795,-1.994 -7.166,-4.199 -2,-3.215 -3.612,-6.497 -5.89,-9.561 -7.022,-9.444 -13.792,-17.961 -23.797,-24.429 -4.364,-2.82 -8.392,-5.145 -13.323,-6.755 -1.771,-0.579 -3.834,-0.525 -5.69,-0.51 -1.815,0.014 -2.55,0.828 -3.675,2.174 -2.226,2.66 -1.56,8.273 -1.355,11.513 0.379,5.981 2.215,12.162 3.593,17.983 0.886,3.74 4.18,10.024 0.013,12.755 C 6.042,1.723 2.339,2.318 0.72,0.713 -0.165,-0.163 -0.758,-1.195 -1.469,-2.21 -1.157,-1.766 -0.478,-0.165 0,0 -3.327,-4.991 0.025,0.009 0,0"
           transform="matrix(1,0,0,-1,81.4512,14.055199)" />
        <path
           style="fill:#ffffff"
           id="path900"
           fill="#030404"
           d="M 0,0 C 2.072,4.145 7.019,14.349 -2.005,13.119 -4.855,12.73 -6.53,9.124 -7.863,6.922 -9.509,4.203 -10.784,1.29 -12.164,-1.572 c -2.492,-5.168 -4.567,-10.154 -6.44,-15.593 -1.007,-2.925 -1.896,-5.96 -2.635,-8.844 -0.842,-3.283 -1.242,-6.734 -1.386,-10.116 -0.123,-2.89 0.361,-5.604 1.981,-8.034 1.646,-2.469 3.876,-4.587 6.394,-6.216 5.028,-3.253 11.366,-2.75 17.097,-2.75 h 9.544 c 3.061,0 5.246,0.741 8.197,1.598 1.594,0.463 3.185,0.534 4.162,1.902 0.708,0.992 1.794,2.457 1.725,3.696 -0.196,3.531 -2.427,4.679 -5.78,4.679 -6.06,0 -12.041,-1 -18.109,-1 -2.535,0 -6.717,-0.399 -8.804,1.206 -2.451,1.886 -3.97,4.327 -3.97,7.669 0,2.989 0.643,5.746 1.625,8.625 0.876,2.563 2.908,7.095 4.813,9 1,1 2.043,2.098 3.49,2.764 3.557,1.636 7.033,2.608 11.448,3.173 5.553,0.712 11.177,0.914 16.765,1.065 3.165,0.086 5.749,-0.141 7.957,2.434 1.617,1.887 0.941,6.259 -1.456,7.387 C 29.249,3.523 21.25,2.188 17,2 11.501,1.757 4.848,0.491 -0.375,-1.25 -0.252,-0.842 -0.171,-0.389 0,0"
           transform="matrix(1,0,0,-1,29.875,16.2071)" />
      </g>
    </g>
  </g>
</svg>
